<svg width="20" height="20" viewBox="0 0 20 20" fill="none" xmlns="http://www.w3.org/2000/svg">
  <g clip-path="url(#clip0_1925_1933)">
    <path
      d="M10 20C15.5228 20 20 15.5228 20 10C20 4.47715 15.5228 0 10 0C4.47715 0 0 4.47715 0 10C0 15.5228 4.47715 20 10 20Z"
      fill="#6DA544" />
    <path d="M10.0001 3.91306L18.261 10L10.0001 16.087L1.73926 10L10.0001 3.91306Z" fill="#FFDA44" />
    <path
      d="M9.99997 13.4782C11.921 13.4782 13.4782 11.921 13.4782 10C13.4782 8.07902 11.921 6.52176 9.99997 6.52176C8.07899 6.52176 6.52173 8.07902 6.52173 10C6.52173 11.921 8.07899 13.4782 9.99997 13.4782Z"
      fill="#F0F0F0" />
    <path
      d="M8.26096 9.78262C7.65611 9.78262 7.0724 9.87462 6.52295 10.0453C6.54729 11.9453 8.09432 13.4783 10.0001 13.4783C11.1785 13.4783 12.2193 12.8917 12.8485 11.9952C11.7721 10.6476 10.1158 9.78262 8.26096 9.78262Z"
      fill="#0052B4" />
    <path
      d="M13.4138 10.6664C13.4557 10.4506 13.4783 10.228 13.4783 10C13.4783 8.07899 11.921 6.52176 10 6.52176C8.56668 6.52176 7.33621 7.38899 6.80371 8.62719C7.27441 8.52965 7.76176 8.47828 8.26094 8.47828C10.2811 8.47824 12.1087 9.31801 13.4138 10.6664Z"
      fill="#0052B4" />
  </g>
  <defs>
    <clipPath id="clip0_1925_1933">
      <rect width="20" height="20" fill="white" />
    </clipPath>
  </defs>
</svg>
  