<svg width="55" height="40" viewBox="0 0 55 40" fill="none" xmlns="http://www.w3.org/2000/svg">
  <path
    d="M15.285 23.9864V36.2858C15.285 36.3814 15.2771 36.4777 15.2861 36.5724C15.3448 37.1894 14.6047 37.7729 13.9625 37.5822C13.8052 37.5354 13.6553 37.4726 13.5236 37.376C13.2629 37.1846 13.1075 36.932 13.1019 36.6005C13.0999 36.4858 13.1005 36.3711 13.1005 36.2564C13.1005 28.0854 13.1005 19.9144 13.1003 11.7433C13.1003 11.6096 13.1012 11.4757 13.0956 11.3421C13.0876 11.1489 13.0346 10.9669 12.9576 10.7895C12.8024 10.4318 12.4745 10.2833 12.0899 10.3236C11.6207 10.3727 11.3284 10.6505 11.1884 11.091C11.1334 11.2638 11.1093 11.4444 11.1093 11.6279C11.1096 12.2682 11.1068 12.9084 11.1052 13.5487C11.1047 13.7206 11.102 13.8908 11.0646 14.0615C11.0383 14.181 11.0425 14.3084 11.0424 14.4322C11.0409 15.6077 11.0415 16.7832 11.0415 17.9586C11.0415 23.6258 11.0415 29.2929 11.0414 34.96C11.0414 35.0746 11.0409 35.1894 11.0395 35.304C11.0375 35.4622 10.9871 35.6064 10.8945 35.7319C10.4162 36.3806 9.56815 36.3502 9.10067 35.7662C8.99008 35.628 8.93176 35.4669 8.92482 35.2899C8.91993 35.1658 8.92083 35.0414 8.92083 34.9172C8.92064 27.96 8.92076 21.0027 8.92035 14.0454C8.92035 13.8735 8.91593 13.7015 8.91222 13.5295C8.90995 13.4236 8.88778 13.3215 8.85283 13.2213C8.76416 12.9672 8.58725 12.7949 8.33348 12.7285C8.04376 12.6528 7.74633 12.6575 7.45702 12.7509C7.23177 12.8237 7.08783 12.9837 7.00711 13.2009C6.95369 13.3446 6.92029 13.4939 6.92012 13.6489C6.91993 13.7635 6.91904 13.8782 6.91898 13.9929C6.91898 20.415 6.91898 26.8371 6.91892 33.2592C6.91892 33.3643 6.91641 33.4695 6.91886 33.5745C6.92681 33.9126 6.76817 34.1614 6.49613 34.3411C6.19404 34.5408 5.85365 34.595 5.5062 34.523C5.15828 34.451 4.94145 34.2142 4.84723 33.8744C4.81443 33.7559 4.80529 33.63 4.79447 33.5067C4.78616 33.4118 4.79184 33.3157 4.79184 33.2201C4.79178 26.9318 4.79196 20.6435 4.79148 14.3552C4.79142 13.9243 4.82924 13.4965 4.89963 13.0722C4.96254 12.6927 5.08175 12.3301 5.26505 11.9906C5.70428 11.177 6.38817 10.7138 7.29492 10.5584C7.84384 10.4643 8.37932 10.5088 8.91001 10.6645C9.19532 10.7482 9.21007 10.7464 9.29743 10.4642C9.47315 9.89617 9.81539 9.44554 10.2648 9.07163C10.5699 8.81763 10.9225 8.64514 11.3065 8.54679C12.1208 8.33832 12.9203 8.3817 13.685 8.74371C14.3551 9.06099 14.8153 9.58017 15.0671 10.2791C15.2175 10.6965 15.2859 11.128 15.2857 11.5722C15.2846 15.7103 15.285 19.8483 15.285 23.9864Z"
    fill="#F9FAFB" />
  <path
    d="M31.8702 16.9196C31.8702 22.1179 31.8684 27.3163 31.873 32.5147C31.8734 33.015 31.7695 33.4831 31.5331 33.9192C30.9633 34.9705 30.0661 35.5414 28.8838 35.6165C28.0733 35.6679 27.3342 35.4137 26.7143 34.8735C25.9735 34.2281 25.6048 33.4067 25.5958 32.4241C25.5951 32.3477 25.5956 32.2712 25.5956 32.1948V1.4058C25.5956 1.31027 25.6019 1.21425 25.5949 1.11919C25.561 0.656905 25.9795 0.204542 26.4603 0.127884C26.9989 0.0419639 27.5723 0.416175 27.6376 0.965153C27.6489 1.05986 27.66 1.15492 27.6638 1.2501C27.6684 1.36458 27.6654 1.47936 27.6654 1.59402C27.6654 11.7042 27.6654 21.8142 27.6657 31.9243C27.6657 32.0772 27.6658 32.2302 27.6734 32.3828C27.6846 32.6081 27.7602 32.8143 27.8927 32.9951C28.1272 33.3149 28.4534 33.4598 28.8409 33.4135C29.2642 33.3628 29.5601 33.1219 29.7091 32.717C29.7553 32.5914 29.7813 32.4595 29.7807 32.3239C29.7802 32.1996 29.7818 32.0754 29.7818 31.9512C29.7818 21.7838 29.7818 11.6163 29.7819 1.44894C29.7819 1.33428 29.7803 1.21957 29.7825 1.10491C29.7915 0.633005 30.0541 0.287116 30.5048 0.151544C30.9482 0.0181239 31.4869 0.216731 31.7409 0.605999C31.821 0.728903 31.8718 0.859814 31.8694 1.00907C31.8677 1.11417 31.8702 1.21927 31.8702 1.32443V16.9196Z"
    fill="#F9FAFB" />
  <path
    d="M17.2869 22.982C17.2869 17.8117 17.2873 12.6415 17.2864 7.47133C17.2863 6.89611 17.4026 6.35048 17.6908 5.84954C18.2104 4.94619 18.9882 4.3962 20.0202 4.26702C21.4763 4.08472 22.6303 4.90712 23.1583 5.93211C23.4189 6.43801 23.5315 6.97367 23.5347 7.5343C23.541 8.61414 23.5366 9.69412 23.5366 10.774C23.5366 12.5038 23.5376 14.2336 23.5358 15.9634C23.5354 16.3669 23.4852 16.7621 23.3358 17.1427C22.9025 18.2464 21.8399 18.8905 20.8012 18.8904C20.4571 18.8904 20.1131 18.8899 19.769 18.8912C19.6928 18.8915 19.6161 18.8942 19.5405 18.9035C19.4775 18.9113 19.4391 18.9555 19.4279 19.0171C19.4194 19.0638 19.4164 19.1119 19.4153 19.1594C19.4133 19.255 19.4142 19.3506 19.4142 19.4461C19.4142 25.7536 19.4142 32.0611 19.4142 38.3686C19.4142 38.4832 19.4154 38.598 19.4126 38.7126C19.3946 39.4519 18.5787 39.8608 18.011 39.6547C17.5889 39.5015 17.2607 39.164 17.2865 38.636C17.2911 38.5406 17.2869 38.4448 17.2869 38.3493V22.982ZM19.4142 11.9433C19.4142 13.4046 19.414 14.866 19.4146 16.3273C19.4147 16.4226 19.4177 16.5182 19.4256 16.6132C19.4318 16.6877 19.4776 16.7353 19.5515 16.7488C19.5982 16.7573 19.6463 16.7617 19.6938 16.7619C19.9994 16.7628 20.3052 16.7681 20.6106 16.7607C21.0984 16.7489 21.4338 16.4241 21.4675 15.9384C21.4748 15.8337 21.473 15.7283 21.473 15.6233C21.4732 13.0636 21.4732 10.5039 21.473 7.94418C21.4729 7.82964 21.4692 7.71503 21.4684 7.60044C21.4673 7.40548 21.4142 7.22187 21.3352 7.04716C21.1238 6.5795 20.6518 6.39601 20.2578 6.46442C19.7813 6.54717 19.4374 6.93955 19.4164 7.41611C19.4122 7.51147 19.4143 7.60713 19.4143 7.70261C19.4142 9.11616 19.4142 10.5298 19.4142 11.9433Z"
    fill="#F9FAFB" />
  <path
    d="M40.0532 17.273C40.0531 16.0402 40.0573 14.8074 40.052 13.5747C40.0455 12.0692 41.0947 10.7588 42.6047 10.4789C43.6327 10.2884 44.5571 10.5349 45.3314 11.2654C45.9199 11.8207 46.2414 12.503 46.3262 13.3053C46.3523 13.5534 46.3602 13.8005 46.3602 14.0489C46.3601 15.1288 46.3599 16.2087 46.3603 17.2885C46.3604 17.4417 46.3576 17.5941 46.325 17.7448C46.3024 17.8491 46.2686 17.9487 46.2022 18.0323C45.9583 18.3392 45.6474 18.5283 45.2492 18.5437C44.6877 18.5653 44.2552 18.1613 44.2353 17.5996C44.2277 17.3896 44.233 17.1791 44.2329 16.9689C44.2328 15.9464 44.2312 14.9238 44.2341 13.9013C44.2347 13.6786 44.204 13.4632 44.1294 13.2543C44.0031 12.9013 43.7722 12.6713 43.3838 12.6334C42.9593 12.5921 42.6095 12.7166 42.3791 13.0963C42.2884 13.246 42.2345 13.4077 42.2348 13.585C42.2349 13.671 42.2314 13.757 42.2314 13.843C42.2312 16.1556 42.2312 18.4682 42.2315 20.7809C42.2315 20.8669 42.2298 20.9533 42.2378 21.0387C42.256 21.2323 42.3438 21.3339 42.5352 21.3706C42.628 21.3884 42.7252 21.3883 42.8204 21.3886C43.4034 21.3901 43.9863 21.3885 44.5692 21.3903C44.6933 21.3907 44.8189 21.3901 44.9409 21.4088C45.6405 21.5166 46.2134 22.0981 46.318 22.8005C46.3447 22.9801 46.3613 23.1602 46.3611 23.3426C46.3595 25.6075 46.361 27.8724 46.3595 30.1372C46.359 30.7176 46.2603 31.2768 45.9904 31.7996C45.4134 32.9173 44.2274 33.6112 42.9744 33.5019C41.6764 33.3888 40.7773 32.6947 40.273 31.4967C40.1121 31.1144 40.0505 30.7094 40.0516 30.2926C40.0554 28.754 40.053 27.2155 40.053 25.6769C39.9886 25.1379 40.4366 24.7371 40.87 24.6099C41.2446 24.4999 41.7835 24.6259 42.0928 25.0901C42.1798 25.2206 42.2183 25.3684 42.227 25.5234C42.2322 25.6187 42.231 25.7144 42.231 25.8099C42.2313 27.167 42.2309 28.5239 42.2317 29.8809C42.2318 30.0338 42.2352 30.1868 42.2431 30.3394C42.252 30.513 42.2943 30.6804 42.3728 30.8353C42.5337 31.1522 42.7893 31.3151 43.1505 31.3307C43.4913 31.3453 43.7656 31.2326 43.9881 30.9768C44.1392 30.8031 44.2057 30.598 44.2282 30.3754C44.2369 30.2902 44.2328 30.2036 44.2328 30.1176C44.2329 27.9674 44.2329 25.8172 44.2328 23.667C44.2328 23.5906 44.2346 23.5139 44.229 23.4377C44.2186 23.2958 44.1811 23.261 44.0304 23.2517C43.9541 23.247 43.8775 23.2488 43.8011 23.2488C43.2946 23.2486 42.788 23.2542 42.2816 23.2473C41.4524 23.2361 40.8113 22.8767 40.3744 22.1726C40.159 21.8256 40.0517 21.4416 40.0524 21.0287C40.0545 19.7768 40.0532 18.5249 40.0532 17.273Z"
    fill="#F9FAFB" />
  <path
    d="M54.6366 19.1111C54.6365 21.4905 54.6345 23.8699 54.6383 26.2493C54.6391 26.7068 54.5587 27.1435 54.3609 27.5551C53.8936 28.5278 53.1194 29.119 52.0672 29.3202C51.0303 29.5185 50.1047 29.2311 49.3397 28.5203C48.7067 27.9322 48.3617 27.1867 48.3618 26.3031C48.3624 21.4965 48.3543 16.6898 48.3675 11.8832C48.3709 10.6697 48.9699 9.77977 50.0184 9.188C50.4689 8.93377 50.9609 8.81254 51.4747 8.81398C52.2885 8.81624 53.0105 9.07609 53.6189 9.63116C54.1383 10.1049 54.4655 10.6825 54.5976 11.3733C54.6357 11.5725 54.6361 11.7723 54.6362 11.9727C54.6368 14.0082 54.6366 16.0436 54.6366 18.079V19.1111ZM52.5426 18.9456C52.5426 16.6811 52.5426 14.4164 52.5425 12.1519C52.5425 12.0468 52.5451 11.9415 52.5404 11.8366C52.5313 11.6352 52.4997 11.4365 52.4255 11.2485C52.3311 11.0092 52.1873 10.8047 51.9303 10.725C51.4337 10.571 50.893 10.6889 50.6158 11.2382C50.5596 11.3496 50.5182 11.4647 50.4959 11.589C50.4586 11.7971 50.4496 12.0059 50.4496 12.2166C50.4506 16.698 50.4504 21.1794 50.4504 25.6608C50.4504 25.7181 50.4522 25.7755 50.4503 25.8328C50.444 26.0159 50.4726 26.1965 50.5145 26.3723C50.6068 26.7604 50.8274 27.0481 51.2198 27.1702C51.8025 27.3515 52.3576 27.0949 52.4889 26.4231C52.5276 26.225 52.5435 26.0268 52.5434 25.8253C52.5421 23.5321 52.5426 21.2389 52.5426 18.9456Z"
    fill="#F9FAFB" />
  <path
    d="M33.8478 19.0797V5.66632C33.8478 5.56122 33.8572 5.45522 33.8466 5.3512C33.7869 4.76673 34.4806 4.20694 35.0923 4.32171C35.3223 4.36486 35.5282 4.45861 35.7032 4.61771C35.8968 4.79374 36.0143 5.00119 35.9998 5.27197C35.9938 5.38627 35.9992 5.50123 35.9992 5.61583C35.9992 14.4626 35.9992 23.3093 35.9993 32.156C35.9993 32.2706 36.0008 32.3853 35.9999 32.4999C35.9991 32.6157 36.0179 32.7283 36.0505 32.8388C36.152 33.1819 36.4212 33.4055 36.776 33.4374C36.8615 33.4451 36.9479 33.4438 37.0337 33.444C37.3968 33.4448 37.7598 33.4456 38.1228 33.4445C38.3405 33.4438 38.5376 33.5028 38.7102 33.6373C38.9095 33.7926 39.0247 33.9942 39.0355 34.2488C39.0413 34.3823 39.0406 34.5163 39.0373 34.6499C39.0275 35.0529 38.8052 35.3603 38.4274 35.4981C38.291 35.548 38.1497 35.5654 38.0052 35.5651C37.5752 35.5645 37.1452 35.5723 36.7155 35.5626C36.3418 35.5541 35.9733 35.4953 35.6177 35.3759C34.7824 35.0955 34.2654 34.5088 34.0083 33.6804C33.9118 33.3694 33.8512 33.0504 33.8514 32.7224C33.8515 32.5695 33.848 32.4166 33.848 32.2638C33.8477 27.8691 33.8478 23.4744 33.8478 19.0797Z"
    fill="#F9FAFB" />
  <path
    d="M0.644527 24.0988C0.644646 22.6658 0.648291 21.2328 0.642376 19.7998C0.640584 19.3722 0.848631 19.0917 1.21866 18.9262C1.56861 18.7697 1.9249 18.7819 2.26965 18.9609C2.39877 19.0279 2.50829 19.1195 2.59851 19.2329C2.71455 19.3788 2.78589 19.5429 2.78864 19.7323C2.78971 19.8087 2.79007 19.8852 2.79007 19.9616C2.79013 22.7511 2.79013 25.5407 2.79007 28.3303C2.79007 28.4067 2.78947 28.4831 2.78875 28.5596C2.7869 28.7597 2.71496 28.9353 2.58435 29.0822C2.10642 29.6195 1.28498 29.5398 0.911069 29.1539C0.744368 28.9818 0.642316 28.7858 0.644706 28.5411C0.646738 28.331 0.644467 28.1208 0.644467 27.9106C0.644407 26.64 0.644407 25.3694 0.644527 24.0988Z"
    fill="#F9FAFB" />
  <path
    d="M15.285 2.50277C15.285 3.01865 15.2841 3.53453 15.2857 4.0504C15.2861 4.195 15.2744 4.33756 15.2251 4.47367C15.1212 4.76064 14.9228 4.94049 14.6116 4.95334C14.2969 4.9663 13.9809 4.96594 13.6662 4.95399C13.3555 4.94222 13.1539 4.76692 13.0488 4.4794C13.0026 4.35291 12.9858 4.22045 12.9859 4.08524C12.9868 3.01524 12.9866 1.94531 12.9861 0.875319C12.986 0.759763 13.0016 0.646956 13.0329 0.535942C13.121 0.224169 13.3344 0.0421129 13.6478 0.0179144C13.9706 -0.00700113 14.2977 -0.00389416 14.6211 0.0157634C14.9399 0.0351222 15.1456 0.221899 15.2377 0.529848C15.2765 0.659504 15.2857 0.792028 15.2855 0.926524C15.2844 1.45196 15.2851 1.97734 15.285 2.50277ZM13.7369 2.48264C13.7369 2.9304 13.7364 3.37822 13.7373 3.82598C13.7375 3.91167 13.7365 3.99806 13.7474 4.08267C13.7631 4.20492 13.8272 4.27052 13.948 4.29179C14.0705 4.31342 14.1951 4.31384 14.318 4.29466C14.4411 4.27542 14.5061 4.21119 14.523 4.09085C14.5335 4.01581 14.5337 3.93891 14.5337 3.86285C14.5344 2.94821 14.5342 2.03356 14.5341 1.11898C14.5341 1.0618 14.5353 1.00444 14.5309 0.947556C14.5171 0.765619 14.4473 0.690394 14.2707 0.667391C14.2237 0.661296 14.1756 0.661296 14.128 0.661595C13.8227 0.663567 13.7447 0.742018 13.7374 1.05355C13.7365 1.09161 13.7369 1.12973 13.7369 1.16785V2.48264Z"
    fill="#F9FAFB" />
  <path
    d="M7.98465 2.65256C7.98465 2.07926 7.98399 1.50591 7.98525 0.93255C7.98549 0.82763 7.98418 0.721336 7.99941 0.618029C8.05283 0.256664 8.28908 0.0317079 8.6529 0.0110346C8.90049 -0.00300649 9.15001 -0.00175175 9.39785 0.0100786C9.73424 0.0261512 9.94563 0.206893 10.038 0.528823C10.0701 0.640614 10.0773 0.754616 10.0774 0.869335C10.0782 2.08291 10.0782 3.29642 10.078 4.50999C10.078 4.55773 10.0781 4.60589 10.0722 4.65309C10.0456 4.86508 9.92149 4.96528 9.69749 4.95811C9.49195 4.95159 9.37514 4.85056 9.36672 4.64156C9.35555 4.36486 9.36241 4.0875 9.36068 3.81038C9.36003 3.70534 9.36517 3.59935 9.35339 3.49538C9.32191 3.21599 9.03947 3.08096 8.79659 3.22519C8.71838 3.27162 8.66759 3.34009 8.65564 3.43049C8.64692 3.49652 8.64584 3.56386 8.64554 3.63059C8.64446 3.89815 8.64548 4.16571 8.64465 4.43327C8.6444 4.50963 8.64668 4.58683 8.63712 4.66223C8.6131 4.85199 8.49414 4.95661 8.31202 4.95626C8.13008 4.9559 8.01243 4.84996 7.99063 4.659C7.98197 4.58342 7.98489 4.50634 7.98484 4.42992C7.98448 3.83751 7.98465 3.24503 7.98465 2.65256ZM8.64739 1.55633H8.64542C8.64542 1.72829 8.64411 1.90025 8.64608 2.07221C8.64685 2.13877 8.6496 2.20635 8.66161 2.27159C8.67589 2.34933 8.7188 2.41308 8.78876 2.45413C9.0001 2.57823 9.35291 2.50617 9.35752 2.1745C9.35835 2.1172 9.36056 2.0599 9.36063 2.0026C9.36092 1.7256 9.3611 1.44855 9.36044 1.17149C9.36027 1.10469 9.36182 1.03723 9.35369 0.971148C9.32812 0.762324 9.19452 0.655014 8.97876 0.664753C8.77293 0.674074 8.65821 0.778157 8.64919 0.983277C8.64082 1.17394 8.64739 1.36526 8.64739 1.55633Z"
    fill="#F9FAFB" />
  <path
    d="M11.2775 2.496C11.2775 2.93509 11.2774 3.37413 11.2775 3.81323C11.2776 3.88003 11.2757 3.94707 11.2801 4.01363C11.2973 4.27049 11.5589 4.39949 11.7781 4.25693C11.8155 4.23261 11.8441 4.18905 11.866 4.14854C11.8835 4.11634 11.8889 4.07565 11.8924 4.03807C11.918 3.76334 12.277 3.7006 12.4597 3.79453C12.5329 3.83217 12.579 3.89491 12.5889 3.97348C12.6154 4.18415 12.6124 4.39322 12.5153 4.58973C12.4155 4.79181 12.2576 4.9174 12.0319 4.95068C11.9753 4.95899 11.9179 4.96155 11.861 4.96747C11.8311 4.97064 11.8026 4.98229 11.7963 5.01354C11.7873 5.05841 11.817 5.08273 11.8553 5.09539C11.8915 5.10734 11.9294 5.11398 11.9657 5.12551C12.065 5.15705 12.1272 5.22487 12.1502 5.32591C12.1952 5.52392 12.196 5.72414 12.1619 5.92298C12.137 6.06835 12.0434 6.16258 11.9019 6.19777C11.7426 6.23738 11.5798 6.23386 11.4194 6.2001C11.33 6.18134 11.2801 6.12057 11.276 6.04457C11.2713 5.95746 11.3242 5.89108 11.4264 5.86389C11.4723 5.8517 11.5213 5.85194 11.5676 5.84107C11.6724 5.81639 11.7178 5.76022 11.7169 5.66313C11.716 5.56598 11.674 5.5131 11.5703 5.47916C11.5613 5.47624 11.5517 5.47486 11.5422 5.47379C11.3638 5.45329 11.2667 5.35518 11.2584 5.17432C11.2537 5.07299 11.1969 5.01981 11.1036 4.99621C11.0759 4.98916 11.0495 4.97745 11.0224 4.96825C10.7716 4.88358 10.6338 4.69985 10.5808 4.44956C10.5473 4.29105 10.5261 4.1302 10.5262 3.96679C10.5275 3.01223 10.5274 2.05773 10.5264 1.10324C10.5262 0.939761 10.5469 0.778677 10.582 0.62058C10.6566 0.284549 10.8793 0.0884514 11.2234 0.0684353C11.4515 0.0551111 11.6821 0.0542746 11.91 0.0702278C12.2538 0.0943068 12.4663 0.286999 12.5556 0.62279C12.6056 0.810463 12.6084 1.0016 12.5866 1.19143C12.5644 1.38513 12.4256 1.50051 12.2377 1.50278C12.0413 1.50517 11.9026 1.40389 11.8651 1.2167C11.8465 1.12397 11.8512 1.02682 11.8407 0.932113C11.8179 0.724364 11.6512 0.617831 11.4517 0.683018C11.3639 0.711697 11.301 0.769654 11.2899 0.864537C11.2799 0.9495 11.2782 1.03578 11.278 1.12146C11.2769 1.57968 11.2775 2.03784 11.2775 2.496Z"
    fill="#F9FAFB" />
  <path
    d="M5.46753 2.4786C5.46753 1.83952 5.46717 1.20038 5.46795 0.561297C5.46801 0.475557 5.46544 0.388621 5.47823 0.304375C5.50379 0.135821 5.61218 0.0304832 5.78336 0.0135741C5.90633 0.001445 6.03103 0.00634445 6.155 0.00586645C6.35529 0.00502996 6.55574 0.00150475 6.75591 0.00724069C7.21819 0.0204453 7.4861 0.277308 7.49435 0.740247C7.50493 1.33147 7.50565 1.92317 7.49351 2.51433C7.48431 2.96227 7.21795 3.21483 6.7709 3.23413C6.70423 3.237 6.63724 3.23377 6.57062 3.23759C6.30838 3.25277 6.22766 3.32829 6.22109 3.58545C6.21422 3.85236 6.21978 4.11955 6.21769 4.38663C6.21697 4.47226 6.21757 4.55937 6.20275 4.6432C6.16176 4.87389 6.00205 4.98538 5.76968 4.95437C5.6129 4.93352 5.509 4.84067 5.48151 4.68102C5.46711 4.59719 5.46825 4.51014 5.46806 4.42451C5.46711 3.77588 5.46753 3.12724 5.46753 2.4786ZM6.21983 1.64073H6.21864C6.21864 1.85093 6.21732 2.06107 6.21941 2.27121C6.22008 2.33771 6.22503 2.40493 6.23681 2.47023C6.24577 2.51976 6.28401 2.55316 6.33287 2.56655C6.59333 2.63789 6.77658 2.51516 6.78226 2.2482C6.79074 1.84716 6.7893 1.44571 6.78202 1.04461C6.77813 0.831783 6.69323 0.749926 6.49146 0.725548C6.29375 0.701589 6.22635 0.753511 6.22121 0.952955C6.2153 1.18209 6.21983 1.41147 6.21983 1.64073Z"
    fill="#F9FAFB" />
  <path
    d="M3.70683 1.35119C3.70683 1.48479 3.70516 1.61845 3.70737 1.75199C3.7091 1.85547 3.75887 1.935 3.84551 1.98883C3.91834 2.03412 3.9944 2.07428 4.06957 2.1158C4.27839 2.23124 4.48644 2.34823 4.69676 2.46085C4.90122 2.57037 5.00716 2.73953 5.00871 2.96962C5.01146 3.37054 5.01032 3.77146 5.00823 4.17238C5.00793 4.22914 4.99574 4.2862 4.98511 4.34236C4.90952 4.74071 4.67949 4.94428 4.27929 4.95862C4.08863 4.96543 3.89719 4.96603 3.70659 4.95832C3.32951 4.94308 3.10324 4.75912 3.01122 4.39441C2.98577 4.29349 2.96725 4.18725 2.9691 4.08389C2.97257 3.89526 3.08424 3.78209 3.26648 3.75778C3.46944 3.73059 3.60896 3.8091 3.67253 3.98775C3.68526 4.02366 3.69058 4.06214 3.70324 4.09805C3.76819 4.28214 3.97235 4.36017 4.14348 4.26607C4.19546 4.2375 4.23471 4.19413 4.24708 4.13545C4.25885 4.07983 4.26668 4.02235 4.26734 3.96558C4.26985 3.76513 4.26268 3.56437 4.27032 3.36421C4.27732 3.18072 4.20562 3.05632 4.04148 2.97267C3.8375 2.8687 3.64481 2.74126 3.437 2.64632C3.07904 2.48278 2.92554 2.216 2.94741 1.82518C2.96337 1.53964 2.95148 1.25254 2.95028 0.966103C2.94974 0.841167 2.96247 0.71874 2.99611 0.598046C3.08286 0.286274 3.2945 0.105831 3.60728 0.0755973C3.86242 0.0509806 4.12358 0.0537291 4.37901 0.0773898C4.68893 0.10607 4.89715 0.312564 4.97214 0.617047C5.01588 0.794742 5.04307 0.974229 4.98786 1.15419C4.96856 1.21711 4.9449 1.2823 4.90749 1.33535C4.81697 1.46382 4.66682 1.4726 4.56961 1.35214C4.45603 1.21143 4.34023 1.06971 4.28461 0.892312C4.25013 0.782553 4.17897 0.714618 4.06658 0.68773C3.88852 0.645129 3.73198 0.740609 3.71352 0.922247C3.69918 1.06385 3.71065 1.20809 3.71065 1.35119H3.70683Z"
    fill="#F9FAFB" />
  <path
    d="M0.645306 16.1747C0.645306 15.984 0.646143 15.7933 0.645127 15.6026C0.643275 15.2641 0.805494 15.0143 1.08733 14.852C1.53223 14.5958 1.98023 14.6117 2.40881 14.8991C2.64536 15.0577 2.77752 15.2886 2.78529 15.5723C2.79617 15.9725 2.79318 16.3733 2.78661 16.7737C2.78242 17.028 2.65713 17.229 2.46587 17.3884C1.97192 17.8001 1.2431 17.7178 0.859627 17.2897C0.726386 17.1409 0.64441 16.9776 0.645665 16.7755C0.646919 16.5752 0.645963 16.375 0.645963 16.1747H0.645306Z"
    fill="#F9FAFB" />
  <path
    d="M0.931383 2.4728C0.931383 1.8431 0.931144 1.2134 0.931682 0.58364C0.931742 0.49784 0.929113 0.411323 0.938972 0.326419C0.961437 0.132652 1.05955 0.0353795 1.24991 0.0121967C1.30649 0.00532556 1.36421 0.0063413 1.42139 0.00616205C1.65991 0.00562431 1.89843 0.00514631 2.13695 0.0064608C2.20357 0.0068193 2.27144 0.0062218 2.33645 0.0183509C2.49748 0.0482854 2.61261 0.188398 2.60867 0.339624C2.60502 0.480214 2.4976 0.611185 2.35067 0.644824C2.29558 0.657491 2.23721 0.657013 2.18021 0.66C2.10403 0.663884 2.02689 0.659223 1.9516 0.669082C1.7769 0.691847 1.68249 0.790433 1.65608 0.966993C1.65471 0.976433 1.65334 0.985993 1.65334 0.995493C1.65399 1.25301 1.64485 1.51107 1.65883 1.76787C1.67019 1.9755 1.76112 2.05252 1.96535 2.07367C2.05055 2.08245 2.13802 2.0809 2.22054 2.10062C2.38724 2.14041 2.48732 2.27156 2.48553 2.42924C2.48373 2.58805 2.38186 2.71389 2.21205 2.75039C2.12894 2.76826 2.04153 2.76527 1.95633 2.77453C1.76674 2.79515 1.68692 2.8718 1.65812 3.06055C1.65244 3.09814 1.65089 3.13661 1.65077 3.17473C1.65005 3.41325 1.64969 3.65177 1.65065 3.89029C1.65089 3.93779 1.65292 3.98619 1.662 4.03262C1.69391 4.19501 1.78723 4.28058 1.9522 4.30035C1.9994 4.30603 2.04738 4.30501 2.09506 4.30627C2.1523 4.30782 2.20984 4.30513 2.26672 4.31009C2.46772 4.32766 2.60514 4.45624 2.60897 4.62718C2.61279 4.79711 2.47549 4.94834 2.27909 4.95443C1.93601 4.96513 1.59215 4.96501 1.24907 4.95479C1.05339 4.94893 0.95851 4.84425 0.937956 4.64792C0.929053 4.56283 0.931682 4.47638 0.931623 4.39057C0.931204 3.75132 0.931383 3.11206 0.931383 2.4728Z"
    fill="#F9FAFB" />
</svg>
  