<svg width="16" height="17" viewBox="0 0 16 17" fill="none" xmlns="http://www.w3.org/2000/svg">
  <path
    d="M4.62663 4.04134C4.62645 4.39496 4.48581 4.73403 4.23563 4.98395C3.98546 5.23387 3.64625 5.37418 3.29263 5.374C2.93901 5.37383 2.59994 5.23318 2.35001 4.98301C2.10009 4.73283 1.95978 4.39363 1.95996 4.04C1.96014 3.68638 2.10078 3.34731 2.35096 3.09739C2.60113 2.84747 2.94034 2.70716 3.29396 2.70734C3.64758 2.70751 3.98665 2.84816 4.23657 3.09833C4.4865 3.34851 4.6268 3.68771 4.62663 4.04134ZM4.66663 6.36134H1.99996V14.708H4.66663V6.36134ZM8.87996 6.36134H6.22663V14.708H8.85329V10.328C8.85329 7.888 12.0333 7.66134 12.0333 10.328V14.708H14.6666V9.42134C14.6666 5.308 9.95996 5.46134 8.85329 7.48134L8.87996 6.36134Z"
    fill="#F3F4F6" />
</svg>
  