<svg xmlns="http://www.w3.org/2000/svg" width="32" height="20" viewBox="0 0 32 20" fill="none">
  <path d="M31.4952 5.88779C31.4007 7.71899 29.9984 9.39261 27.9811 10.038V10.037C27.8963 10.0614 27.8135 10.0843 27.7318 10.1056C27.8661 10.1394 28.0041 10.1758 28.1451 10.2154H28.1446C30.07 10.7802 31.4125 12.4164 31.4958 14.1877C31.5566 15.4718 30.9573 16.7824 30.1027 17.5641C29.8437 17.8013 29.6061 17.9526 29.3941 18.0868C28.3816 18.7265 27.4304 18.9174 26.5982 19.0567C24.5047 19.4083 22.9277 19.4827 22.9277 19.4827C22.4046 19.4988 21.859 19.5045 21.2935 19.4962C20.7142 19.4879 20.1569 19.4655 19.6225 19.4328C19.0325 18.9522 18.4424 18.4716 17.8519 17.9906C17.8519 17.9906 18.4011 18.0036 18.6754 18.0103C18.9502 18.0171 19.2245 18.0239 19.4989 18.0301C19.4989 18.0301 22.401 18.2865 25.6608 17.8444C27.2674 17.6265 28.3933 17.4705 29.2214 16.5047C29.9566 15.6471 30.3785 14.2434 29.9085 13.0462C29.4202 11.8011 28.188 11.3393 27.0851 10.9253C24.7888 10.064 22.5926 10.3241 21.1402 10.6819L20.4608 9.3224C20.613 9.35048 20.7837 9.37857 20.9712 9.40509C21.7022 9.50807 22.2616 9.51951 22.4751 9.52367H22.4904C22.7755 9.52991 23.1009 9.54187 23.4396 9.55851C23.6102 9.55487 23.7941 9.55539 24.023 9.56528C24.1834 9.57256 24.2861 9.58088 24.5226 9.5996C24.633 9.60844 24.7729 9.61988 24.9609 9.63445C25.4539 9.67293 25.857 9.70154 25.9004 9.70414C26.6038 9.74938 29.2245 9.22306 29.908 7.02937C30.2753 5.85086 29.9959 4.47525 29.2209 3.57083C28.4909 2.71894 27.5479 2.55616 25.6628 2.23163H25.6603C24.4838 2.02828 23.2567 2.00435 20.8026 1.95703C20.3009 1.94714 19.8881 1.94298 19.6154 1.9409C19.6056 5.72032 19.5965 9.49922 19.5873 13.2792C19.5898 13.4966 19.5919 13.714 19.5944 13.9313C19.5975 14.2268 19.6005 14.5227 19.6041 14.8181C18.6197 15.71 17.0376 16.94 14.8368 17.871L14.8276 17.8751C13.3666 18.4935 11.4984 19.284 9.05039 19.1113H9.04937C8.0343 19.0401 4.937 18.8222 2.6545 16.2753C-0.356468 12.9146 0.632034 8.4159 0.742889 7.95043C0.844038 7.52604 1.91479 3.31807 5.81771 1.60701V1.60805C7.71757 0.774884 9.42944 0.916866 10.1513 0.985516C13.3625 1.29028 16.1768 3.84596 16.1768 3.84596C15.7732 3.83815 15.3696 3.83035 14.9661 3.82255C14.5635 3.81475 14.1615 3.80747 13.7589 3.79967C13.3094 3.50634 10.8716 1.97835 7.85499 2.75015C4.98502 3.48502 2.99371 5.9424 2.42002 8.56984C2.36332 8.83144 1.67877 12.2218 3.82589 14.9616C4.98093 16.4355 6.40315 17.0165 6.69689 17.1314C8.09918 17.6796 9.29355 17.5745 10.3858 17.4658C12.396 17.2656 13.8289 16.5728 15.2588 15.8676C15.9822 15.5108 16.8848 15.0147 17.8825 14.3328V0.510163C19.9275 0.477398 21.6409 0.528886 22.9272 0.592856C22.9272 0.592856 24.5042 0.667227 26.5977 1.0188C27.4299 1.15818 28.3811 1.34905 29.3936 1.98875C29.6056 2.12293 29.8432 2.27427 30.1022 2.51143C31.0002 3.33264 31.5576 4.6838 31.4952 5.88779Z" fill="#F3F4F6"/>
</svg>