<svg width="328" height="291" viewBox="0 0 328 291" fill="none" xmlns="http://www.w3.org/2000/svg">
<path d="M112.942 290.795C159.852 290.795 197.88 284.723 197.88 277.233C197.88 269.743 159.852 263.672 112.942 263.672C66.0317 263.672 28.0034 269.743 28.0034 277.233C28.0034 284.723 66.0317 290.795 112.942 290.795Z" fill="#494949"/>
<path d="M231.557 64.1169H179.657V259.816H231.557V64.1169Z" fill="#111827"/>
<path d="M327.072 64.1169H231.557V259.816H327.072V64.1169Z" fill="#4B5563"/>
<path d="M321.11 234.433H238.725V253.462H321.11V234.433Z" fill="#111827"/>
<path d="M289.085 237.578H242.19V239.182H289.085V237.578Z" fill="#4B5563"/>
<path d="M289.085 240.364H242.19V241.968H289.085V240.364Z" fill="#4B5563"/>
<path d="M289.085 243.149H242.19V244.754H289.085V243.149Z" fill="#4B5563"/>
<path d="M289.085 245.927H242.19V247.532H289.085V245.927Z" fill="#4B5563"/>
<path d="M289.085 248.713H242.19V250.317H289.085V248.713Z" fill="#4B5563"/>
<path d="M297.634 239.174C297.634 239.49 297.54 239.799 297.365 240.061C297.189 240.324 296.94 240.528 296.648 240.649C296.357 240.77 296.036 240.802 295.726 240.74C295.416 240.678 295.132 240.526 294.909 240.303C294.685 240.08 294.533 239.795 294.472 239.486C294.41 239.176 294.442 238.855 294.563 238.563C294.683 238.272 294.888 238.022 295.151 237.847C295.413 237.671 295.722 237.578 296.037 237.578C296.461 237.578 296.867 237.746 297.166 238.045C297.466 238.345 297.634 238.751 297.634 239.174Z" fill="#FF850A"/>
<path d="M302.886 239.174C302.886 239.49 302.792 239.799 302.617 240.061C302.442 240.324 302.192 240.528 301.901 240.649C301.609 240.77 301.288 240.802 300.978 240.74C300.669 240.678 300.384 240.526 300.161 240.303C299.938 240.08 299.786 239.795 299.724 239.486C299.662 239.176 299.694 238.855 299.815 238.563C299.936 238.272 300.14 238.022 300.403 237.847C300.665 237.671 300.974 237.578 301.29 237.578C301.713 237.578 302.119 237.746 302.419 238.045C302.718 238.345 302.886 238.751 302.886 239.174Z" fill="#FF850A"/>
<path d="M308.138 239.174C308.138 239.49 308.045 239.799 307.869 240.061C307.694 240.324 307.445 240.528 307.153 240.649C306.861 240.77 306.54 240.802 306.231 240.74C305.921 240.678 305.636 240.526 305.413 240.303C305.19 240.08 305.038 239.795 304.976 239.486C304.915 239.176 304.946 238.855 305.067 238.563C305.188 238.272 305.393 238.022 305.655 237.847C305.918 237.671 306.226 237.578 306.542 237.578C306.965 237.578 307.371 237.746 307.671 238.045C307.97 238.345 308.138 238.751 308.138 239.174Z" fill="#FF850A"/>
<path d="M313.383 239.174C313.383 239.49 313.289 239.799 313.114 240.061C312.938 240.324 312.689 240.528 312.397 240.649C312.106 240.77 311.785 240.802 311.475 240.74C311.165 240.678 310.881 240.526 310.658 240.303C310.434 240.08 310.282 239.795 310.221 239.486C310.159 239.176 310.191 238.855 310.311 238.563C310.432 238.272 310.637 238.022 310.899 237.847C311.162 237.671 311.471 237.578 311.786 237.578C312.21 237.578 312.616 237.746 312.915 238.045C313.215 238.345 313.383 238.751 313.383 239.174Z" fill="#FF850A"/>
<path d="M318.635 239.174C318.635 239.49 318.541 239.799 318.366 240.061C318.191 240.324 317.941 240.528 317.65 240.649C317.358 240.77 317.037 240.802 316.727 240.74C316.417 240.678 316.133 240.526 315.91 240.303C315.686 240.08 315.534 239.795 315.473 239.486C315.411 239.176 315.443 238.855 315.564 238.563C315.684 238.272 315.889 238.022 316.152 237.847C316.414 237.671 316.723 237.578 317.039 237.578C317.462 237.578 317.868 237.746 318.167 238.045C318.467 238.345 318.635 238.751 318.635 239.174Z" fill="#FF850A"/>
<path d="M297.634 243.948C297.634 244.263 297.54 244.572 297.365 244.834C297.189 245.097 296.94 245.302 296.648 245.422C296.357 245.543 296.036 245.575 295.726 245.513C295.416 245.452 295.132 245.3 294.909 245.076C294.685 244.853 294.533 244.569 294.472 244.259C294.41 243.949 294.442 243.628 294.563 243.337C294.683 243.045 294.888 242.796 295.151 242.62C295.413 242.445 295.722 242.351 296.037 242.351C296.461 242.351 296.867 242.519 297.166 242.819C297.466 243.118 297.634 243.524 297.634 243.948Z" fill="#FF850A"/>
<path d="M302.886 243.948C302.886 244.263 302.792 244.572 302.617 244.834C302.442 245.097 302.192 245.302 301.901 245.422C301.609 245.543 301.288 245.575 300.978 245.513C300.669 245.452 300.384 245.3 300.161 245.076C299.938 244.853 299.786 244.569 299.724 244.259C299.662 243.949 299.694 243.628 299.815 243.337C299.936 243.045 300.14 242.796 300.403 242.62C300.665 242.445 300.974 242.351 301.29 242.351C301.713 242.351 302.119 242.519 302.419 242.819C302.718 243.118 302.886 243.524 302.886 243.948Z" fill="#FF850A"/>
<path d="M308.138 243.948C308.138 244.263 308.045 244.572 307.869 244.834C307.694 245.097 307.445 245.302 307.153 245.422C306.861 245.543 306.54 245.575 306.231 245.513C305.921 245.452 305.636 245.3 305.413 245.076C305.19 244.853 305.038 244.569 304.976 244.259C304.915 243.949 304.946 243.628 305.067 243.337C305.188 243.045 305.393 242.796 305.655 242.62C305.918 242.445 306.226 242.351 306.542 242.351C306.965 242.351 307.371 242.519 307.671 242.819C307.97 243.118 308.138 243.524 308.138 243.948Z" fill="#FF850A"/>
<path d="M313.383 243.948C313.383 244.263 313.289 244.572 313.114 244.834C312.938 245.097 312.689 245.302 312.397 245.422C312.106 245.543 311.785 245.575 311.475 245.513C311.165 245.452 310.881 245.3 310.658 245.076C310.434 244.853 310.282 244.569 310.221 244.259C310.159 243.949 310.191 243.628 310.311 243.337C310.432 243.045 310.637 242.796 310.899 242.62C311.162 242.445 311.471 242.351 311.786 242.351C312.21 242.351 312.616 242.519 312.915 242.819C313.215 243.118 313.383 243.524 313.383 243.948Z" fill="#FF850A"/>
<path d="M318.635 243.948C318.635 244.263 318.541 244.572 318.366 244.834C318.191 245.097 317.941 245.302 317.65 245.422C317.358 245.543 317.037 245.575 316.727 245.513C316.417 245.452 316.133 245.3 315.91 245.076C315.686 244.853 315.534 244.569 315.473 244.259C315.411 243.949 315.443 243.628 315.564 243.337C315.684 243.045 315.889 242.796 316.152 242.62C316.414 242.445 316.723 242.351 317.039 242.351C317.462 242.351 317.868 242.519 318.167 242.819C318.467 243.118 318.635 243.524 318.635 243.948Z" fill="#FF850A"/>
<path d="M296.046 250.325C296.927 250.325 297.642 249.611 297.642 248.729C297.642 247.847 296.927 247.133 296.046 247.133C295.164 247.133 294.449 247.847 294.449 248.729C294.449 249.611 295.164 250.325 296.046 250.325Z" fill="#FF850A"/>
<path d="M302.886 248.729C302.886 249.045 302.792 249.353 302.617 249.616C302.442 249.878 302.192 250.083 301.901 250.204C301.609 250.325 301.288 250.356 300.978 250.295C300.669 250.233 300.384 250.081 300.161 249.858C299.938 249.635 299.786 249.35 299.724 249.04C299.662 248.731 299.694 248.41 299.815 248.118C299.936 247.826 300.14 247.577 300.403 247.402C300.665 247.226 300.974 247.133 301.29 247.133C301.713 247.133 302.119 247.301 302.419 247.6C302.718 247.9 302.886 248.306 302.886 248.729Z" fill="#FF850A"/>
<path d="M306.542 250.325C307.424 250.325 308.138 249.611 308.138 248.729C308.138 247.847 307.424 247.133 306.542 247.133C305.66 247.133 304.946 247.847 304.946 248.729C304.946 249.611 305.66 250.325 306.542 250.325Z" fill="#FF850A"/>
<path d="M313.383 248.729C313.383 249.045 313.289 249.353 313.114 249.616C312.938 249.878 312.689 250.083 312.397 250.204C312.106 250.325 311.785 250.356 311.475 250.295C311.165 250.233 310.881 250.081 310.658 249.858C310.434 249.635 310.282 249.35 310.221 249.04C310.159 248.731 310.191 248.41 310.311 248.118C310.432 247.826 310.637 247.577 310.899 247.402C311.162 247.226 311.471 247.133 311.786 247.133C312.21 247.133 312.616 247.301 312.915 247.6C313.215 247.9 313.383 248.306 313.383 248.729Z" fill="#FF850A"/>
<path d="M318.635 248.729C318.635 249.045 318.541 249.353 318.366 249.616C318.191 249.878 317.941 250.083 317.65 250.204C317.358 250.325 317.037 250.356 316.727 250.295C316.417 250.233 316.133 250.081 315.91 249.858C315.686 249.635 315.534 249.35 315.473 249.04C315.411 248.731 315.443 248.41 315.564 248.118C315.684 247.826 315.889 247.577 316.152 247.402C316.414 247.226 316.723 247.133 317.039 247.133C317.462 247.133 317.868 247.301 318.167 247.6C318.467 247.9 318.635 248.306 318.635 248.729Z" fill="#FF850A"/>
<path d="M292.35 237.578H291.432V250.317H292.35V237.578Z" fill="#1F2937"/>
<path d="M321.11 211.508H238.725V230.538H321.11V211.508Z" fill="#111827"/>
<path d="M289.085 214.645H242.19V216.249H289.085V214.645Z" fill="#4B5563"/>
<path d="M289.085 217.431H242.19V219.035H289.085V217.431Z" fill="#4B5563"/>
<path d="M289.085 220.217H242.19V221.821H289.085V220.217Z" fill="#4B5563"/>
<path d="M289.085 223.002H242.19V224.607H289.085V223.002Z" fill="#4B5563"/>
<path d="M289.085 225.78H242.19V227.384H289.085V225.78Z" fill="#4B5563"/>
<path d="M297.634 216.241C297.634 216.557 297.54 216.866 297.365 217.128C297.189 217.391 296.94 217.596 296.648 217.716C296.357 217.837 296.036 217.869 295.726 217.807C295.416 217.746 295.132 217.594 294.909 217.37C294.685 217.147 294.533 216.863 294.472 216.553C294.41 216.243 294.442 215.922 294.563 215.631C294.683 215.339 294.888 215.089 295.151 214.914C295.413 214.739 295.722 214.645 296.037 214.645C296.461 214.645 296.867 214.813 297.166 215.113C297.466 215.412 297.634 215.818 297.634 216.241Z" fill="#FF850A"/>
<path d="M302.886 216.241C302.886 216.557 302.792 216.866 302.617 217.128C302.442 217.391 302.192 217.596 301.901 217.716C301.609 217.837 301.288 217.869 300.978 217.807C300.669 217.746 300.384 217.594 300.161 217.37C299.938 217.147 299.786 216.863 299.724 216.553C299.662 216.243 299.694 215.922 299.815 215.631C299.936 215.339 300.14 215.089 300.403 214.914C300.665 214.739 300.974 214.645 301.29 214.645C301.713 214.645 302.119 214.813 302.419 215.113C302.718 215.412 302.886 215.818 302.886 216.241Z" fill="#FF850A"/>
<path d="M308.138 216.241C308.138 216.557 308.045 216.866 307.869 217.128C307.694 217.391 307.445 217.596 307.153 217.716C306.861 217.837 306.54 217.869 306.231 217.807C305.921 217.746 305.636 217.594 305.413 217.37C305.19 217.147 305.038 216.863 304.976 216.553C304.915 216.243 304.946 215.922 305.067 215.631C305.188 215.339 305.393 215.089 305.655 214.914C305.918 214.739 306.226 214.645 306.542 214.645C306.965 214.645 307.371 214.813 307.671 215.113C307.97 215.412 308.138 215.818 308.138 216.241Z" fill="#FF850A"/>
<path d="M313.383 216.241C313.383 216.557 313.289 216.866 313.114 217.128C312.938 217.391 312.689 217.596 312.397 217.716C312.106 217.837 311.785 217.869 311.475 217.807C311.165 217.746 310.881 217.594 310.658 217.37C310.434 217.147 310.282 216.863 310.221 216.553C310.159 216.243 310.191 215.922 310.311 215.631C310.432 215.339 310.637 215.089 310.899 214.914C311.162 214.739 311.471 214.645 311.786 214.645C312.21 214.645 312.616 214.813 312.915 215.113C313.215 215.412 313.383 215.818 313.383 216.241Z" fill="#FF850A"/>
<path d="M318.635 216.241C318.635 216.557 318.541 216.866 318.366 217.128C318.191 217.391 317.941 217.596 317.65 217.716C317.358 217.837 317.037 217.869 316.727 217.807C316.417 217.746 316.133 217.594 315.91 217.37C315.686 217.147 315.534 216.863 315.473 216.553C315.411 216.243 315.443 215.922 315.564 215.631C315.684 215.339 315.889 215.089 316.152 214.914C316.414 214.739 316.723 214.645 317.039 214.645C317.462 214.645 317.868 214.813 318.167 215.113C318.467 215.412 318.635 215.818 318.635 216.241Z" fill="#FF850A"/>
<path d="M297.634 221.031C297.634 221.347 297.54 221.655 297.365 221.918C297.189 222.18 296.94 222.385 296.648 222.506C296.357 222.627 296.036 222.658 295.726 222.597C295.416 222.535 295.132 222.383 294.909 222.16C294.685 221.936 294.533 221.652 294.472 221.342C294.41 221.033 294.442 220.712 294.563 220.42C294.683 220.128 294.888 219.879 295.151 219.703C295.413 219.528 295.722 219.434 296.037 219.434C296.461 219.434 296.867 219.603 297.166 219.902C297.466 220.201 297.634 220.607 297.634 221.031Z" fill="#FF850A"/>
<path d="M302.886 221.031C302.886 221.347 302.792 221.655 302.617 221.918C302.442 222.18 302.192 222.385 301.901 222.506C301.609 222.627 301.288 222.658 300.978 222.597C300.669 222.535 300.384 222.383 300.161 222.16C299.938 221.936 299.786 221.652 299.724 221.342C299.662 221.033 299.694 220.712 299.815 220.42C299.936 220.128 300.14 219.879 300.403 219.703C300.665 219.528 300.974 219.434 301.29 219.434C301.713 219.434 302.119 219.603 302.419 219.902C302.718 220.201 302.886 220.607 302.886 221.031Z" fill="#FF850A"/>
<path d="M308.138 221.031C308.138 221.347 308.045 221.655 307.869 221.918C307.694 222.18 307.445 222.385 307.153 222.506C306.861 222.627 306.54 222.658 306.231 222.597C305.921 222.535 305.636 222.383 305.413 222.16C305.19 221.936 305.038 221.652 304.976 221.342C304.915 221.033 304.946 220.712 305.067 220.42C305.188 220.128 305.393 219.879 305.655 219.703C305.918 219.528 306.226 219.434 306.542 219.434C306.965 219.434 307.371 219.603 307.671 219.902C307.97 220.201 308.138 220.607 308.138 221.031Z" fill="#FF850A"/>
<path d="M313.383 221.031C313.383 221.347 313.289 221.655 313.114 221.918C312.938 222.18 312.689 222.385 312.397 222.506C312.106 222.627 311.785 222.658 311.475 222.597C311.165 222.535 310.881 222.383 310.658 222.16C310.434 221.936 310.282 221.652 310.221 221.342C310.159 221.033 310.191 220.712 310.311 220.42C310.432 220.128 310.637 219.879 310.899 219.703C311.162 219.528 311.471 219.434 311.786 219.434C312.21 219.434 312.616 219.603 312.915 219.902C313.215 220.201 313.383 220.607 313.383 221.031Z" fill="#FF850A"/>
<path d="M318.635 221.031C318.635 221.347 318.541 221.655 318.366 221.918C318.191 222.18 317.941 222.385 317.65 222.506C317.358 222.627 317.037 222.658 316.727 222.597C316.417 222.535 316.133 222.383 315.91 222.16C315.686 221.936 315.534 221.652 315.473 221.342C315.411 221.033 315.443 220.712 315.564 220.42C315.684 220.128 315.889 219.879 316.152 219.703C316.414 219.528 316.723 219.434 317.039 219.434C317.462 219.434 317.868 219.603 318.167 219.902C318.467 220.201 318.635 220.607 318.635 221.031Z" fill="#FF850A"/>
<path d="M297.634 225.82C297.634 226.136 297.54 226.444 297.365 226.707C297.189 226.97 296.94 227.174 296.648 227.295C296.357 227.416 296.036 227.447 295.726 227.386C295.416 227.324 295.132 227.172 294.909 226.949C294.685 226.726 294.533 226.441 294.472 226.132C294.41 225.822 294.442 225.501 294.563 225.209C294.683 224.917 294.888 224.668 295.151 224.493C295.413 224.317 295.722 224.224 296.037 224.224C296.461 224.224 296.867 224.392 297.166 224.691C297.466 224.991 297.634 225.397 297.634 225.82Z" fill="#FF850A"/>
<path d="M302.886 225.82C302.886 226.136 302.792 226.444 302.617 226.707C302.442 226.97 302.192 227.174 301.901 227.295C301.609 227.416 301.288 227.447 300.978 227.386C300.669 227.324 300.384 227.172 300.161 226.949C299.938 226.726 299.786 226.441 299.724 226.132C299.662 225.822 299.694 225.501 299.815 225.209C299.936 224.917 300.14 224.668 300.403 224.493C300.665 224.317 300.974 224.224 301.29 224.224C301.713 224.224 302.119 224.392 302.419 224.691C302.718 224.991 302.886 225.397 302.886 225.82Z" fill="#FF850A"/>
<path d="M308.138 225.82C308.138 226.136 308.045 226.444 307.869 226.707C307.694 226.97 307.445 227.174 307.153 227.295C306.861 227.416 306.54 227.447 306.231 227.386C305.921 227.324 305.636 227.172 305.413 226.949C305.19 226.726 305.038 226.441 304.976 226.132C304.915 225.822 304.946 225.501 305.067 225.209C305.188 224.917 305.393 224.668 305.655 224.493C305.918 224.317 306.226 224.224 306.542 224.224C306.965 224.224 307.371 224.392 307.671 224.691C307.97 224.991 308.138 225.397 308.138 225.82Z" fill="#FF850A"/>
<path d="M313.383 225.82C313.383 226.136 313.289 226.444 313.114 226.707C312.938 226.97 312.689 227.174 312.397 227.295C312.106 227.416 311.785 227.447 311.475 227.386C311.165 227.324 310.881 227.172 310.658 226.949C310.434 226.726 310.282 226.441 310.221 226.132C310.159 225.822 310.191 225.501 310.311 225.209C310.432 224.917 310.637 224.668 310.899 224.493C311.162 224.317 311.471 224.224 311.786 224.224C312.21 224.224 312.616 224.392 312.915 224.691C313.215 224.991 313.383 225.397 313.383 225.82Z" fill="#FF850A"/>
<path d="M318.635 225.82C318.635 226.136 318.541 226.444 318.366 226.707C318.191 226.97 317.941 227.174 317.65 227.295C317.358 227.416 317.037 227.447 316.727 227.386C316.417 227.324 316.133 227.172 315.91 226.949C315.686 226.726 315.534 226.441 315.473 226.132C315.411 225.822 315.443 225.501 315.564 225.209C315.684 224.917 315.889 224.668 316.152 224.493C316.414 224.317 316.723 224.224 317.039 224.224C317.462 224.224 317.868 224.392 318.167 224.691C318.467 224.991 318.635 225.397 318.635 225.82Z" fill="#FF850A"/>
<path d="M292.35 214.645H291.432V227.385H292.35V214.645Z" fill="#1F2937"/>
<path d="M321.11 188.575H238.725V207.605H321.11V188.575Z" fill="#111827"/>
<path d="M289.085 191.72H242.19V193.325H289.085V191.72Z" fill="#4B5563"/>
<path d="M289.085 194.498H242.19V196.102H289.085V194.498Z" fill="#4B5563"/>
<path d="M289.085 197.284H242.19V198.888H289.085V197.284Z" fill="#4B5563"/>
<path d="M289.085 200.069H242.19V201.674H289.085V200.069Z" fill="#4B5563"/>
<path d="M289.085 202.855H242.19V204.46H289.085V202.855Z" fill="#4B5563"/>
<path d="M296.046 194.905C296.927 194.905 297.642 194.19 297.642 193.309C297.642 192.427 296.927 191.712 296.046 191.712C295.164 191.712 294.449 192.427 294.449 193.309C294.449 194.19 295.164 194.905 296.046 194.905Z" fill="#FF850A"/>
<path d="M302.886 193.309C302.886 193.624 302.792 193.933 302.617 194.196C302.442 194.458 302.192 194.663 301.901 194.784C301.609 194.904 301.288 194.936 300.978 194.874C300.669 194.813 300.384 194.661 300.161 194.437C299.938 194.214 299.786 193.93 299.724 193.62C299.662 193.31 299.694 192.989 299.815 192.698C299.936 192.406 300.14 192.157 300.403 191.981C300.665 191.806 300.974 191.712 301.29 191.712C301.713 191.712 302.119 191.88 302.419 192.18C302.718 192.479 302.886 192.885 302.886 193.309Z" fill="#FF850A"/>
<path d="M306.542 194.905C307.424 194.905 308.138 194.19 308.138 193.309C308.138 192.427 307.424 191.712 306.542 191.712C305.66 191.712 304.946 192.427 304.946 193.309C304.946 194.19 305.66 194.905 306.542 194.905Z" fill="#FF850A"/>
<path d="M313.383 193.309C313.383 193.624 313.289 193.933 313.114 194.196C312.938 194.458 312.689 194.663 312.397 194.784C312.106 194.904 311.785 194.936 311.475 194.874C311.165 194.813 310.881 194.661 310.658 194.437C310.434 194.214 310.282 193.93 310.221 193.62C310.159 193.31 310.191 192.989 310.311 192.698C310.432 192.406 310.637 192.157 310.899 191.981C311.162 191.806 311.471 191.712 311.786 191.712C312.21 191.712 312.616 191.88 312.915 192.18C313.215 192.479 313.383 192.885 313.383 193.309Z" fill="#FF850A"/>
<path d="M318.635 193.309C318.635 193.624 318.541 193.933 318.366 194.196C318.191 194.458 317.941 194.663 317.65 194.784C317.358 194.904 317.037 194.936 316.727 194.874C316.417 194.813 316.133 194.661 315.91 194.437C315.686 194.214 315.534 193.93 315.473 193.62C315.411 193.31 315.443 192.989 315.564 192.698C315.684 192.406 315.889 192.157 316.152 191.981C316.414 191.806 316.723 191.712 317.039 191.712C317.462 191.712 317.868 191.88 318.167 192.18C318.467 192.479 318.635 192.885 318.635 193.309Z" fill="#FF850A"/>
<path d="M297.634 198.09C297.634 198.406 297.54 198.714 297.365 198.977C297.189 199.239 296.94 199.444 296.648 199.565C296.357 199.686 296.036 199.717 295.726 199.656C295.416 199.594 295.132 199.442 294.909 199.219C294.685 198.995 294.533 198.711 294.472 198.401C294.41 198.092 294.442 197.771 294.563 197.479C294.683 197.187 294.888 196.938 295.151 196.762C295.413 196.587 295.722 196.493 296.037 196.493C296.461 196.493 296.867 196.662 297.166 196.961C297.466 197.26 297.634 197.666 297.634 198.09Z" fill="#FF850A"/>
<path d="M302.886 198.09C302.886 198.406 302.792 198.714 302.617 198.977C302.442 199.239 302.192 199.444 301.901 199.565C301.609 199.686 301.288 199.717 300.978 199.656C300.669 199.594 300.384 199.442 300.161 199.219C299.938 198.995 299.786 198.711 299.724 198.401C299.662 198.092 299.694 197.771 299.815 197.479C299.936 197.187 300.14 196.938 300.403 196.762C300.665 196.587 300.974 196.493 301.29 196.493C301.713 196.493 302.119 196.662 302.419 196.961C302.718 197.26 302.886 197.666 302.886 198.09Z" fill="#FF850A"/>
<path d="M308.138 198.09C308.138 198.406 308.045 198.714 307.869 198.977C307.694 199.239 307.445 199.444 307.153 199.565C306.861 199.686 306.54 199.717 306.231 199.656C305.921 199.594 305.636 199.442 305.413 199.219C305.19 198.995 305.038 198.711 304.976 198.401C304.915 198.092 304.946 197.771 305.067 197.479C305.188 197.187 305.393 196.938 305.655 196.762C305.918 196.587 306.226 196.493 306.542 196.493C306.965 196.493 307.371 196.662 307.671 196.961C307.97 197.26 308.138 197.666 308.138 198.09Z" fill="#FF850A"/>
<path d="M313.383 198.09C313.383 198.406 313.289 198.714 313.114 198.977C312.938 199.239 312.689 199.444 312.397 199.565C312.106 199.686 311.785 199.717 311.475 199.656C311.165 199.594 310.881 199.442 310.658 199.219C310.434 198.995 310.282 198.711 310.221 198.401C310.159 198.092 310.191 197.771 310.311 197.479C310.432 197.187 310.637 196.938 310.899 196.762C311.162 196.587 311.471 196.493 311.786 196.493C312.21 196.493 312.616 196.662 312.915 196.961C313.215 197.26 313.383 197.666 313.383 198.09Z" fill="#FF850A"/>
<path d="M318.635 198.09C318.635 198.406 318.541 198.714 318.366 198.977C318.191 199.239 317.941 199.444 317.65 199.565C317.358 199.686 317.037 199.717 316.727 199.656C316.417 199.594 316.133 199.442 315.91 199.219C315.686 198.995 315.534 198.711 315.473 198.401C315.411 198.092 315.443 197.771 315.564 197.479C315.684 197.187 315.889 196.938 316.152 196.762C316.414 196.587 316.723 196.493 317.039 196.493C317.462 196.493 317.868 196.662 318.167 196.961C318.467 197.26 318.635 197.666 318.635 198.09Z" fill="#FF850A"/>
<path d="M297.634 202.863C297.634 203.179 297.54 203.488 297.365 203.75C297.189 204.013 296.94 204.217 296.648 204.338C296.357 204.459 296.036 204.491 295.726 204.429C295.416 204.367 295.132 204.215 294.909 203.992C294.685 203.769 294.533 203.484 294.472 203.175C294.41 202.865 294.442 202.544 294.563 202.252C294.683 201.961 294.888 201.711 295.151 201.536C295.413 201.36 295.722 201.267 296.037 201.267C296.461 201.267 296.867 201.435 297.166 201.734C297.466 202.034 297.634 202.44 297.634 202.863Z" fill="#FF850A"/>
<path d="M302.886 202.863C302.886 203.179 302.792 203.488 302.617 203.75C302.442 204.013 302.192 204.217 301.901 204.338C301.609 204.459 301.288 204.491 300.978 204.429C300.669 204.367 300.384 204.215 300.161 203.992C299.938 203.769 299.786 203.484 299.724 203.175C299.662 202.865 299.694 202.544 299.815 202.252C299.936 201.961 300.14 201.711 300.403 201.536C300.665 201.36 300.974 201.267 301.29 201.267C301.713 201.267 302.119 201.435 302.419 201.734C302.718 202.034 302.886 202.44 302.886 202.863Z" fill="#FF850A"/>
<path d="M308.138 202.863C308.138 203.179 308.045 203.488 307.869 203.75C307.694 204.013 307.445 204.217 307.153 204.338C306.861 204.459 306.54 204.491 306.231 204.429C305.921 204.367 305.636 204.215 305.413 203.992C305.19 203.769 305.038 203.484 304.976 203.175C304.915 202.865 304.946 202.544 305.067 202.252C305.188 201.961 305.393 201.711 305.655 201.536C305.918 201.36 306.226 201.267 306.542 201.267C306.965 201.267 307.371 201.435 307.671 201.734C307.97 202.034 308.138 202.44 308.138 202.863Z" fill="#FF850A"/>
<path d="M313.383 202.863C313.383 203.179 313.289 203.488 313.114 203.75C312.938 204.013 312.689 204.217 312.397 204.338C312.106 204.459 311.785 204.491 311.475 204.429C311.165 204.367 310.881 204.215 310.658 203.992C310.434 203.769 310.282 203.484 310.221 203.175C310.159 202.865 310.191 202.544 310.311 202.252C310.432 201.961 310.637 201.711 310.899 201.536C311.162 201.36 311.471 201.267 311.786 201.267C312.21 201.267 312.616 201.435 312.915 201.734C313.215 202.034 313.383 202.44 313.383 202.863Z" fill="#FF850A"/>
<path d="M318.635 202.863C318.635 203.179 318.541 203.488 318.366 203.75C318.191 204.013 317.941 204.217 317.65 204.338C317.358 204.459 317.037 204.491 316.727 204.429C316.417 204.367 316.133 204.215 315.91 203.992C315.686 203.769 315.534 203.484 315.473 203.175C315.411 202.865 315.443 202.544 315.564 202.252C315.684 201.961 315.889 201.711 316.152 201.536C316.414 201.36 316.723 201.267 317.039 201.267C317.462 201.267 317.868 201.435 318.167 201.734C318.467 202.034 318.635 202.44 318.635 202.863Z" fill="#FF850A"/>
<path d="M292.35 191.72H291.432V204.46H292.35V191.72Z" fill="#1F2937"/>
<path d="M321.11 165.642H238.725V184.672H321.11V165.642Z" fill="#111827"/>
<path d="M289.085 168.787H242.19V170.392H289.085V168.787Z" fill="#4B5563"/>
<path d="M289.085 171.565H242.19V173.17H289.085V171.565Z" fill="#4B5563"/>
<path d="M289.085 174.351H242.19V175.955H289.085V174.351Z" fill="#4B5563"/>
<path d="M289.085 177.137H242.19V178.741H289.085V177.137Z" fill="#4B5563"/>
<path d="M289.085 179.922H242.19V181.527H289.085V179.922Z" fill="#4B5563"/>
<path d="M297.634 170.376C297.634 170.691 297.54 171 297.365 171.263C297.189 171.525 296.94 171.73 296.648 171.851C296.357 171.971 296.036 172.003 295.726 171.941C295.416 171.88 295.132 171.728 294.909 171.505C294.685 171.281 294.533 170.997 294.472 170.687C294.41 170.377 294.442 170.057 294.563 169.765C294.683 169.473 294.888 169.224 295.151 169.048C295.413 168.873 295.722 168.779 296.037 168.779C296.461 168.779 296.867 168.947 297.166 169.247C297.466 169.546 297.634 169.952 297.634 170.376Z" fill="#FF850A"/>
<path d="M302.886 170.376C302.886 170.691 302.792 171 302.617 171.263C302.442 171.525 302.192 171.73 301.901 171.851C301.609 171.971 301.288 172.003 300.978 171.941C300.669 171.88 300.384 171.728 300.161 171.505C299.938 171.281 299.786 170.997 299.724 170.687C299.662 170.377 299.694 170.057 299.815 169.765C299.936 169.473 300.14 169.224 300.403 169.048C300.665 168.873 300.974 168.779 301.29 168.779C301.713 168.779 302.119 168.947 302.419 169.247C302.718 169.546 302.886 169.952 302.886 170.376Z" fill="#FF850A"/>
<path d="M308.138 170.376C308.138 170.691 308.045 171 307.869 171.263C307.694 171.525 307.445 171.73 307.153 171.851C306.861 171.971 306.54 172.003 306.231 171.941C305.921 171.88 305.636 171.728 305.413 171.505C305.19 171.281 305.038 170.997 304.976 170.687C304.915 170.377 304.946 170.057 305.067 169.765C305.188 169.473 305.393 169.224 305.655 169.048C305.918 168.873 306.226 168.779 306.542 168.779C306.965 168.779 307.371 168.947 307.671 169.247C307.97 169.546 308.138 169.952 308.138 170.376Z" fill="#FF850A"/>
<path d="M313.383 170.376C313.383 170.691 313.289 171 313.114 171.263C312.938 171.525 312.689 171.73 312.397 171.851C312.106 171.971 311.785 172.003 311.475 171.941C311.165 171.88 310.881 171.728 310.658 171.505C310.434 171.281 310.282 170.997 310.221 170.687C310.159 170.377 310.191 170.057 310.311 169.765C310.432 169.473 310.637 169.224 310.899 169.048C311.162 168.873 311.471 168.779 311.786 168.779C312.21 168.779 312.616 168.947 312.915 169.247C313.215 169.546 313.383 169.952 313.383 170.376Z" fill="#FF850A"/>
<path d="M318.635 170.376C318.635 170.691 318.541 171 318.366 171.263C318.191 171.525 317.941 171.73 317.65 171.851C317.358 171.971 317.037 172.003 316.727 171.941C316.417 171.88 316.133 171.728 315.91 171.505C315.686 171.281 315.534 170.997 315.473 170.687C315.411 170.377 315.443 170.057 315.564 169.765C315.684 169.473 315.889 169.224 316.152 169.048C316.414 168.873 316.723 168.779 317.039 168.779C317.462 168.779 317.868 168.947 318.167 169.247C318.467 169.546 318.635 169.952 318.635 170.376Z" fill="#FF850A"/>
<path d="M296.046 176.753C296.927 176.753 297.642 176.039 297.642 175.157C297.642 174.275 296.927 173.561 296.046 173.561C295.164 173.561 294.449 174.275 294.449 175.157C294.449 176.039 295.164 176.753 296.046 176.753Z" fill="#FF850A"/>
<path d="M302.886 175.157C302.886 175.473 302.792 175.781 302.617 176.044C302.442 176.306 302.192 176.511 301.901 176.632C301.609 176.753 301.288 176.784 300.978 176.723C300.669 176.661 300.384 176.509 300.161 176.286C299.938 176.063 299.786 175.778 299.724 175.468C299.662 175.159 299.694 174.838 299.815 174.546C299.936 174.254 300.14 174.005 300.403 173.83C300.665 173.654 300.974 173.561 301.29 173.561C301.713 173.561 302.119 173.729 302.419 174.028C302.718 174.328 302.886 174.734 302.886 175.157Z" fill="#FF850A"/>
<path d="M306.542 176.753C307.424 176.753 308.138 176.039 308.138 175.157C308.138 174.275 307.424 173.561 306.542 173.561C305.66 173.561 304.946 174.275 304.946 175.157C304.946 176.039 305.66 176.753 306.542 176.753Z" fill="#FF850A"/>
<path d="M313.383 175.157C313.383 175.473 313.289 175.781 313.114 176.044C312.938 176.306 312.689 176.511 312.397 176.632C312.106 176.753 311.785 176.784 311.475 176.723C311.165 176.661 310.881 176.509 310.658 176.286C310.434 176.063 310.282 175.778 310.221 175.468C310.159 175.159 310.191 174.838 310.311 174.546C310.432 174.254 310.637 174.005 310.899 173.83C311.162 173.654 311.471 173.561 311.786 173.561C312.21 173.561 312.616 173.729 312.915 174.028C313.215 174.328 313.383 174.734 313.383 175.157Z" fill="#FF850A"/>
<path d="M318.635 175.157C318.635 175.473 318.541 175.781 318.366 176.044C318.191 176.306 317.941 176.511 317.65 176.632C317.358 176.753 317.037 176.784 316.727 176.723C316.417 176.661 316.133 176.509 315.91 176.286C315.686 176.063 315.534 175.778 315.473 175.468C315.411 175.159 315.443 174.838 315.564 174.546C315.684 174.254 315.889 174.005 316.152 173.83C316.414 173.654 316.723 173.561 317.039 173.561C317.462 173.561 317.868 173.729 318.167 174.028C318.467 174.328 318.635 174.734 318.635 175.157Z" fill="#FF850A"/>
<path d="M296.046 181.527C296.927 181.527 297.642 180.812 297.642 179.93C297.642 179.049 296.927 178.334 296.046 178.334C295.164 178.334 294.449 179.049 294.449 179.93C294.449 180.812 295.164 181.527 296.046 181.527Z" fill="#FF850A"/>
<path d="M302.886 179.93C302.886 180.246 302.792 180.555 302.617 180.817C302.442 181.08 302.192 181.284 301.901 181.405C301.609 181.526 301.288 181.558 300.978 181.496C300.669 181.435 300.384 181.283 300.161 181.059C299.938 180.836 299.786 180.552 299.724 180.242C299.662 179.932 299.694 179.611 299.815 179.319C299.936 179.028 300.14 178.778 300.403 178.603C300.665 178.428 300.974 178.334 301.29 178.334C301.713 178.334 302.119 178.502 302.419 178.802C302.718 179.101 302.886 179.507 302.886 179.93Z" fill="#FF850A"/>
<path d="M306.542 181.527C307.424 181.527 308.138 180.812 308.138 179.93C308.138 179.049 307.424 178.334 306.542 178.334C305.66 178.334 304.946 179.049 304.946 179.93C304.946 180.812 305.66 181.527 306.542 181.527Z" fill="#FF850A"/>
<path d="M313.383 179.93C313.383 180.246 313.289 180.555 313.114 180.817C312.938 181.08 312.689 181.284 312.397 181.405C312.106 181.526 311.785 181.558 311.475 181.496C311.165 181.435 310.881 181.283 310.658 181.059C310.434 180.836 310.282 180.552 310.221 180.242C310.159 179.932 310.191 179.611 310.311 179.319C310.432 179.028 310.637 178.778 310.899 178.603C311.162 178.428 311.471 178.334 311.786 178.334C312.21 178.334 312.616 178.502 312.915 178.802C313.215 179.101 313.383 179.507 313.383 179.93Z" fill="#FF850A"/>
<path d="M318.635 179.93C318.635 180.246 318.541 180.555 318.366 180.817C318.191 181.08 317.941 181.284 317.65 181.405C317.358 181.526 317.037 181.558 316.727 181.496C316.417 181.435 316.133 181.283 315.91 181.059C315.686 180.836 315.534 180.552 315.473 180.242C315.411 179.932 315.443 179.611 315.564 179.319C315.684 179.028 315.889 178.778 316.152 178.603C316.414 178.428 316.723 178.334 317.039 178.334C317.462 178.334 317.868 178.502 318.167 178.802C318.467 179.101 318.635 179.507 318.635 179.93Z" fill="#FF850A"/>
<path d="M292.35 168.787H291.432V181.527H292.35V168.787Z" fill="#1F2937"/>
<path d="M321.11 142.709H238.725V161.739H321.11V142.709Z" fill="#111827"/>
<path d="M289.085 145.854H242.19V147.459H289.085V145.854Z" fill="#4B5563"/>
<path d="M289.085 148.64H242.19V150.245H289.085V148.64Z" fill="#4B5563"/>
<path d="M289.085 151.418H242.19V153.022H289.085V151.418Z" fill="#4B5563"/>
<path d="M289.085 154.204H242.19V155.808H289.085V154.204Z" fill="#4B5563"/>
<path d="M289.085 156.99H242.19V158.594H289.085V156.99Z" fill="#4B5563"/>
<path d="M296.046 149.047C296.927 149.047 297.642 148.333 297.642 147.451C297.642 146.569 296.927 145.854 296.046 145.854C295.164 145.854 294.449 146.569 294.449 147.451C294.449 148.333 295.164 149.047 296.046 149.047Z" fill="#FF850A"/>
<path d="M302.886 147.451C302.886 147.767 302.792 148.075 302.617 148.338C302.442 148.6 302.192 148.805 301.901 148.926C301.609 149.047 301.288 149.078 300.978 149.017C300.669 148.955 300.384 148.803 300.161 148.58C299.938 148.357 299.786 148.072 299.724 147.762C299.662 147.453 299.694 147.132 299.815 146.84C299.936 146.548 300.14 146.299 300.403 146.124C300.665 145.948 300.974 145.854 301.29 145.854C301.713 145.854 302.119 146.023 302.419 146.322C302.718 146.621 302.886 147.028 302.886 147.451Z" fill="#FF850A"/>
<path d="M306.542 149.047C307.424 149.047 308.138 148.333 308.138 147.451C308.138 146.569 307.424 145.854 306.542 145.854C305.66 145.854 304.946 146.569 304.946 147.451C304.946 148.333 305.66 149.047 306.542 149.047Z" fill="#FF850A"/>
<path d="M313.383 147.451C313.383 147.767 313.289 148.075 313.114 148.338C312.938 148.6 312.689 148.805 312.397 148.926C312.106 149.047 311.785 149.078 311.475 149.017C311.165 148.955 310.881 148.803 310.658 148.58C310.434 148.357 310.282 148.072 310.221 147.762C310.159 147.453 310.191 147.132 310.311 146.84C310.432 146.548 310.637 146.299 310.899 146.124C311.162 145.948 311.471 145.854 311.786 145.854C312.21 145.854 312.616 146.023 312.915 146.322C313.215 146.621 313.383 147.028 313.383 147.451Z" fill="#FF850A"/>
<path d="M318.635 147.451C318.635 147.767 318.541 148.075 318.366 148.338C318.191 148.6 317.941 148.805 317.65 148.926C317.358 149.047 317.037 149.078 316.727 149.017C316.417 148.955 316.133 148.803 315.91 148.58C315.686 148.357 315.534 148.072 315.473 147.762C315.411 147.453 315.443 147.132 315.564 146.84C315.684 146.548 315.889 146.299 316.152 146.124C316.414 145.948 316.723 145.854 317.039 145.854C317.462 145.854 317.868 146.023 318.167 146.322C318.467 146.621 318.635 147.028 318.635 147.451Z" fill="#FF850A"/>
<path d="M296.046 153.821C296.927 153.821 297.642 153.106 297.642 152.224C297.642 151.343 296.927 150.628 296.046 150.628C295.164 150.628 294.449 151.343 294.449 152.224C294.449 153.106 295.164 153.821 296.046 153.821Z" fill="#FF850A"/>
<path d="M302.886 152.224C302.886 152.54 302.792 152.849 302.617 153.111C302.442 153.374 302.192 153.578 301.901 153.699C301.609 153.82 301.288 153.852 300.978 153.79C300.669 153.729 300.384 153.576 300.161 153.353C299.938 153.13 299.786 152.846 299.724 152.536C299.662 152.226 299.694 151.905 299.815 151.613C299.936 151.322 300.14 151.072 300.403 150.897C300.665 150.722 300.974 150.628 301.29 150.628C301.713 150.628 302.119 150.796 302.419 151.096C302.718 151.395 302.886 151.801 302.886 152.224Z" fill="#FF850A"/>
<path d="M306.542 153.821C307.424 153.821 308.138 153.106 308.138 152.224C308.138 151.343 307.424 150.628 306.542 150.628C305.66 150.628 304.946 151.343 304.946 152.224C304.946 153.106 305.66 153.821 306.542 153.821Z" fill="#FF850A"/>
<path d="M313.383 152.224C313.383 152.54 313.289 152.849 313.114 153.111C312.938 153.374 312.689 153.578 312.397 153.699C312.106 153.82 311.785 153.852 311.475 153.79C311.165 153.729 310.881 153.576 310.658 153.353C310.434 153.13 310.282 152.846 310.221 152.536C310.159 152.226 310.191 151.905 310.311 151.613C310.432 151.322 310.637 151.072 310.899 150.897C311.162 150.722 311.471 150.628 311.786 150.628C312.21 150.628 312.616 150.796 312.915 151.096C313.215 151.395 313.383 151.801 313.383 152.224Z" fill="#FF850A"/>
<path d="M318.635 152.224C318.635 152.54 318.541 152.849 318.366 153.111C318.191 153.374 317.941 153.578 317.65 153.699C317.358 153.82 317.037 153.852 316.727 153.79C316.417 153.729 316.133 153.576 315.91 153.353C315.686 153.13 315.534 152.846 315.473 152.536C315.411 152.226 315.443 151.905 315.564 151.613C315.684 151.322 315.889 151.072 316.152 150.897C316.414 150.722 316.723 150.628 317.039 150.628C317.462 150.628 317.868 150.796 318.167 151.096C318.467 151.395 318.635 151.801 318.635 152.224Z" fill="#FF850A"/>
<path d="M297.634 157.006C297.634 157.321 297.54 157.63 297.365 157.893C297.189 158.155 296.94 158.36 296.648 158.481C296.357 158.601 296.036 158.633 295.726 158.571C295.416 158.51 295.132 158.358 294.909 158.134C294.685 157.911 294.533 157.627 294.472 157.317C294.41 157.007 294.442 156.686 294.563 156.395C294.683 156.103 294.888 155.854 295.151 155.678C295.413 155.503 295.722 155.409 296.037 155.409C296.461 155.409 296.867 155.577 297.166 155.877C297.466 156.176 297.634 156.582 297.634 157.006Z" fill="#FF850A"/>
<path d="M302.886 157.006C302.886 157.321 302.792 157.63 302.617 157.893C302.442 158.155 302.192 158.36 301.901 158.481C301.609 158.601 301.288 158.633 300.978 158.571C300.669 158.51 300.384 158.358 300.161 158.134C299.938 157.911 299.786 157.627 299.724 157.317C299.662 157.007 299.694 156.686 299.815 156.395C299.936 156.103 300.14 155.854 300.403 155.678C300.665 155.503 300.974 155.409 301.29 155.409C301.713 155.409 302.119 155.577 302.419 155.877C302.718 156.176 302.886 156.582 302.886 157.006Z" fill="#FF850A"/>
<path d="M308.138 157.006C308.138 157.321 308.045 157.63 307.869 157.893C307.694 158.155 307.445 158.36 307.153 158.481C306.861 158.601 306.54 158.633 306.231 158.571C305.921 158.51 305.636 158.358 305.413 158.134C305.19 157.911 305.038 157.627 304.976 157.317C304.915 157.007 304.946 156.686 305.067 156.395C305.188 156.103 305.393 155.854 305.655 155.678C305.918 155.503 306.226 155.409 306.542 155.409C306.965 155.409 307.371 155.577 307.671 155.877C307.97 156.176 308.138 156.582 308.138 157.006Z" fill="#FF850A"/>
<path d="M313.383 157.006C313.383 157.321 313.289 157.63 313.114 157.893C312.938 158.155 312.689 158.36 312.397 158.481C312.106 158.601 311.785 158.633 311.475 158.571C311.165 158.51 310.881 158.358 310.658 158.134C310.434 157.911 310.282 157.627 310.221 157.317C310.159 157.007 310.191 156.686 310.311 156.395C310.432 156.103 310.637 155.854 310.899 155.678C311.162 155.503 311.471 155.409 311.786 155.409C312.21 155.409 312.616 155.577 312.915 155.877C313.215 156.176 313.383 156.582 313.383 157.006Z" fill="#FF850A"/>
<path d="M318.635 157.006C318.635 157.321 318.541 157.63 318.366 157.893C318.191 158.155 317.941 158.36 317.65 158.481C317.358 158.601 317.037 158.633 316.727 158.571C316.417 158.51 316.133 158.358 315.91 158.134C315.686 157.911 315.534 157.627 315.473 157.317C315.411 157.007 315.443 156.686 315.564 156.395C315.684 156.103 315.889 155.854 316.152 155.678C316.414 155.503 316.723 155.409 317.039 155.409C317.462 155.409 317.868 155.577 318.167 155.877C318.467 156.176 318.635 156.582 318.635 157.006Z" fill="#FF850A"/>
<path d="M292.35 145.854H291.432V158.594H292.35V145.854Z" fill="#1F2937"/>
<path d="M321.11 119.777H238.725V138.806H321.11V119.777Z" fill="#111827"/>
<path d="M289.085 122.922H242.19V124.526H289.085V122.922Z" fill="#4B5563"/>
<path d="M289.085 125.708H242.19V127.312H289.085V125.708Z" fill="#4B5563"/>
<path d="M289.085 128.493H242.19V130.098H289.085V128.493Z" fill="#4B5563"/>
<path d="M289.085 131.271H242.19V132.875H289.085V131.271Z" fill="#4B5563"/>
<path d="M289.085 134.057H242.19V135.661H289.085V134.057Z" fill="#4B5563"/>
<path d="M297.634 124.518C297.634 124.834 297.54 125.142 297.365 125.405C297.189 125.668 296.94 125.872 296.648 125.993C296.357 126.114 296.036 126.145 295.726 126.084C295.416 126.022 295.132 125.87 294.909 125.647C294.685 125.424 294.533 125.139 294.472 124.83C294.41 124.52 294.442 124.199 294.563 123.907C294.683 123.615 294.888 123.366 295.151 123.191C295.413 123.015 295.722 122.922 296.037 122.922C296.461 122.922 296.867 123.09 297.166 123.389C297.466 123.689 297.634 124.095 297.634 124.518Z" fill="#FF850A"/>
<path d="M302.886 124.518C302.886 124.834 302.792 125.142 302.617 125.405C302.442 125.668 302.192 125.872 301.901 125.993C301.609 126.114 301.288 126.145 300.978 126.084C300.669 126.022 300.384 125.87 300.161 125.647C299.938 125.424 299.786 125.139 299.724 124.83C299.662 124.52 299.694 124.199 299.815 123.907C299.936 123.615 300.14 123.366 300.403 123.191C300.665 123.015 300.974 122.922 301.29 122.922C301.713 122.922 302.119 123.09 302.419 123.389C302.718 123.689 302.886 124.095 302.886 124.518Z" fill="#FF850A"/>
<path d="M308.138 124.518C308.138 124.834 308.045 125.142 307.869 125.405C307.694 125.668 307.445 125.872 307.153 125.993C306.861 126.114 306.54 126.145 306.231 126.084C305.921 126.022 305.636 125.87 305.413 125.647C305.19 125.424 305.038 125.139 304.976 124.83C304.915 124.52 304.946 124.199 305.067 123.907C305.188 123.615 305.393 123.366 305.655 123.191C305.918 123.015 306.226 122.922 306.542 122.922C306.965 122.922 307.371 123.09 307.671 123.389C307.97 123.689 308.138 124.095 308.138 124.518Z" fill="#FF850A"/>
<path d="M313.383 124.518C313.383 124.834 313.289 125.142 313.114 125.405C312.938 125.668 312.689 125.872 312.397 125.993C312.106 126.114 311.785 126.145 311.475 126.084C311.165 126.022 310.881 125.87 310.658 125.647C310.434 125.424 310.282 125.139 310.221 124.83C310.159 124.52 310.191 124.199 310.311 123.907C310.432 123.615 310.637 123.366 310.899 123.191C311.162 123.015 311.471 122.922 311.786 122.922C312.21 122.922 312.616 123.09 312.915 123.389C313.215 123.689 313.383 124.095 313.383 124.518Z" fill="#FF850A"/>
<path d="M318.635 124.518C318.635 124.834 318.541 125.142 318.366 125.405C318.191 125.668 317.941 125.872 317.65 125.993C317.358 126.114 317.037 126.145 316.727 126.084C316.417 126.022 316.133 125.87 315.91 125.647C315.686 125.424 315.534 125.139 315.473 124.83C315.411 124.52 315.443 124.199 315.564 123.907C315.684 123.615 315.889 123.366 316.152 123.191C316.414 123.015 316.723 122.922 317.039 122.922C317.462 122.922 317.868 123.09 318.167 123.389C318.467 123.689 318.635 124.095 318.635 124.518Z" fill="#FF850A"/>
<path d="M297.634 129.292C297.634 129.607 297.54 129.916 297.365 130.178C297.189 130.441 296.94 130.646 296.648 130.766C296.357 130.887 296.036 130.919 295.726 130.857C295.416 130.796 295.132 130.644 294.909 130.42C294.685 130.197 294.533 129.913 294.472 129.603C294.41 129.293 294.442 128.972 294.563 128.681C294.683 128.389 294.888 128.14 295.151 127.964C295.413 127.789 295.722 127.695 296.037 127.695C296.461 127.695 296.867 127.863 297.166 128.163C297.466 128.462 297.634 128.868 297.634 129.292Z" fill="#FF850A"/>
<path d="M302.886 129.292C302.886 129.607 302.792 129.916 302.617 130.178C302.442 130.441 302.192 130.646 301.901 130.766C301.609 130.887 301.288 130.919 300.978 130.857C300.669 130.796 300.384 130.644 300.161 130.42C299.938 130.197 299.786 129.913 299.724 129.603C299.662 129.293 299.694 128.972 299.815 128.681C299.936 128.389 300.14 128.14 300.403 127.964C300.665 127.789 300.974 127.695 301.29 127.695C301.713 127.695 302.119 127.863 302.419 128.163C302.718 128.462 302.886 128.868 302.886 129.292Z" fill="#FF850A"/>
<path d="M308.138 129.292C308.138 129.607 308.045 129.916 307.869 130.178C307.694 130.441 307.445 130.646 307.153 130.766C306.861 130.887 306.54 130.919 306.231 130.857C305.921 130.796 305.636 130.644 305.413 130.42C305.19 130.197 305.038 129.913 304.976 129.603C304.915 129.293 304.946 128.972 305.067 128.681C305.188 128.389 305.393 128.14 305.655 127.964C305.918 127.789 306.226 127.695 306.542 127.695C306.965 127.695 307.371 127.863 307.671 128.163C307.97 128.462 308.138 128.868 308.138 129.292Z" fill="#FF850A"/>
<path d="M313.383 129.292C313.383 129.607 313.289 129.916 313.114 130.178C312.938 130.441 312.689 130.646 312.397 130.766C312.106 130.887 311.785 130.919 311.475 130.857C311.165 130.796 310.881 130.644 310.658 130.42C310.434 130.197 310.282 129.913 310.221 129.603C310.159 129.293 310.191 128.972 310.311 128.681C310.432 128.389 310.637 128.14 310.899 127.964C311.162 127.789 311.471 127.695 311.786 127.695C312.21 127.695 312.616 127.863 312.915 128.163C313.215 128.462 313.383 128.868 313.383 129.292Z" fill="#FF850A"/>
<path d="M318.635 129.292C318.635 129.607 318.541 129.916 318.366 130.178C318.191 130.441 317.941 130.646 317.65 130.766C317.358 130.887 317.037 130.919 316.727 130.857C316.417 130.796 316.133 130.644 315.91 130.42C315.686 130.197 315.534 129.913 315.473 129.603C315.411 129.293 315.443 128.972 315.564 128.681C315.684 128.389 315.889 128.14 316.152 127.964C316.414 127.789 316.723 127.695 317.039 127.695C317.462 127.695 317.868 127.863 318.167 128.163C318.467 128.462 318.635 128.868 318.635 129.292Z" fill="#FF850A"/>
<path d="M297.634 134.073C297.634 134.389 297.54 134.697 297.365 134.96C297.189 135.222 296.94 135.427 296.648 135.548C296.357 135.668 296.036 135.7 295.726 135.639C295.416 135.577 295.132 135.425 294.909 135.202C294.685 134.978 294.533 134.694 294.472 134.384C294.41 134.075 294.442 133.754 294.563 133.462C294.683 133.17 294.888 132.921 295.151 132.745C295.413 132.57 295.722 132.476 296.037 132.476C296.461 132.476 296.867 132.645 297.166 132.944C297.466 133.243 297.634 133.649 297.634 134.073Z" fill="#FF850A"/>
<path d="M302.886 134.073C302.886 134.389 302.792 134.697 302.617 134.96C302.442 135.222 302.192 135.427 301.901 135.548C301.609 135.668 301.288 135.7 300.978 135.639C300.669 135.577 300.384 135.425 300.161 135.202C299.938 134.978 299.786 134.694 299.724 134.384C299.662 134.075 299.694 133.754 299.815 133.462C299.936 133.17 300.14 132.921 300.403 132.745C300.665 132.57 300.974 132.476 301.29 132.476C301.713 132.476 302.119 132.645 302.419 132.944C302.718 133.243 302.886 133.649 302.886 134.073Z" fill="#FF850A"/>
<path d="M308.138 134.073C308.138 134.389 308.045 134.697 307.869 134.96C307.694 135.222 307.445 135.427 307.153 135.548C306.861 135.668 306.54 135.7 306.231 135.639C305.921 135.577 305.636 135.425 305.413 135.202C305.19 134.978 305.038 134.694 304.976 134.384C304.915 134.075 304.946 133.754 305.067 133.462C305.188 133.17 305.393 132.921 305.655 132.745C305.918 132.57 306.226 132.476 306.542 132.476C306.965 132.476 307.371 132.645 307.671 132.944C307.97 133.243 308.138 133.649 308.138 134.073Z" fill="#FF850A"/>
<path d="M313.383 134.073C313.383 134.389 313.289 134.697 313.114 134.96C312.938 135.222 312.689 135.427 312.397 135.548C312.106 135.668 311.785 135.7 311.475 135.639C311.165 135.577 310.881 135.425 310.658 135.202C310.434 134.978 310.282 134.694 310.221 134.384C310.159 134.075 310.191 133.754 310.311 133.462C310.432 133.17 310.637 132.921 310.899 132.745C311.162 132.57 311.471 132.476 311.786 132.476C312.21 132.476 312.616 132.645 312.915 132.944C313.215 133.243 313.383 133.649 313.383 134.073Z" fill="#FF850A"/>
<path d="M318.635 134.073C318.635 134.389 318.541 134.697 318.366 134.96C318.191 135.222 317.941 135.427 317.65 135.548C317.358 135.668 317.037 135.7 316.727 135.639C316.417 135.577 316.133 135.425 315.91 135.202C315.686 134.978 315.534 134.694 315.473 134.384C315.411 134.075 315.443 133.754 315.564 133.462C315.684 133.17 315.889 132.921 316.152 132.745C316.414 132.57 316.723 132.476 317.039 132.476C317.462 132.476 317.868 132.645 318.167 132.944C318.467 133.243 318.635 133.649 318.635 134.073Z" fill="#FF850A"/>
<path d="M292.35 122.922H291.432V135.661H292.35V122.922Z" fill="#1F2937"/>
<path d="M321.11 96.8518H238.725V115.881H321.11V96.8518Z" fill="#111827"/>
<path d="M289.085 99.9888H242.19V101.593H289.085V99.9888Z" fill="#4B5563"/>
<path d="M289.085 102.775H242.19V104.379H289.085V102.775Z" fill="#4B5563"/>
<path d="M289.085 105.56H242.19V107.165H289.085V105.56Z" fill="#4B5563"/>
<path d="M289.085 108.346H242.19V109.951H289.085V108.346Z" fill="#4B5563"/>
<path d="M289.085 111.124H242.19V112.728H289.085V111.124Z" fill="#4B5563"/>
<path d="M297.634 101.585C297.634 101.901 297.54 102.21 297.365 102.472C297.189 102.735 296.94 102.939 296.648 103.06C296.357 103.181 296.036 103.213 295.726 103.151C295.416 103.089 295.132 102.937 294.909 102.714C294.685 102.491 294.533 102.206 294.472 101.897C294.41 101.587 294.442 101.266 294.563 100.974C294.683 100.683 294.888 100.433 295.151 100.258C295.413 100.082 295.722 99.9888 296.037 99.9888C296.461 99.9888 296.867 100.157 297.166 100.456C297.466 100.756 297.634 101.162 297.634 101.585Z" fill="#FF850A"/>
<path d="M302.886 101.585C302.886 101.901 302.792 102.21 302.617 102.472C302.442 102.735 302.192 102.939 301.901 103.06C301.609 103.181 301.288 103.213 300.978 103.151C300.669 103.089 300.384 102.937 300.161 102.714C299.938 102.491 299.786 102.206 299.724 101.897C299.662 101.587 299.694 101.266 299.815 100.974C299.936 100.683 300.14 100.433 300.403 100.258C300.665 100.082 300.974 99.9888 301.29 99.9888C301.713 99.9888 302.119 100.157 302.419 100.456C302.718 100.756 302.886 101.162 302.886 101.585Z" fill="#FF850A"/>
<path d="M308.138 101.585C308.138 101.901 308.045 102.21 307.869 102.472C307.694 102.735 307.445 102.939 307.153 103.06C306.861 103.181 306.54 103.213 306.231 103.151C305.921 103.089 305.636 102.937 305.413 102.714C305.19 102.491 305.038 102.206 304.976 101.897C304.915 101.587 304.946 101.266 305.067 100.974C305.188 100.683 305.393 100.433 305.655 100.258C305.918 100.082 306.226 99.9888 306.542 99.9888C306.965 99.9888 307.371 100.157 307.671 100.456C307.97 100.756 308.138 101.162 308.138 101.585Z" fill="#FF850A"/>
<path d="M313.383 101.585C313.383 101.901 313.289 102.21 313.114 102.472C312.938 102.735 312.689 102.939 312.397 103.06C312.106 103.181 311.785 103.213 311.475 103.151C311.165 103.089 310.881 102.937 310.658 102.714C310.434 102.491 310.282 102.206 310.221 101.897C310.159 101.587 310.191 101.266 310.311 100.974C310.432 100.683 310.637 100.433 310.899 100.258C311.162 100.082 311.471 99.9888 311.786 99.9888C312.21 99.9888 312.616 100.157 312.915 100.456C313.215 100.756 313.383 101.162 313.383 101.585Z" fill="#FF850A"/>
<path d="M318.635 101.585C318.635 101.901 318.541 102.21 318.366 102.472C318.191 102.735 317.941 102.939 317.65 103.06C317.358 103.181 317.037 103.213 316.727 103.151C316.417 103.089 316.133 102.937 315.91 102.714C315.686 102.491 315.534 102.206 315.473 101.897C315.411 101.587 315.443 101.266 315.564 100.974C315.684 100.683 315.889 100.433 316.152 100.258C316.414 100.082 316.723 99.9888 317.039 99.9888C317.462 99.9888 317.868 100.157 318.167 100.456C318.467 100.756 318.635 101.162 318.635 101.585Z" fill="#FF850A"/>
<path d="M297.634 106.367C297.634 106.682 297.54 106.991 297.365 107.254C297.189 107.516 296.94 107.721 296.648 107.842C296.357 107.962 296.036 107.994 295.726 107.932C295.416 107.871 295.132 107.719 294.909 107.496C294.685 107.272 294.533 106.988 294.472 106.678C294.41 106.368 294.442 106.047 294.563 105.756C294.683 105.464 294.888 105.215 295.151 105.039C295.413 104.864 295.722 104.77 296.037 104.77C296.461 104.77 296.867 104.938 297.166 105.238C297.466 105.537 297.634 105.943 297.634 106.367Z" fill="#FF850A"/>
<path d="M302.886 106.367C302.886 106.682 302.792 106.991 302.617 107.254C302.442 107.516 302.192 107.721 301.901 107.842C301.609 107.962 301.288 107.994 300.978 107.932C300.669 107.871 300.384 107.719 300.161 107.496C299.938 107.272 299.786 106.988 299.724 106.678C299.662 106.368 299.694 106.047 299.815 105.756C299.936 105.464 300.14 105.215 300.403 105.039C300.665 104.864 300.974 104.77 301.29 104.77C301.713 104.77 302.119 104.938 302.419 105.238C302.718 105.537 302.886 105.943 302.886 106.367Z" fill="#FF850A"/>
<path d="M308.138 106.367C308.138 106.682 308.045 106.991 307.869 107.254C307.694 107.516 307.445 107.721 307.153 107.842C306.861 107.962 306.54 107.994 306.231 107.932C305.921 107.871 305.636 107.719 305.413 107.496C305.19 107.272 305.038 106.988 304.976 106.678C304.915 106.368 304.946 106.047 305.067 105.756C305.188 105.464 305.393 105.215 305.655 105.039C305.918 104.864 306.226 104.77 306.542 104.77C306.965 104.77 307.371 104.938 307.671 105.238C307.97 105.537 308.138 105.943 308.138 106.367Z" fill="#FF850A"/>
<path d="M313.383 106.367C313.383 106.682 313.289 106.991 313.114 107.254C312.938 107.516 312.689 107.721 312.397 107.842C312.106 107.962 311.785 107.994 311.475 107.932C311.165 107.871 310.881 107.719 310.658 107.496C310.434 107.272 310.282 106.988 310.221 106.678C310.159 106.368 310.191 106.047 310.311 105.756C310.432 105.464 310.637 105.215 310.899 105.039C311.162 104.864 311.471 104.77 311.786 104.77C312.21 104.77 312.616 104.938 312.915 105.238C313.215 105.537 313.383 105.943 313.383 106.367Z" fill="#FF850A"/>
<path d="M318.635 106.367C318.635 106.682 318.541 106.991 318.366 107.254C318.191 107.516 317.941 107.721 317.65 107.842C317.358 107.962 317.037 107.994 316.727 107.932C316.417 107.871 316.133 107.719 315.91 107.496C315.686 107.272 315.534 106.988 315.473 106.678C315.411 106.368 315.443 106.047 315.564 105.756C315.684 105.464 315.889 105.215 316.152 105.039C316.414 104.864 316.723 104.77 317.039 104.77C317.462 104.77 317.868 104.938 318.167 105.238C318.467 105.537 318.635 105.943 318.635 106.367Z" fill="#FF850A"/>
<path d="M297.634 111.14C297.634 111.456 297.54 111.764 297.365 112.027C297.189 112.289 296.94 112.494 296.648 112.615C296.357 112.736 296.036 112.767 295.726 112.706C295.416 112.644 295.132 112.492 294.909 112.269C294.685 112.045 294.533 111.761 294.472 111.451C294.41 111.142 294.442 110.821 294.563 110.529C294.683 110.237 294.888 109.988 295.151 109.812C295.413 109.637 295.722 109.543 296.037 109.543C296.461 109.543 296.867 109.712 297.166 110.011C297.466 110.31 297.634 110.716 297.634 111.14Z" fill="#FF850A"/>
<path d="M302.886 111.14C302.886 111.456 302.792 111.764 302.617 112.027C302.442 112.289 302.192 112.494 301.901 112.615C301.609 112.736 301.288 112.767 300.978 112.706C300.669 112.644 300.384 112.492 300.161 112.269C299.938 112.045 299.786 111.761 299.724 111.451C299.662 111.142 299.694 110.821 299.815 110.529C299.936 110.237 300.14 109.988 300.403 109.812C300.665 109.637 300.974 109.543 301.29 109.543C301.713 109.543 302.119 109.712 302.419 110.011C302.718 110.31 302.886 110.716 302.886 111.14Z" fill="#FF850A"/>
<path d="M308.138 111.14C308.138 111.456 308.045 111.764 307.869 112.027C307.694 112.289 307.445 112.494 307.153 112.615C306.861 112.736 306.54 112.767 306.231 112.706C305.921 112.644 305.636 112.492 305.413 112.269C305.19 112.045 305.038 111.761 304.976 111.451C304.915 111.142 304.946 110.821 305.067 110.529C305.188 110.237 305.393 109.988 305.655 109.812C305.918 109.637 306.226 109.543 306.542 109.543C306.965 109.543 307.371 109.712 307.671 110.011C307.97 110.31 308.138 110.716 308.138 111.14Z" fill="#FF850A"/>
<path d="M313.383 111.14C313.383 111.456 313.289 111.764 313.114 112.027C312.938 112.289 312.689 112.494 312.397 112.615C312.106 112.736 311.785 112.767 311.475 112.706C311.165 112.644 310.881 112.492 310.658 112.269C310.434 112.045 310.282 111.761 310.221 111.451C310.159 111.142 310.191 110.821 310.311 110.529C310.432 110.237 310.637 109.988 310.899 109.812C311.162 109.637 311.471 109.543 311.786 109.543C312.21 109.543 312.616 109.712 312.915 110.011C313.215 110.31 313.383 110.716 313.383 111.14Z" fill="#FF850A"/>
<path d="M318.635 111.14C318.635 111.456 318.541 111.764 318.366 112.027C318.191 112.289 317.941 112.494 317.65 112.615C317.358 112.736 317.037 112.767 316.727 112.706C316.417 112.644 316.133 112.492 315.91 112.269C315.686 112.045 315.534 111.761 315.473 111.451C315.411 111.142 315.443 110.821 315.564 110.529C315.684 110.237 315.889 109.988 316.152 109.812C316.414 109.637 316.723 109.543 317.039 109.543C317.462 109.543 317.868 109.712 318.167 110.011C318.467 110.31 318.635 110.716 318.635 111.14Z" fill="#FF850A"/>
<path d="M292.35 99.9888H291.432V112.728H292.35V99.9888Z" fill="#1F2937"/>
<path d="M321.11 73.9189H238.725V92.9485H321.11V73.9189Z" fill="#111827"/>
<path d="M289.085 77.064H242.19V78.6684H289.085V77.064Z" fill="#4B5563"/>
<path d="M289.085 79.8418H242.19V81.4462H289.085V79.8418Z" fill="#4B5563"/>
<path d="M289.085 82.6274H242.19V84.2319H289.085V82.6274Z" fill="#4B5563"/>
<path d="M289.085 85.4133H242.19V87.0177H289.085V85.4133Z" fill="#4B5563"/>
<path d="M289.085 88.1992H242.19V89.8036H289.085V88.1992Z" fill="#4B5563"/>
<path d="M297.634 78.6523C297.634 78.9681 297.54 79.2767 297.365 79.5393C297.189 79.8018 296.94 80.0064 296.648 80.1273C296.357 80.2481 296.036 80.2797 295.726 80.2181C295.416 80.1565 295.132 80.0045 294.909 79.7812C294.685 79.5579 294.533 79.2735 294.472 78.9638C294.41 78.6541 294.442 78.3331 294.563 78.0414C294.683 77.7497 294.888 77.5004 295.151 77.3249C295.413 77.1495 295.722 77.0559 296.037 77.0559C296.461 77.0559 296.867 77.2241 297.166 77.5235C297.466 77.8229 297.634 78.2289 297.634 78.6523Z" fill="#FF850A"/>
<path d="M302.886 78.6523C302.886 78.9681 302.792 79.2767 302.617 79.5393C302.442 79.8018 302.192 80.0064 301.901 80.1273C301.609 80.2481 301.288 80.2797 300.978 80.2181C300.669 80.1565 300.384 80.0045 300.161 79.7812C299.938 79.5579 299.786 79.2735 299.724 78.9638C299.662 78.6541 299.694 78.3331 299.815 78.0414C299.936 77.7497 300.14 77.5004 300.403 77.3249C300.665 77.1495 300.974 77.0559 301.29 77.0559C301.713 77.0559 302.119 77.2241 302.419 77.5235C302.718 77.8229 302.886 78.2289 302.886 78.6523Z" fill="#FF850A"/>
<path d="M308.138 78.6523C308.138 78.9681 308.045 79.2767 307.869 79.5393C307.694 79.8018 307.445 80.0064 307.153 80.1273C306.861 80.2481 306.54 80.2797 306.231 80.2181C305.921 80.1565 305.636 80.0045 305.413 79.7812C305.19 79.5579 305.038 79.2735 304.976 78.9638C304.915 78.6541 304.946 78.3331 305.067 78.0414C305.188 77.7497 305.393 77.5004 305.655 77.3249C305.918 77.1495 306.226 77.0559 306.542 77.0559C306.965 77.0559 307.371 77.2241 307.671 77.5235C307.97 77.8229 308.138 78.2289 308.138 78.6523Z" fill="#FF850A"/>
<path d="M313.383 78.6523C313.383 78.9681 313.289 79.2767 313.114 79.5393C312.938 79.8018 312.689 80.0064 312.397 80.1273C312.106 80.2481 311.785 80.2797 311.475 80.2181C311.165 80.1565 310.881 80.0045 310.658 79.7812C310.434 79.5579 310.282 79.2735 310.221 78.9638C310.159 78.6541 310.191 78.3331 310.311 78.0414C310.432 77.7497 310.637 77.5004 310.899 77.3249C311.162 77.1495 311.471 77.0559 311.786 77.0559C312.21 77.0559 312.616 77.2241 312.915 77.5235C313.215 77.8229 313.383 78.2289 313.383 78.6523Z" fill="#FF850A"/>
<path d="M318.635 78.6523C318.635 78.9681 318.541 79.2767 318.366 79.5393C318.191 79.8018 317.941 80.0064 317.65 80.1273C317.358 80.2481 317.037 80.2797 316.727 80.2181C316.417 80.1565 316.133 80.0045 315.91 79.7812C315.686 79.5579 315.534 79.2735 315.473 78.9638C315.411 78.6541 315.443 78.3331 315.564 78.0414C315.684 77.7497 315.889 77.5004 316.152 77.3249C316.414 77.1495 316.723 77.0559 317.039 77.0559C317.462 77.0559 317.868 77.2241 318.167 77.5235C318.467 77.8229 318.635 78.2289 318.635 78.6523Z" fill="#FF850A"/>
<path d="M296.046 85.0303C296.927 85.0303 297.642 84.3155 297.642 83.4338C297.642 82.5522 296.927 81.8374 296.046 81.8374C295.164 81.8374 294.449 82.5522 294.449 83.4338C294.449 84.3155 295.164 85.0303 296.046 85.0303Z" fill="#FF850A"/>
<path d="M302.886 83.4338C302.886 83.7496 302.792 84.0582 302.617 84.3208C302.442 84.5833 302.192 84.7879 301.901 84.9088C301.609 85.0296 301.288 85.0612 300.978 84.9996C300.669 84.938 300.384 84.786 300.161 84.5627C299.938 84.3394 299.786 84.055 299.724 83.7453C299.662 83.4356 299.694 83.1146 299.815 82.8229C299.936 82.5312 300.14 82.2819 300.403 82.1065C300.665 81.931 300.974 81.8374 301.29 81.8374C301.713 81.8374 302.119 82.0056 302.419 82.305C302.718 82.6044 302.886 83.0104 302.886 83.4338Z" fill="#FF850A"/>
<path d="M306.542 85.0303C307.424 85.0303 308.138 84.3155 308.138 83.4338C308.138 82.5522 307.424 81.8374 306.542 81.8374C305.66 81.8374 304.946 82.5522 304.946 83.4338C304.946 84.3155 305.66 85.0303 306.542 85.0303Z" fill="#FF850A"/>
<path d="M313.383 83.4338C313.383 83.7496 313.289 84.0582 313.114 84.3208C312.938 84.5833 312.689 84.7879 312.397 84.9088C312.106 85.0296 311.785 85.0612 311.475 84.9996C311.165 84.938 310.881 84.786 310.658 84.5627C310.434 84.3394 310.282 84.055 310.221 83.7453C310.159 83.4356 310.191 83.1146 310.311 82.8229C310.432 82.5312 310.637 82.2819 310.899 82.1065C311.162 81.931 311.471 81.8374 311.786 81.8374C312.21 81.8374 312.616 82.0056 312.915 82.305C313.215 82.6044 313.383 83.0104 313.383 83.4338Z" fill="#FF850A"/>
<path d="M318.635 83.4338C318.635 83.7496 318.541 84.0582 318.366 84.3208C318.191 84.5833 317.941 84.7879 317.65 84.9088C317.358 85.0296 317.037 85.0612 316.727 84.9996C316.417 84.938 316.133 84.786 315.91 84.5627C315.686 84.3394 315.534 84.055 315.473 83.7453C315.411 83.4356 315.443 83.1146 315.564 82.8229C315.684 82.5312 315.889 82.2819 316.152 82.1065C316.414 81.931 316.723 81.8374 317.039 81.8374C317.462 81.8374 317.868 82.0056 318.167 82.305C318.467 82.6044 318.635 83.0104 318.635 83.4338Z" fill="#FF850A"/>
<path d="M297.634 88.207C297.634 88.5228 297.54 88.8314 297.365 89.094C297.189 89.3565 296.94 89.5611 296.648 89.6819C296.357 89.8028 296.036 89.8344 295.726 89.7728C295.416 89.7112 295.132 89.5592 294.909 89.3359C294.685 89.1126 294.533 88.8282 294.472 88.5185C294.41 88.2088 294.442 87.8878 294.563 87.5961C294.683 87.3044 294.888 87.0551 295.151 86.8796C295.413 86.7042 295.722 86.6106 296.037 86.6106C296.461 86.6106 296.867 86.7788 297.166 87.0782C297.466 87.3776 297.634 87.7836 297.634 88.207Z" fill="#FF850A"/>
<path d="M302.886 88.207C302.886 88.5228 302.792 88.8314 302.617 89.094C302.442 89.3565 302.192 89.5611 301.901 89.6819C301.609 89.8028 301.288 89.8344 300.978 89.7728C300.669 89.7112 300.384 89.5592 300.161 89.3359C299.938 89.1126 299.786 88.8282 299.724 88.5185C299.662 88.2088 299.694 87.8878 299.815 87.5961C299.936 87.3044 300.14 87.0551 300.403 86.8796C300.665 86.7042 300.974 86.6106 301.29 86.6106C301.713 86.6106 302.119 86.7788 302.419 87.0782C302.718 87.3776 302.886 87.7836 302.886 88.207Z" fill="#FF850A"/>
<path d="M308.138 88.207C308.138 88.5228 308.045 88.8314 307.869 89.094C307.694 89.3565 307.445 89.5611 307.153 89.6819C306.861 89.8028 306.54 89.8344 306.231 89.7728C305.921 89.7112 305.636 89.5592 305.413 89.3359C305.19 89.1126 305.038 88.8282 304.976 88.5185C304.915 88.2088 304.946 87.8878 305.067 87.5961C305.188 87.3044 305.393 87.0551 305.655 86.8796C305.918 86.7042 306.226 86.6106 306.542 86.6106C306.965 86.6106 307.371 86.7788 307.671 87.0782C307.97 87.3776 308.138 87.7836 308.138 88.207Z" fill="#FF850A"/>
<path d="M313.383 88.207C313.383 88.5228 313.289 88.8314 313.114 89.094C312.938 89.3565 312.689 89.5611 312.397 89.6819C312.106 89.8028 311.785 89.8344 311.475 89.7728C311.165 89.7112 310.881 89.5592 310.658 89.3359C310.434 89.1126 310.282 88.8282 310.221 88.5185C310.159 88.2088 310.191 87.8878 310.311 87.5961C310.432 87.3044 310.637 87.0551 310.899 86.8796C311.162 86.7042 311.471 86.6106 311.786 86.6106C312.21 86.6106 312.616 86.7788 312.915 87.0782C313.215 87.3776 313.383 87.7836 313.383 88.207Z" fill="#FF850A"/>
<path d="M318.635 88.207C318.635 88.5228 318.541 88.8314 318.366 89.094C318.191 89.3565 317.941 89.5611 317.65 89.6819C317.358 89.8028 317.037 89.8344 316.727 89.7728C316.417 89.7112 316.133 89.5592 315.91 89.3359C315.686 89.1126 315.534 88.8282 315.473 88.5185C315.411 88.2088 315.443 87.8878 315.564 87.5961C315.684 87.3044 315.889 87.0551 316.152 86.8796C316.414 86.7042 316.723 86.6106 317.039 86.6106C317.462 86.6106 317.868 86.7788 318.167 87.0782C318.467 87.3776 318.635 87.7836 318.635 88.207Z" fill="#FF850A"/>
<path d="M292.35 77.064H291.432V89.8035H292.35V77.064Z" fill="#1F2937"/>
<path d="M307.668 58.0823H199.07V64.1168H307.668V58.0823Z" fill="#111827"/>
<path d="M200.155 229.867H188.03V241.992H200.155V229.867Z" fill="#1F2937"/>
<path d="M71.666 104.737V107.068H63.62V95.5815H71.5543V97.9123H66.2781V100.139H70.804V102.295H66.2781V104.737H71.666Z" fill="#F3F4F6"/>
<path d="M73.2864 107.068V95.5817H78.4588C78.9781 95.5771 79.4915 95.6918 79.9595 95.9169C80.4208 96.1466 80.8351 96.4607 81.1808 96.8429C81.5156 97.2096 81.7855 97.6307 81.979 98.0881C82.164 98.5333 82.259 99.0108 82.2584 99.493C82.2608 99.8403 82.2178 100.186 82.1306 100.523C82.0466 100.845 81.9233 101.156 81.7635 101.449C81.6039 101.74 81.4051 102.009 81.1728 102.247C80.937 102.482 80.668 102.681 80.3746 102.837L82.8969 107.108H79.9036L77.7085 103.404H75.9764V107.108L73.2864 107.068ZM75.9365 101.049H78.3311C78.4902 101.044 78.6456 101.001 78.7845 100.923C78.9233 100.845 79.0416 100.735 79.1293 100.602C79.3703 100.272 79.4914 99.8695 79.4726 99.461C79.4944 99.0467 79.3541 98.6402 79.0814 98.3275C78.9844 98.2068 78.8634 98.1076 78.7259 98.0361C78.5885 97.9647 78.4378 97.9226 78.2832 97.9125H75.9365V101.049Z" fill="#F3F4F6"/>
<path d="M84.1263 107.068V95.5817H89.2988C89.8181 95.5771 90.3315 95.6918 90.7995 95.9169C91.2468 96.1404 91.6498 96.4433 91.9888 96.8109C92.3263 97.1756 92.5966 97.5972 92.787 98.0562C92.9746 98.5009 93.0723 98.9784 93.0744 99.461C93.0742 99.8087 93.0286 100.155 92.9387 100.491C92.8546 100.813 92.7313 101.124 92.5715 101.417C92.4119 101.708 92.2132 101.977 91.9808 102.215C91.745 102.45 91.4761 102.649 91.1826 102.806L93.7129 107.076H90.7196L88.5165 103.372H86.7684V107.076L84.1263 107.068ZM86.7764 101.049H89.1711C89.3301 101.044 89.4856 101.001 89.6244 100.923C89.7633 100.845 89.8815 100.735 89.9693 100.602C90.2103 100.272 90.3314 99.8695 90.3125 99.461C90.3344 99.0467 90.1941 98.6402 89.9214 98.3275C89.82 98.2019 89.6925 98.0998 89.5479 98.0281C89.4032 97.9565 89.2447 97.917 89.0833 97.9125H86.7684L86.7764 101.049Z" fill="#F3F4F6"/>
<path d="M99.9948 107.164C99.1899 107.174 98.393 107.002 97.664 106.661C96.9853 106.343 96.3752 105.896 95.868 105.344C95.3719 104.797 94.9797 104.164 94.7106 103.476C94.4407 102.784 94.3026 102.048 94.3035 101.305C94.3001 100.558 94.4439 99.8175 94.7266 99.1259C95.2901 97.7302 96.3711 96.6063 97.7438 95.9889C98.4682 95.6709 99.2517 95.5104 100.043 95.5179C100.847 95.5088 101.643 95.6778 102.374 96.0128C103.055 96.3336 103.665 96.7868 104.17 97.3459C104.665 97.8953 105.054 98.5312 105.319 99.2217C105.586 99.9006 105.724 100.623 105.726 101.353C105.727 102.103 105.581 102.846 105.295 103.54C105.016 104.226 104.613 104.853 104.106 105.392C103.59 105.933 102.975 106.37 102.294 106.677C101.573 107.007 100.788 107.173 99.9948 107.164ZM97.0015 101.337C97.0008 101.775 97.0654 102.211 97.1931 102.63C97.3197 103.028 97.5141 103.4 97.7678 103.732C98.0236 104.063 98.3475 104.335 98.7177 104.53C99.1195 104.728 99.563 104.826 100.011 104.817C100.45 104.83 100.886 104.735 101.281 104.542C101.676 104.349 102.018 104.062 102.278 103.708C102.528 103.371 102.717 102.992 102.836 102.59C102.957 102.178 103.019 101.751 103.02 101.321C103.021 100.885 102.956 100.452 102.828 100.036C102.706 99.6351 102.508 99.2613 102.246 98.9343C101.986 98.6181 101.662 98.3598 101.296 98.176C100.888 97.9867 100.444 97.8886 99.9948 97.8886C99.5454 97.8886 99.1014 97.9867 98.6937 98.176C98.3277 98.3737 98.0069 98.6456 97.7518 98.9742C97.4992 99.3079 97.3073 99.6835 97.1851 100.084C97.0659 100.491 97.0041 100.913 97.0015 101.337Z" fill="#F3F4F6"/>
<path d="M107.259 107.068V95.5817H112.439C112.956 95.5769 113.467 95.6916 113.932 95.9169C114.381 96.1378 114.784 96.441 115.121 96.811C115.458 97.1759 115.728 97.5974 115.919 98.0562C116.101 98.5025 116.196 98.9793 116.199 99.461C116.201 99.8084 116.158 100.155 116.071 100.491C115.984 100.814 115.858 101.124 115.696 101.417C115.539 101.71 115.34 101.979 115.105 102.215C114.868 102.448 114.599 102.647 114.307 102.806L116.829 107.076H113.836L111.633 103.372H109.917V107.076L107.259 107.068ZM109.917 101.049H112.311C112.47 101.044 112.626 101.001 112.765 100.923C112.904 100.845 113.022 100.735 113.11 100.602C113.347 100.27 113.467 99.8689 113.453 99.461C113.47 99.0474 113.33 98.6427 113.062 98.3276C112.959 98.2035 112.831 98.1024 112.687 98.0309C112.542 97.9594 112.385 97.9191 112.224 97.9125H109.917V101.049Z" fill="#F3F4F6"/>
<path d="M32.2659 13.7172V31.4456C33.5882 29.6206 35.3972 28.2044 37.4863 27.3587C38.8148 26.8482 40.2301 26.6014 41.653 26.6324C47.1128 26.6324 51.1438 28.5428 53.746 32.3636C55.9916 35.6629 57.1145 40.3218 57.1145 46.3404V64.1327C57.1145 70.2417 55.1801 75.2519 51.3114 79.1631C49.5031 81.0245 47.3275 82.4896 44.9227 83.4652C42.518 84.4408 39.9366 84.9058 37.3426 84.8305C34.7853 84.8899 32.2459 84.3899 29.902 83.3655C27.5581 82.3411 25.4663 80.817 23.7729 78.8997C20.3088 75.1355 18.4427 70.1727 18.5685 65.0586V63.079L30.4859 62.185L30.7493 65.0187C31.0633 68.3127 32.3936 70.5105 34.7404 71.612C35.4363 71.9613 36.2047 72.1418 36.9834 72.1388C42.076 72.1388 44.6223 69.4781 44.6223 64.1566V43.8978C44.6497 42.7651 44.4264 41.6403 43.9682 40.6039C43.5101 39.5676 42.8285 38.6453 41.9722 37.9032C40.9832 37.1032 39.7296 36.7043 38.4601 36.7857C37.4867 36.7282 36.516 36.9371 35.6525 37.39C34.7889 37.8429 34.0652 38.5225 33.559 39.356C32.692 40.7855 32.2337 42.4255 32.234 44.0974V46.3404H19.8137V1.19312H56.2604V13.7172H32.2659Z" fill="#D7001C"/>
<path d="M107.067 65.0587C107.054 68.9582 105.887 72.7665 103.714 76.0043C101.541 79.2422 98.4583 81.7648 94.8547 83.2547C91.2511 84.7446 87.2872 85.1352 83.4621 84.3774C79.637 83.6195 76.1216 81.747 73.3583 78.9956C71.4992 77.1883 70.0302 75.0192 69.0418 72.6222C68.0533 70.2252 67.5664 67.6511 67.6111 65.0587V19.9753C67.6082 16.0649 68.7659 12.2416 70.9375 8.98955C73.1091 5.73754 76.197 3.20314 79.81 1.70733C83.423 0.211511 87.3987 -0.178423 91.2335 0.586901C95.0683 1.35222 98.5897 3.23838 101.352 6.00649C103.204 7.82519 104.666 10.0012 105.652 12.4025C106.637 14.8037 107.124 17.3801 107.083 19.9753L107.067 65.0587ZM94.1519 19.7119C94.1519 17.8066 93.395 15.9793 92.0477 14.6321C90.7005 13.2848 88.8732 12.5279 86.9679 12.5279C86.0272 12.5125 85.0934 12.6917 84.2253 13.0544C83.3572 13.417 82.5734 13.9552 81.9232 14.6352C81.2533 15.2982 80.7242 16.0895 80.3676 16.9619C80.011 17.8342 79.8342 18.7696 79.8478 19.7119V64.8592C79.8333 65.8016 80.0097 66.7373 80.3663 67.6097C80.723 68.4822 81.2526 69.2735 81.9232 69.9359C82.5734 70.6159 83.3572 71.1541 84.2253 71.5167C85.0934 71.8794 86.0272 72.0586 86.9679 72.0431C88.8732 72.0431 90.7005 71.2863 92.0477 69.939C93.395 68.5918 94.1519 66.7645 94.1519 64.8592V19.7119Z" fill="#D7001C"/>
<path d="M157.291 65.0588C157.291 70.2942 155.211 75.3151 151.509 79.0171C147.807 82.719 142.786 84.7988 137.551 84.7988C132.316 84.7988 127.295 82.719 123.593 79.0171C119.891 75.3151 117.811 70.2942 117.811 65.0588V19.9754C117.81 16.0651 118.97 12.2424 121.142 8.99114C123.315 5.73989 126.403 3.20621 130.016 1.71072C133.629 0.215233 137.605 -0.174843 141.44 0.589851C145.275 1.35455 148.797 3.23964 151.56 6.00659C153.411 7.82529 154.874 10.0013 155.86 12.4026C156.845 14.8038 157.332 17.3802 157.291 19.9754V65.0588ZM144.368 19.712C144.368 17.8067 143.611 15.9794 142.264 14.6322C140.916 13.2849 139.089 12.528 137.184 12.528C136.243 12.5116 135.309 12.6904 134.441 13.0531C133.572 13.4158 132.789 13.9546 132.139 14.6353C131.468 15.2972 130.938 16.0883 130.581 16.9609C130.224 17.8335 130.048 18.7694 130.064 19.712V64.8593C130.047 65.802 130.223 66.7382 130.58 67.6109C130.936 68.4836 131.467 69.2747 132.139 69.936C132.789 70.6167 133.572 71.1555 134.441 71.5182C135.309 71.8809 136.243 72.0597 137.184 72.0432C139.089 72.0432 140.916 71.2864 142.264 69.9391C143.611 68.5919 144.368 66.7646 144.368 64.8593V19.712Z" fill="#D7001C"/>
<path d="M22.1284 205.657H0.927734V226.858H22.1284V205.657Z" fill="#111827"/>
<path d="M11.5282 223.33C15.4385 223.33 18.6084 220.16 18.6084 216.249C18.6084 212.339 15.4385 209.169 11.5282 209.169C7.61791 209.169 4.448 212.339 4.448 216.249C4.448 220.16 7.61791 223.33 11.5282 223.33Z" fill="#4B5563"/>
<path d="M10.2351 213.392H8.63867V219.235H10.2351V213.392Z" fill="#1F2937"/>
<path d="M14.673 213.392H13.0765V219.235H14.673V213.392Z" fill="#1F2937"/>
<path d="M68.4733 239.805C69.2715 241.497 66.2063 253.622 65.2804 256.113C64.3545 258.603 60.978 272.5 59.3496 273.099C57.7213 273.697 49.8269 273.53 48.7094 273.099C47.5919 272.668 48.7094 270.297 49.9945 269.467C51.2796 268.637 52.8202 267.367 52.8202 267.367C52.8202 267.367 50.5134 245.903 50.9444 243.501C51.3754 241.098 66.3979 235.263 68.4733 239.805Z" fill="#FF850A"/>
<path opacity="0.1" d="M68.4733 239.805C69.2715 241.497 66.2063 253.622 65.2804 256.113C64.3545 258.603 60.978 272.5 59.3496 273.099C57.7213 273.697 49.8269 273.53 48.7094 273.099C47.5919 272.668 48.7094 270.297 49.9945 269.467C51.2796 268.637 52.8202 267.367 52.8202 267.367C52.8202 267.367 50.5134 245.903 50.9444 243.501C51.3754 241.098 66.3979 235.263 68.4733 239.805Z" fill="#0A0A0A"/>
<path opacity="0.1" d="M51.9659 272.165C52.0534 271.736 52.2301 271.331 52.4847 270.975C52.7395 270.628 53.0433 270.318 53.3867 270.057C53.7202 269.794 54.107 269.606 54.5202 269.507C54.5327 269.501 54.5468 269.501 54.5597 269.505C54.5726 269.509 54.5835 269.518 54.5904 269.53C54.5973 269.542 54.5996 269.556 54.597 269.569C54.5943 269.582 54.5869 269.594 54.576 269.602C54.4324 269.73 54.2727 269.842 54.137 269.978C54.0013 270.113 53.8497 270.257 53.722 270.401C53.4599 270.681 53.2321 270.992 53.0435 271.327C52.8439 271.654 52.6603 271.989 52.4847 272.34C52.3091 272.692 52.2213 273.067 52.0856 273.434C52.0856 273.455 52.0772 273.475 52.0622 273.49C52.0473 273.505 52.027 273.514 52.0058 273.514C51.9846 273.514 51.9643 273.505 51.9493 273.49C51.9344 273.475 51.926 273.455 51.926 273.434C51.8463 273.013 51.8599 272.58 51.9659 272.165Z" fill="#0A0A0A"/>
<path opacity="0.1" d="M49.6592 270.903C50.0984 270.146 50.7743 269.555 51.5829 269.219C51.6387 269.219 51.6946 269.259 51.6467 269.299C51.0363 269.78 50.5172 270.367 50.1142 271.031C49.9126 271.37 49.7819 271.747 49.7297 272.138C49.6776 272.529 49.7052 272.926 49.8108 273.306C49.8108 273.306 49.8108 273.354 49.7549 273.306C49.5221 272.952 49.3902 272.541 49.3733 272.118C49.3564 271.695 49.4553 271.275 49.6592 270.903Z" fill="#0A0A0A"/>
<path opacity="0.1" d="M51.5987 255.354L62.4465 265.619C63.6438 261.684 64.7614 257.406 65.2483 256.136C66.2061 253.646 69.2394 241.521 68.4411 239.829C66.3578 235.287 51.2954 241.122 50.8803 243.525C50.7127 244.634 51.1118 249.982 51.5987 255.354Z" fill="#0A0A0A"/>
<path d="M109.446 251.938C109.885 252.353 114.155 248.314 114.81 246.422C115.464 244.53 112.734 239.19 113.213 238.28C113.692 237.37 116.047 236.644 117.252 238.041C118.458 239.438 121.547 247.093 120.908 250.365C120.27 253.638 113.7 260.942 113.006 260.942C112.311 260.942 109.446 251.938 109.446 251.938Z" fill="#FF850A"/>
<path opacity="0.1" d="M109.446 251.938C109.446 251.938 112.327 260.878 113.006 260.918C113.509 260.918 117.164 257.038 119.352 253.662L113.373 248.625C111.864 250.405 109.749 252.225 109.446 251.938Z" fill="#0A0A0A"/>
<path d="M85.3236 215.012H49.8827C49.8827 215.012 47.2486 238.352 47.5359 241.441C47.8233 244.53 63.3966 267.415 68.2258 270.369C73.055 273.322 100.817 273.466 107.57 271.965C112.822 270.808 117.204 264.103 115.025 253.782C114.075 249.264 101.767 238.504 100.051 236.444C98.3346 234.385 85.3236 215.012 85.3236 215.012Z" fill="#9CA3AF"/>
<path d="M47.5358 241.441C47.8232 244.53 63.3964 267.415 68.2336 270.369C73.0708 273.322 100.817 273.466 107.578 271.965C112.822 270.808 117.212 264.103 115.025 253.774C114.075 249.264 101.775 238.504 100.059 236.444C99.005 235.183 93.7208 227.424 89.7776 221.597C87.2791 217.91 85.3235 214.996 85.3235 214.996H49.8826C49.8826 214.996 49.2201 220.855 48.5975 227.089C47.9748 233.323 47.3921 239.901 47.5358 241.441Z" fill="#FF850A"/>
<path opacity="0.1" d="M48.5975 227.105C67.643 232.98 84.5812 224.623 89.7777 221.613C87.2792 217.926 85.3236 215.012 85.3236 215.012H49.8827C49.8827 215.012 49.2521 220.871 48.5975 227.105Z" fill="#0A0A0A"/>
<path d="M108.248 252.672C108.248 252.672 98.4942 246.55 91.6535 247.651C84.8127 248.753 82.3941 262.818 85.6748 270.712C85.6748 270.712 79.4327 272.564 79.4327 275.581C79.4327 277.297 83.0008 277.848 88.1413 277.72C93.2818 277.593 103.515 277.497 103.739 276.204C103.786 275.138 103.555 274.079 103.068 273.131C103.068 273.131 112.303 272.093 114.115 265.947C115.927 259.8 109.789 253.702 108.248 252.672Z" fill="#FF850A"/>
<path opacity="0.1" d="M94.9261 271.406C97.5403 272.476 100.318 273.092 103.14 273.226C103.196 273.226 103.212 273.322 103.14 273.33C100.263 273.614 97.3708 272.962 94.8942 271.47C94.8623 271.454 94.8862 271.382 94.9261 271.406Z" fill="#0A0A0A"/>
<path opacity="0.1" d="M83.4478 277.76C83.7873 276.612 84.5449 275.632 85.5711 275.014C86.1277 274.63 86.7348 274.323 87.375 274.104C88.1094 273.857 88.8597 273.721 89.6021 273.49C89.6579 273.49 89.7058 273.562 89.6021 273.586C88.9673 273.815 88.3532 274.098 87.7662 274.432C87.1701 274.74 86.5918 275.081 86.034 275.453C85.1147 276.12 84.3065 276.929 83.6394 277.848C83.6154 277.952 83.4159 277.896 83.4478 277.76Z" fill="#0A0A0A"/>
<path opacity="0.1" d="M84.7089 272.915C84.7216 272.915 84.7338 272.92 84.7428 272.929C84.7518 272.938 84.7568 272.95 84.7568 272.963C84.7568 272.976 84.7518 272.988 84.7428 272.997C84.7338 273.006 84.7216 273.011 84.7089 273.011C82.8199 273.8 81.3134 275.295 80.5103 277.178C80.5103 277.257 80.3347 277.257 80.3506 277.178C80.5063 276.086 81.0178 275.077 81.8059 274.306C82.594 273.535 83.6144 273.046 84.7089 272.915Z" fill="#0A0A0A"/>
<path opacity="0.1" d="M81.6677 272.476C81.6677 272.476 81.6677 272.524 81.6677 272.516C82.8832 271.797 84.1698 271.206 85.5072 270.752C85.6668 271.031 85.8344 271.311 86.018 271.55C86.018 271.606 86.1377 271.55 86.1058 271.502C84.9402 269.039 84.3558 266.341 84.3976 263.616C84.4029 262.173 84.4882 260.731 84.6531 259.297C84.9879 256.783 85.772 254.35 86.9679 252.113C87.6409 250.709 88.6806 249.512 89.9772 248.649C91.3767 247.968 92.9388 247.691 94.4871 247.851C96.0853 247.958 97.6656 248.25 99.1966 248.721C100.752 249.152 102.277 249.685 103.762 250.317C100.916 248.7 97.7817 247.651 94.535 247.228C92.853 246.994 91.1395 247.272 89.618 248.026C88.1867 248.936 87.0282 250.216 86.2655 251.73C84.7558 254.67 83.9188 257.91 83.8149 261.213C83.8149 261.588 83.8149 261.971 83.8149 262.347C83.8149 262.849 83.8149 263.344 83.8149 263.847C83.8273 266.218 84.4046 268.553 85.4992 270.656C84.0691 270.867 82.7348 271.501 81.6677 272.476Z" fill="#0A0A0A"/>
<path d="M79.9276 242.814C80.7258 244.498 77.6607 256.623 76.7347 259.114C75.8088 261.604 72.4004 275.501 70.804 276.108C69.2075 276.715 61.2812 276.539 60.1637 276.108C59.0462 275.677 60.1637 273.306 61.4489 272.476C62.734 271.646 64.2666 270.377 64.2666 270.377C64.2666 270.377 61.9677 248.913 62.3908 246.51C62.8138 244.107 77.8523 238.264 79.9276 242.814Z" fill="#FF850A"/>
<path opacity="0.1" d="M74.6114 265.851C75.3378 263.664 76.2876 261.54 77.006 259.361C77.006 259.273 77.1737 259.313 77.1417 259.401C76.583 261.157 76.1599 262.961 75.6331 264.733C75.7129 264.613 75.7848 264.486 75.8566 264.366C76.3806 263.695 76.8029 262.95 77.1098 262.155C77.1151 262.136 77.1277 262.12 77.1449 262.11C77.1622 262.1 77.1825 262.098 77.2016 262.103C77.2206 262.108 77.2368 262.121 77.2466 262.138C77.2563 262.155 77.2588 262.176 77.2535 262.195C77.1378 262.568 76.9798 262.927 76.7825 263.264C76.575 263.656 76.3595 264.063 76.144 264.438C75.9284 264.813 75.5772 265.444 75.2659 265.931C75.2659 265.97 75.2659 266.002 75.2659 266.034C74.5877 268.24 73.7882 270.406 72.8713 272.524C72.8592 272.543 72.8413 272.558 72.8202 272.566C72.7992 272.574 72.776 272.574 72.7544 272.568C72.7328 272.562 72.7137 272.549 72.7003 272.531C72.6868 272.512 72.6796 272.491 72.6797 272.468C73.2121 270.231 73.8568 268.023 74.6114 265.851Z" fill="#0A0A0A"/>
<path opacity="0.1" d="M62.0635 249.926C62.0635 249.886 62.1513 249.87 62.1592 249.926C62.3907 251.523 62.4865 253.199 62.6541 254.835C62.8218 256.472 63.0293 258.228 63.2129 259.928C63.5881 263.304 64.1548 266.673 64.4262 270.057C64.4262 270.201 64.1787 270.217 64.1388 270.057C63.3268 266.802 62.7796 263.487 62.5025 260.143C62.3269 258.483 62.2231 256.823 62.1433 255.163C62.0197 253.42 61.993 251.672 62.0635 249.926Z" fill="#0A0A0A"/>
<path opacity="0.1" d="M63.0372 274.998C63.1182 274.569 63.2926 274.163 63.5481 273.809C63.8035 273.459 64.1103 273.149 64.458 272.891C64.7897 272.625 65.1771 272.436 65.5915 272.34C65.6034 272.338 65.6156 272.34 65.6263 272.345C65.6371 272.351 65.6458 272.359 65.6512 272.37C65.6565 272.381 65.6583 272.393 65.6562 272.405C65.6541 272.417 65.6482 272.428 65.6394 272.436C65.4957 272.572 65.3361 272.675 65.2004 272.811L64.7853 273.234C64.5276 273.518 64.3002 273.829 64.1068 274.16C63.9153 274.487 63.7237 274.823 63.5561 275.174C63.3884 275.525 63.2847 275.9 63.149 276.267C63.1437 276.283 63.1336 276.297 63.1199 276.307C63.1063 276.317 63.0899 276.322 63.0731 276.322C63.0563 276.322 63.0399 276.317 63.0263 276.307C63.0127 276.297 63.0026 276.283 62.9973 276.267C62.9136 275.847 62.9272 275.413 63.0372 274.998Z" fill="#0A0A0A"/>
<path opacity="0.1" d="M60.7224 273.713C61.1637 272.955 61.8426 272.363 62.6541 272.029C62.702 272.029 62.7579 272.069 62.71 272.109C62.0998 272.588 61.583 273.175 61.1854 273.841C60.9799 274.178 60.8468 274.555 60.7946 274.947C60.7424 275.338 60.7722 275.736 60.8821 276.116C60.8821 276.116 60.8821 276.164 60.8262 276.116C60.5921 275.763 60.4588 275.352 60.4405 274.929C60.4222 274.506 60.5197 274.085 60.7224 273.713Z" fill="#0A0A0A"/>
<path d="M63.4443 182.565C63.8274 181.16 60.3312 176.179 58.9982 174.543C57.6652 172.906 50.3295 170.376 47.9828 171.661C47.0648 172.164 45.3566 175.692 43.0498 178.749C39.4738 183.491 35.3071 188.463 36.8237 189.796C40.4955 193.045 48.8848 187.921 51.6067 186.204C54.3286 184.488 56.8111 182.389 57.4736 182.461C58.3516 182.557 60.1875 183.946 60.9299 184.057C61.4508 184.092 61.9702 183.968 62.4192 183.702C62.8681 183.435 63.2256 183.039 63.4443 182.565Z" fill="#FF850A"/>
<path opacity="0.1" d="M63.4443 182.565C63.8274 181.16 60.3312 176.179 58.9982 174.543C57.6652 172.906 50.3295 170.376 47.9828 171.661C47.0648 172.164 45.3566 175.692 43.0498 178.749C39.4738 183.491 35.3071 188.463 36.8237 189.796C40.4955 193.045 48.8848 187.921 51.6067 186.204C54.3286 184.488 56.8111 182.389 57.4736 182.461C58.3516 182.557 60.1875 183.946 60.9299 184.057C61.4508 184.092 61.9702 183.968 62.4192 183.702C62.8681 183.435 63.2256 183.039 63.4443 182.565Z" fill="#0A0A0A"/>
<path d="M80.3825 177.6C88.9474 182.724 92.7469 196.342 92.9784 198.521C93.17 200.293 97.2489 206.583 96.5225 213.344C96.0515 217.686 88.245 223.457 81.8911 223.402C80.7257 223.402 70.8358 226.978 62.4785 226.403C54.1211 225.828 47.7992 219.897 47.5518 219.394C47.3043 218.892 40.4716 217.918 40.0724 210.933C39.394 199.758 50.7686 180.793 54.0173 178.206C59.4053 173.936 74.5236 174.12 80.3825 177.6Z" fill="#FF850A"/>
<path d="M76.3117 183.514C76.152 181.998 80.5981 177.44 82.2584 175.931C83.9187 174.423 91.9488 173.05 94.1679 174.774C95.0379 175.452 96.2273 179.388 98.1111 182.948C101.025 188.463 104.497 194.314 102.741 195.448C98.3824 198.21 90.528 191.505 87.9896 189.262C85.4513 187.019 83.2003 184.472 82.5218 184.408C81.5959 184.361 79.4567 185.494 78.6824 185.454C78.1382 185.406 77.6211 185.195 77.1983 184.849C76.7755 184.503 76.4666 184.038 76.3117 183.514Z" fill="#FF850A"/>
<path opacity="0.1" d="M76.3117 183.514C76.152 181.998 80.5981 177.44 82.2584 175.931C83.9187 174.423 91.9488 173.05 94.1679 174.774C95.0379 175.452 96.2273 179.388 98.1111 182.948C101.025 188.463 104.497 194.314 102.741 195.448C98.3824 198.21 90.528 191.505 87.9896 189.262C85.4513 187.019 83.2003 184.472 82.5218 184.408C81.5959 184.361 79.4567 185.494 78.6824 185.454C78.1382 185.406 77.6211 185.195 77.1983 184.849C76.7755 184.503 76.4666 184.038 76.3117 183.514Z" fill="#0A0A0A"/>
<path opacity="0.1" d="M60.6665 202.616C65.9188 202.664 68.3134 208.291 68.944 209.752C69.5746 211.213 72.8234 214.541 72.9351 218.077C73.0469 221.613 66.3658 225.501 59.3654 224.263C52.365 223.026 48.6693 219.083 48.7092 215.523C48.7092 212.657 51.4391 210.175 51.7424 209.425C52.0457 208.674 55.8852 202.568 60.6665 202.616Z" fill="#0A0A0A"/>
<path opacity="0.1" d="M73.5817 212.498C74.284 213.297 74.8772 214.185 75.3457 215.14C75.8343 216.101 76.1811 217.128 76.3754 218.189C76.5972 219.289 76.4774 220.431 76.0322 221.462C75.7917 221.97 75.443 222.42 75.0105 222.779C74.5811 223.106 74.0974 223.354 73.5817 223.513C74.4461 222.981 75.1067 222.175 75.4575 221.222C75.7399 220.279 75.7838 219.281 75.5852 218.317C75.4118 217.317 75.1445 216.337 74.787 215.387C74.4118 214.422 73.9967 213.456 73.5817 212.498Z" fill="#0A0A0A"/>
<path opacity="0.1" d="M49.5154 210.398C49.0604 210.965 48.6294 211.516 48.2303 212.075C47.8367 212.621 47.4972 213.203 47.2165 213.815C46.9536 214.411 46.7969 215.049 46.7536 215.699C46.7609 216.383 46.8879 217.061 47.1287 217.702C46.5947 217.171 46.2449 216.483 46.131 215.739C46.0522 214.972 46.1761 214.199 46.4902 213.496C47.1233 212.154 48.1886 211.063 49.5154 210.398Z" fill="#0A0A0A"/>
<path d="M131.58 285.575C122.983 285.575 113.493 285.423 103.954 285.247C99.0369 285.16 95.1735 285.088 92.731 285.088C80.3347 285.088 76.7666 269.123 73.3183 253.75C72.8394 251.602 72.3605 249.455 71.8576 247.364C70.8678 243.237 70.0616 239.078 69.2713 235.047C66.8767 222.587 64.7454 211.835 59.2537 211.245C51.9979 210.446 45.5403 221.318 43.1855 238.248L41.5891 238.033C44.0716 220.185 51.2316 208.77 59.4054 209.656C66.0705 210.366 68.2736 221.629 70.8199 234.744C71.6181 238.735 72.4163 242.902 73.3902 246.989C73.901 249.104 74.3799 251.267 74.8669 253.422C78.3311 268.892 81.6038 283.507 92.715 283.507C95.1496 283.507 99.0449 283.579 103.97 283.667C114.762 283.874 129.513 284.146 142.045 283.898C162.336 283.499 164.738 281.903 164.986 281.416C164.986 278.095 143.562 274.104 135.5 272.596C127.438 271.087 127.038 270.999 127.126 270.017C127.214 269.036 128.204 269.115 129.72 269.115H163.198C173.694 269.115 177.079 254.013 179.106 244.985C179.453 243.047 179.968 241.143 180.647 239.294C182.994 234.409 188.932 235.119 189.18 235.151L188.972 236.748C188.765 236.748 183.928 236.157 182.084 239.996C181.47 241.739 180.995 243.527 180.663 245.344C178.532 254.835 174.979 270.72 163.198 270.72H134.143L135.811 271.031C155.303 274.671 166.59 277.553 166.59 281.488C166.587 281.702 166.539 281.914 166.45 282.109C166.361 282.304 166.232 282.479 166.071 282.621C163.701 284.928 149.596 285.575 131.58 285.575Z" fill="#1F2937"/>
<path d="M47.4572 237.077L37.6726 236.49L37.3206 242.363L47.1052 242.949L47.4572 237.077Z" fill="#4B5563"/>
<path d="M45.7195 235.108L39.6161 234.742L39.5043 236.606L45.6077 236.972L45.7195 235.108Z" fill="#111827"/>
<path d="M40.5646 242.563L39.4093 242.494L39.1409 246.972L40.2963 247.041L40.5646 242.563Z" fill="#FF850A"/>
<path d="M44.987 242.819L43.8396 242.75L43.5712 247.228L44.7186 247.297L44.987 242.819Z" fill="#FF850A"/>
<path d="M192.173 231.032V240.834H196.46V231.032H192.173Z" fill="#4B5563"/>
<path d="M188.717 232.876V238.991H192.181V232.876H188.717Z" fill="#111827"/>
<path d="M54.0414 211.133C54.0414 211.133 56.1247 213.528 56.9309 213.033C57.7371 212.538 59.7566 207.78 59.7566 207.78C59.7566 207.78 60.2435 213.815 61.8001 213.983C63.3566 214.15 66.0226 211.763 66.0226 211.763L59.7247 207.397L54.0414 211.133Z" fill="#FF850A"/>
<path opacity="0.1" d="M54.0414 211.133C54.0414 211.133 56.1247 213.528 56.9309 213.033C57.7371 212.538 59.7566 207.78 59.7566 207.78C59.7566 207.78 60.2435 213.815 61.8001 213.983C63.3566 214.15 66.0226 211.763 66.0226 211.763L59.7247 207.397L54.0414 211.133Z" fill="#0A0A0A"/>
<path opacity="0.1" d="M84.8924 203.637C85.5127 201.696 85.73 199.648 85.531 197.619C85.4411 196.57 85.1964 195.539 84.8046 194.562C84.5915 194.058 84.3239 193.579 84.0064 193.133C83.701 192.672 83.3419 192.248 82.9368 191.872C82.734 191.683 82.5179 191.51 82.2902 191.353C82.0587 191.193 81.8193 191.066 81.5878 190.922L81.2286 190.722L80.8534 190.571C80.5936 190.458 80.327 190.362 80.0552 190.283C79.02 189.979 77.9362 189.876 76.8623 189.98C74.8065 190.176 72.8477 190.948 71.2109 192.207C73.0285 191.515 74.9573 191.16 76.9022 191.161C77.819 191.173 78.7277 191.335 79.5922 191.64C79.8078 191.704 80.0073 191.824 80.2148 191.904L80.5182 192.039L80.8055 192.223C80.9891 192.343 81.1887 192.446 81.3723 192.574C81.5491 192.701 81.7171 192.84 81.8751 192.989C82.5332 193.591 83.0603 194.322 83.4237 195.136C83.8181 195.985 84.1102 196.877 84.2937 197.795C84.6927 199.717 84.8933 201.674 84.8924 203.637Z" fill="#0A0A0A"/>
<path opacity="0.1" d="M45.9553 199.559C46.0414 197.898 46.309 196.252 46.7535 194.65C47.1353 193.164 47.9727 191.835 49.1481 190.85C49.4426 190.635 49.7582 190.45 50.09 190.299C50.413 190.159 50.7543 190.064 51.1038 190.02C51.8714 189.933 52.6473 189.949 53.4106 190.068C55.0532 190.359 56.6706 190.778 58.2478 191.321C57.5856 190.762 56.8658 190.275 56.1006 189.868C55.7175 189.669 55.3024 189.485 54.9193 189.309C54.5092 189.144 54.0909 189 53.6661 188.878C52.7832 188.607 51.8571 188.504 50.9361 188.575C50.441 188.611 49.9554 188.73 49.4994 188.926C49.0571 189.115 48.639 189.356 48.2541 189.645C47.498 190.221 46.8814 190.96 46.4502 191.808C46.0482 192.619 45.7787 193.49 45.6519 194.386C45.3709 196.112 45.4745 197.878 45.9553 199.559Z" fill="#0A0A0A"/>
<path d="M71.8894 201.131C71.8894 201.043 72.097 201.251 72.089 201.355C71.8974 203.749 72.089 206.543 74.4836 207.445C74.5555 207.445 74.5395 207.597 74.4836 207.581C71.5542 207.078 71.2908 203.382 71.8894 201.131Z" fill="#1F2937"/>
<path d="M74.364 198.72C78.6265 198.609 78.6185 206.391 74.6673 206.495C70.7161 206.599 70.8039 198.808 74.364 198.72Z" fill="#1F2937"/>
<path d="M55.4223 199.239C55.4223 199.152 55.2067 199.335 55.1988 199.439C55.0551 201.834 54.4005 204.571 52.0059 205.138C51.934 205.138 51.9261 205.274 52.0059 205.274C54.9354 205.178 55.7096 201.554 55.4223 199.239Z" fill="#1F2937"/>
<path d="M53.3149 196.51C49.1163 195.807 48.0307 203.518 51.926 204.164C55.8213 204.811 56.8431 197.084 53.3149 196.51Z" fill="#1F2937"/>
<path d="M59.5571 207.557C60.3553 207.804 65.5756 206.144 65.1446 204.548C64.7056 202.823 57.3141 202.416 56.3642 203.534C55.4143 204.651 58.7668 207.301 59.5571 207.557Z" fill="#1F2937"/>
<path d="M66.1183 211.684C65.2785 212.318 64.3835 212.877 63.4443 213.352C62.9953 213.593 62.4999 213.734 61.9915 213.767C61.6882 213.823 61.4328 213.416 61.2572 213.025C60.9386 212.204 60.7162 211.35 60.5946 210.478C60.435 209.608 60.3472 208.714 60.2514 207.844L60.004 205.449L59.2776 207.804C59.0541 208.531 58.7907 209.257 58.5272 209.983C58.2625 210.707 57.9478 211.411 57.5854 212.091C57.4967 212.26 57.3925 212.42 57.274 212.57C57.177 212.719 57.0524 212.849 56.9069 212.953C56.7703 213.018 56.6154 213.035 56.4678 213.001C56.2671 212.945 56.074 212.864 55.8931 212.761C55.1779 212.296 54.5396 211.723 54.0013 211.061C54.3879 211.821 54.9321 212.491 55.5978 213.025C55.8063 213.186 56.0413 213.31 56.2922 213.392C56.4464 213.43 56.6043 213.452 56.7632 213.456C56.9406 213.457 57.1157 213.416 57.274 213.336C57.4976 213.212 57.6975 213.05 57.8647 212.857C58.0096 212.693 58.1429 212.52 58.2638 212.338C58.7093 211.659 59.0913 210.94 59.4053 210.191C59.7246 209.465 59.996 208.73 60.2035 207.988L59.2217 207.916C59.2925 208.819 59.4151 209.717 59.5889 210.606C59.6771 211.059 59.789 211.506 59.9241 211.947C60.0558 212.409 60.2351 212.855 60.4589 213.28C60.5834 213.52 60.7421 213.74 60.9299 213.935C61.0508 214.059 61.1944 214.159 61.3529 214.23C61.4561 214.279 61.5666 214.312 61.6802 214.326C61.7783 214.338 61.8775 214.338 61.9756 214.326C62.5909 214.26 63.1818 214.05 63.6997 213.711C64.5983 213.154 65.4128 212.471 66.1183 211.684Z" fill="#1F2937"/>
<path d="M26.0238 239.302C29.1941 239.117 32.375 239.334 35.4907 239.948C32.3204 240.132 29.1396 239.915 26.0238 239.302Z" fill="#1F2937"/>
<path d="M49.0046 244.354C50.5018 244.875 51.9607 245.499 53.3709 246.222C54.7914 246.921 56.1599 247.722 57.4658 248.617C54.4765 247.556 51.6336 246.121 49.0046 244.346V244.354Z" fill="#1F2937"/>
<path d="M31.0925 255.354C32.663 252.595 34.5781 250.047 36.7918 247.771C36.0191 249.163 35.1467 250.496 34.1816 251.762C33.2389 253.032 32.2066 254.232 31.0925 255.354Z" fill="#1F2937"/>
<path d="M22.1125 229.867C23.3498 230.258 24.5551 230.705 25.7524 231.168C26.9498 231.631 28.1471 232.126 29.3284 232.629C30.5098 233.131 31.7231 233.65 32.8486 234.225C33.9741 234.8 35.1794 235.335 36.3129 235.957C35.0756 235.558 33.8703 235.111 32.673 234.648C31.4757 234.185 30.2783 233.69 29.097 233.187C27.9156 232.684 26.7023 232.166 25.5768 231.591C24.4513 231.016 23.254 230.481 22.1125 229.867Z" fill="#1F2937"/>
<path d="M50.1539 236.939C51.266 236.38 52.4253 235.921 53.6182 235.566C54.8021 235.19 56.0177 234.923 57.2501 234.768C55.0203 235.879 52.6229 236.615 50.1539 236.947V236.939Z" fill="#1F2937"/>
<path d="M38.6755 232.9C38.021 231.862 37.4303 230.801 36.8476 229.707C36.2649 228.614 35.7061 227.552 35.1554 226.458C34.6046 225.365 34.0778 224.271 33.5589 223.154C33.0401 222.036 32.5612 220.927 32.1301 219.777C32.7847 220.815 33.3833 221.885 33.966 222.97C34.5487 224.056 35.1075 225.125 35.6583 226.211C36.209 227.297 36.7279 228.398 37.2547 229.516C37.7815 230.633 38.2445 231.751 38.6755 232.9Z" fill="#1F2937"/>
<path d="M54.8395 258.148C54.1291 257.35 53.4666 256.479 52.82 255.625C52.1734 254.771 51.5508 253.885 50.9282 253.007C50.3056 252.129 49.7229 251.227 49.1562 250.309C48.5894 249.391 48.0227 248.473 47.5118 247.523C48.2223 248.322 48.8848 249.192 49.5313 250.046C50.1779 250.9 50.8085 251.786 51.4231 252.664C52.0377 253.542 52.6284 254.444 53.1952 255.362C53.7619 256.28 54.3286 257.19 54.8395 258.148Z" fill="#1F2937"/>
<path d="M269.512 58.0823H203.532L198.423 13.2703H264.404L269.512 58.0823Z" fill="#D1D5DB"/>
<path d="M265.921 55.081H206.445L202.023 16.2795H261.498L265.921 55.081Z" fill="#F3F4F6"/>
<path d="M229.186 36.69L228.237 37.8235L218.881 29.7455L219.831 28.6121L229.186 36.69Z" fill="#FF850A"/>
<path d="M226.776 28.6121L228.085 29.7455L221.292 37.8235L219.983 36.69L226.776 28.6121Z" fill="#FF850A"/>
<path d="M249.19 36.69L248.24 37.8235L238.885 29.7455L239.835 28.6121L249.19 36.69Z" fill="#FF850A"/>
<path d="M246.779 28.6121L248.088 29.7455L241.295 37.8235L239.986 36.69L246.779 28.6121Z" fill="#FF850A"/>
<path d="M217.684 44.4565L217.429 42.8601H253.692L253.947 44.4565H217.684Z" fill="#FF850A"/>
<path d="M288.877 55.0811H203.995V58.0903H288.877V55.0811Z" fill="#D1D5DB"/>
<path d="M296.045 55.0811H222.433V58.0903H296.045V55.0811Z" fill="#9CA3AF"/>
<path d="M261.714 18.1633L261.498 16.2795H202.023L202.239 18.1633H261.714Z" fill="#1F2937"/>
<path d="M207.028 17.2214C207.037 17.3424 207.09 17.456 207.177 17.5411C207.263 17.6261 207.378 17.6771 207.499 17.6844C207.555 17.6833 207.611 17.6697 207.661 17.6447C207.712 17.6196 207.756 17.5837 207.792 17.5394C207.827 17.4952 207.852 17.4437 207.864 17.3888C207.877 17.3338 207.878 17.2767 207.866 17.2214C207.859 17.099 207.806 16.9836 207.72 16.8968C207.633 16.8101 207.518 16.758 207.395 16.7505C207.338 16.7528 207.283 16.7674 207.232 16.7933C207.182 16.8193 207.137 16.856 207.102 16.9008C207.067 16.9456 207.043 16.9975 207.03 17.0529C207.017 17.1083 207.016 17.1658 207.028 17.2214Z" fill="#9CA3AF"/>
<path d="M205.304 17.2214C205.315 17.3431 205.369 17.4568 205.457 17.5417C205.545 17.6267 205.661 17.6773 205.783 17.6844C205.839 17.6819 205.893 17.6675 205.943 17.642C205.993 17.6165 206.037 17.5806 206.072 17.5367C206.107 17.4928 206.132 17.4419 206.145 17.3875C206.159 17.3332 206.16 17.2765 206.15 17.2214C206.141 17.0996 206.088 16.9851 206.002 16.8987C205.915 16.8123 205.801 16.7597 205.679 16.7505C205.622 16.753 205.566 16.7676 205.515 16.7935C205.464 16.8194 205.42 16.8559 205.384 16.9005C205.349 16.9452 205.323 16.9969 205.309 17.0523C205.295 17.1076 205.293 17.1653 205.304 17.2214Z" fill="#F3F4F6"/>
<path d="M203.588 17.2214C203.597 17.3424 203.65 17.456 203.736 17.5411C203.823 17.6261 203.937 17.6771 204.058 17.6844C204.115 17.6833 204.17 17.6697 204.221 17.6447C204.272 17.6196 204.316 17.5837 204.351 17.5394C204.386 17.4952 204.411 17.4437 204.424 17.3888C204.437 17.3338 204.437 17.2767 204.426 17.2214C204.418 17.099 204.366 16.9836 204.279 16.8968C204.193 16.8101 204.077 16.758 203.955 16.7505C203.898 16.7528 203.842 16.7674 203.792 16.7933C203.741 16.8193 203.697 16.856 203.662 16.9008C203.627 16.9456 203.602 16.9975 203.589 17.0529C203.576 17.1083 203.576 17.1658 203.588 17.2214Z" fill="#FF850A"/>
</svg>
