<svg width="28" height="40" viewBox="0 0 28 40" fill="none" xmlns="http://www.w3.org/2000/svg">
  <path
    d="M25.5562 14.1969C25.3752 13.802 25.1448 13.4095 24.8557 13.0228C24.0425 11.9298 22.7709 10.885 20.8529 9.99538C13.2267 6.76818 7.60676 10.1587 5.39966 11.8076C4.98715 12.1155 4.69334 12.3635 4.52881 12.4951C4.80616 12.2918 5.13171 12.1002 5.49838 11.9228C9.4272 10.0165 18.0299 9.73566 22.1292 14.5953C22.651 15.2134 23.0987 15.9151 23.456 16.706C23.5771 16.9763 23.6887 17.2572 23.7874 17.5475C24.053 18.3231 24.2364 19.1763 24.3257 20.1107C24.3739 20.6101 24.395 21.1319 24.3856 21.6784C24.3492 22.0557 27.332 18.0669 25.5562 14.1969Z"
    fill="#F9FAFB" />
  <path
    d="M2.7565 35.056C2.69891 35.029 2.6331 35.0043 2.56023 34.9796C2.48737 34.9549 2.40628 34.942 2.31696 34.9397C2.24057 34.9397 2.17828 34.9573 2.1301 34.9925C2.07839 35.0278 2.05136 35.0842 2.05136 35.163C2.05136 35.2017 2.06428 35.237 2.09014 35.2687C2.11364 35.3016 2.1442 35.3334 2.18298 35.3639C2.26642 35.4203 2.36279 35.4767 2.47092 35.5343C2.57904 35.5919 2.67541 35.6636 2.75767 35.7471C2.84229 35.8328 2.88578 35.9433 2.88813 36.0785C2.88578 36.2465 2.82584 36.3746 2.70949 36.4616C2.59314 36.5497 2.43683 36.5932 2.24057 36.5932C2.12657 36.5909 2.0255 36.5791 1.93618 36.558C1.84569 36.5368 1.78575 36.5227 1.7552 36.5157V36.1972C1.81043 36.2324 1.8786 36.2689 1.96204 36.3076C2.04783 36.3499 2.1442 36.3723 2.2535 36.3746C2.36867 36.3735 2.44976 36.3452 2.49795 36.29C2.54026 36.2395 2.56141 36.1831 2.56141 36.122C2.56023 36.0232 2.51675 35.9433 2.43213 35.881C2.34869 35.8176 2.2535 35.7565 2.1442 35.6989C2.0349 35.6413 1.93853 35.5731 1.85509 35.4944C1.7693 35.4168 1.72464 35.3146 1.72346 35.1888C1.72464 35.0266 1.78458 34.9068 1.90093 34.8315C2.01492 34.7575 2.15595 34.7211 2.32636 34.7211C2.42626 34.7211 2.51557 34.7269 2.59314 34.7399C2.66953 34.7516 2.72359 34.7622 2.7565 34.7704V35.056Z"
    fill="#F9FAFB" />
  <path
    d="M3.63781 36.5934C3.28288 36.5852 3.10425 36.3678 3.10307 35.9388C3.10425 35.5098 3.28288 35.2912 3.63781 35.2842C3.99273 35.2912 4.17137 35.5087 4.17254 35.9388C4.17019 36.3678 3.99273 36.5852 3.63781 36.5934ZM3.40276 35.94C3.40276 35.9975 3.40628 36.0528 3.41216 36.1057C3.41686 36.1574 3.42744 36.2056 3.44272 36.249C3.46035 36.2914 3.48503 36.3243 3.51793 36.3489C3.54849 36.3748 3.58845 36.3889 3.63781 36.3889C3.68834 36.3889 3.73065 36.376 3.76238 36.3489C3.79294 36.3243 3.81644 36.2914 3.83172 36.249C3.84817 36.2056 3.85993 36.1574 3.86698 36.1057C3.8705 36.0528 3.87168 35.9975 3.87168 35.94C3.87285 35.8166 3.85993 35.712 3.83172 35.625C3.81644 35.5839 3.79294 35.5498 3.76238 35.5251C3.72948 35.5016 3.68834 35.491 3.63781 35.491C3.58845 35.491 3.54849 35.5028 3.51793 35.5251C3.48503 35.5498 3.46035 35.5827 3.44272 35.625C3.41451 35.712 3.40041 35.8166 3.40276 35.94Z"
    fill="#F9FAFB" />
  <path
    d="M5.41475 36.5346C5.30781 36.5711 5.18911 36.591 5.05983 36.5934C4.87532 36.5934 4.72136 36.537 4.59796 36.4242C4.47456 36.3137 4.41227 36.1339 4.40992 35.8836C4.40757 35.7155 4.45223 35.5745 4.54155 35.4605C4.63087 35.3465 4.7719 35.2877 4.96464 35.2842C5.05631 35.2842 5.13387 35.2959 5.19498 35.3206C5.25257 35.3453 5.2984 35.3794 5.33366 35.424C5.35247 35.4452 5.36774 35.4675 5.3795 35.4898C5.39125 35.5169 5.40065 35.5439 5.4077 35.5721C5.41945 35.6274 5.42533 35.6849 5.42533 35.7425H5.12564C5.12564 35.6791 5.11507 35.6215 5.09391 35.5698C5.06806 35.5181 5.01752 35.4922 4.94348 35.4898C4.86709 35.491 4.80951 35.5239 4.77072 35.5874C4.73076 35.652 4.71078 35.7343 4.71078 35.8318C4.71078 35.8941 4.72019 35.9576 4.73899 36.0222C4.75779 36.0869 4.786 36.148 4.82361 36.2032C4.86474 36.2561 4.91528 36.2996 4.97756 36.3325C5.04103 36.3689 5.11742 36.3877 5.21026 36.3877C5.29018 36.3877 5.35834 36.3772 5.41475 36.356V36.5346Z"
    fill="#F9FAFB" />
  <path
    d="M5.66992 34.752H5.95198V35.0387H5.66992V34.752ZM5.66992 35.3137H5.95198V36.5642H5.66992V35.3137Z"
    fill="#F9FAFB" />
  <path
    d="M7.21193 36.543C7.11321 36.5759 7.00039 36.5936 6.87229 36.5936C6.46918 36.5877 6.26469 36.3468 6.26234 35.8731C6.26116 35.6957 6.30112 35.5523 6.38456 35.4465C6.468 35.3408 6.60081 35.2879 6.78297 35.2855C7.08971 35.2937 7.24249 35.463 7.24249 35.7909V35.8614H6.52442C6.52442 35.9049 6.53264 35.9566 6.5491 36.0142C6.5585 36.0424 6.56908 36.0718 6.58083 36.1011C6.59376 36.1282 6.60903 36.1575 6.62666 36.1869C6.66192 36.2433 6.70893 36.2903 6.76652 36.3268C6.82645 36.3667 6.89814 36.3879 6.98158 36.3879C7.07795 36.3844 7.15552 36.3691 7.21311 36.3397V36.543H7.21193ZM6.97571 35.6863C6.97688 35.6428 6.96513 35.5958 6.9381 35.5452C6.92165 35.5229 6.90049 35.5041 6.87346 35.49C6.84526 35.4759 6.80765 35.4689 6.76064 35.4689C6.67837 35.4712 6.61961 35.4971 6.582 35.5488C6.54675 35.5981 6.52794 35.644 6.52442 35.6851H6.97571V35.6863Z"
    fill="#F9FAFB" />
  <path
    d="M8.20126 36.3923H8.19539C8.18246 36.4311 8.14838 36.4722 8.09314 36.5169C8.0379 36.5639 7.97091 36.5886 7.89335 36.5933C7.73469 36.5886 7.6254 36.5227 7.56546 36.3958C7.50552 36.2689 7.47731 36.1173 7.47849 35.9387C7.47849 35.7506 7.51257 35.5955 7.58074 35.4733C7.64537 35.3487 7.74997 35.2864 7.89453 35.284C7.94036 35.284 7.98032 35.2887 8.01675 35.2993C8.05083 35.3134 8.07904 35.3299 8.10137 35.3499C8.14838 35.3898 8.18011 35.4274 8.19774 35.4627H8.20361V34.7505H8.48567V36.5627H8.20361V36.3923H8.20126ZM7.77818 35.9398C7.77818 35.9868 7.7817 36.0362 7.78758 36.0867C7.79228 36.1384 7.80168 36.1855 7.81461 36.2266C7.82989 36.2689 7.85104 36.3018 7.87807 36.3265C7.90745 36.3535 7.94271 36.3676 7.98502 36.3676C8.02615 36.3676 8.06023 36.3535 8.08726 36.3265C8.11429 36.3018 8.13662 36.2677 8.15425 36.2266C8.18481 36.1396 8.20009 36.0444 8.20009 35.9398C8.20009 35.82 8.18481 35.7189 8.15425 35.6366C8.12135 35.5544 8.06493 35.512 7.98502 35.5109C7.93918 35.5109 7.90393 35.5226 7.87807 35.5473C7.85104 35.572 7.82989 35.6049 7.81461 35.6448C7.80168 35.6848 7.79228 35.7306 7.78758 35.7823C7.7817 35.8317 7.77818 35.8846 7.77818 35.9398Z"
    fill="#F9FAFB" />
  <path
    d="M9.48237 36.4195H9.47767C9.46004 36.4594 9.42831 36.4982 9.38013 36.5346C9.35427 36.5511 9.32372 36.564 9.28846 36.5746C9.2532 36.5852 9.21089 36.591 9.16153 36.5934C9.05811 36.591 8.97232 36.5605 8.90651 36.5041C8.83834 36.4441 8.80426 36.3654 8.80426 36.2655C8.80544 36.1621 8.83364 36.081 8.88888 36.0211C8.94176 35.9635 9.00523 35.9223 9.08162 35.8977C9.15918 35.873 9.2344 35.8565 9.30726 35.8506C9.38248 35.8436 9.44006 35.8412 9.48237 35.8436V35.7202C9.48237 35.6556 9.4718 35.6015 9.45182 35.5568C9.42831 35.5145 9.38248 35.4922 9.31314 35.4898C9.23792 35.491 9.18856 35.5133 9.16271 35.5545C9.13685 35.5944 9.1251 35.6379 9.12628 35.6826H8.85245C8.85245 35.424 9.0064 35.2912 9.31314 35.2842C9.60812 35.2865 9.75385 35.4158 9.75268 35.6732V36.5628H9.48355V36.4195H9.48237ZM9.07809 36.2385C9.07809 36.3384 9.12863 36.3889 9.22852 36.3889C9.27436 36.3889 9.31431 36.376 9.3484 36.3513C9.37895 36.329 9.40481 36.2996 9.42596 36.262C9.44594 36.2232 9.46122 36.1832 9.4718 36.1409C9.47885 36.0974 9.48237 36.054 9.48237 36.0128C9.38483 36.0128 9.29551 36.0281 9.21442 36.0598C9.17564 36.0775 9.14391 36.101 9.11923 36.1304C9.09102 36.1597 9.07809 36.1962 9.07809 36.2385Z"
    fill="#F9FAFB" />
  <path
    d="M10.7787 36.3923H10.7728C10.7599 36.4311 10.7258 36.4722 10.6706 36.5169C10.6153 36.5639 10.5483 36.5886 10.4708 36.5933C10.3121 36.5886 10.2028 36.5227 10.1429 36.3958C10.0829 36.2689 10.0536 36.1173 10.0559 35.9387C10.0559 35.7506 10.09 35.5955 10.1582 35.4733C10.2228 35.3487 10.3274 35.2864 10.4708 35.284C10.5166 35.284 10.5566 35.2887 10.593 35.2993C10.6271 35.3134 10.6553 35.3299 10.6776 35.3499C10.7246 35.3898 10.7564 35.4274 10.7728 35.4627H10.7787V34.7505H11.0607V36.5627H10.7787V36.3923ZM10.3556 35.9398C10.3556 35.9868 10.3591 36.0362 10.365 36.0867C10.3697 36.1384 10.3791 36.1855 10.392 36.2266C10.4073 36.2689 10.4285 36.3018 10.4555 36.3265C10.4849 36.3535 10.5201 36.3676 10.5624 36.3676C10.6036 36.3676 10.6377 36.3535 10.6647 36.3265C10.6917 36.3018 10.7141 36.2677 10.7317 36.2266C10.7622 36.1396 10.7775 36.0444 10.7775 35.9398C10.7775 35.82 10.7622 35.7189 10.7317 35.6366C10.6988 35.5544 10.6424 35.512 10.5624 35.5109C10.5166 35.5109 10.4814 35.5226 10.4555 35.5473C10.4285 35.572 10.4073 35.6049 10.392 35.6448C10.3791 35.6848 10.3697 35.7306 10.365 35.7823C10.3591 35.8317 10.3556 35.8846 10.3556 35.9398Z"
    fill="#F9FAFB" />
  <path
    d="M12.3194 36.543C12.2206 36.5759 12.1078 36.5936 11.9797 36.5936C11.5754 36.5877 11.3721 36.3468 11.3686 35.8731C11.3674 35.6957 11.4074 35.5523 11.4908 35.4465C11.5743 35.3408 11.7071 35.2879 11.8892 35.2855C12.196 35.2937 12.3487 35.463 12.3487 35.7909V35.8614H11.6307C11.6307 35.9049 11.6389 35.9566 11.6554 36.0142C11.6648 36.0424 11.6753 36.0718 11.6871 36.1011C11.7 36.1282 11.7153 36.1575 11.7329 36.1869C11.7682 36.2433 11.8152 36.2903 11.8728 36.3268C11.9327 36.3667 12.0044 36.3879 12.0878 36.3879C12.1842 36.3844 12.2618 36.3691 12.3194 36.3397V36.543ZM12.082 35.6863C12.0831 35.6428 12.0714 35.5958 12.0444 35.5452C12.0279 35.5229 12.0068 35.5041 11.9797 35.49C11.9515 35.4759 11.9139 35.4689 11.8669 35.4689C11.7846 35.4712 11.7259 35.4971 11.6883 35.5488C11.653 35.5981 11.6342 35.644 11.6307 35.6851H12.082V35.6863Z"
    fill="#F9FAFB" />
  <path
    d="M13.4453 34.752H13.9847C14.0341 34.752 14.087 34.7567 14.1446 34.7649C14.2022 34.7731 14.2562 34.7931 14.3067 34.8248C14.3573 34.853 14.3996 34.8965 14.4337 34.9541C14.4654 35.0117 14.4819 35.0857 14.4819 35.1774C14.4819 35.2491 14.4725 35.309 14.4537 35.3584C14.4337 35.4077 14.4078 35.4477 14.3761 35.4794C14.3103 35.5394 14.248 35.5781 14.1904 35.5946V35.5993C14.2304 35.604 14.2727 35.6134 14.3173 35.6287C14.362 35.6451 14.4019 35.6722 14.4395 35.7074C14.4783 35.7403 14.5112 35.7862 14.5371 35.8449C14.5618 35.9002 14.5735 35.973 14.5735 36.0635C14.5724 36.174 14.5535 36.2621 14.5206 36.3268C14.4854 36.3949 14.4372 36.4455 14.3773 36.4784C14.3197 36.5113 14.2562 36.5348 14.188 36.5477C14.1187 36.5595 14.0517 36.5653 13.9871 36.5653H13.4453V34.752ZM13.7426 35.4959H13.8613C13.9083 35.4959 13.9518 35.4924 13.9918 35.4841C14.0306 35.4771 14.0635 35.4653 14.0917 35.4477C14.1199 35.4301 14.1422 35.403 14.1575 35.3654C14.1728 35.3325 14.1798 35.2867 14.1798 35.2291C14.1798 35.1715 14.1728 35.1245 14.1598 35.0892C14.1446 35.0563 14.1222 35.0305 14.094 35.014C14.067 34.9941 14.0341 34.9811 13.9941 34.9741C13.973 34.9705 13.953 34.9694 13.933 34.9694C13.9107 34.9694 13.886 34.9694 13.8613 34.9694H13.7426V35.4959ZM13.7426 36.3456H13.8625C13.913 36.3456 13.9624 36.3409 14.0118 36.3326C14.0588 36.3256 14.1034 36.3115 14.1434 36.2903C14.1822 36.268 14.2139 36.2351 14.2374 36.1928C14.2597 36.1528 14.2715 36.0999 14.2715 36.0353C14.2703 35.9166 14.2339 35.8332 14.1634 35.7838C14.0905 35.7356 13.9906 35.7121 13.8637 35.7121H13.7438V36.3456H13.7426Z"
    fill="#F9FAFB" />
  <path
    d="M14.893 35.3137H15.175V35.5452H15.1809C15.1974 35.5147 15.2173 35.483 15.2397 35.4512C15.2597 35.4218 15.2832 35.3936 15.3102 35.369C15.3666 35.3149 15.4536 35.2879 15.5723 35.2855V35.5911C15.3008 35.5876 15.1692 35.7298 15.175 36.0165V36.5654H14.893V35.3137Z"
    fill="#F9FAFB" />
  <path
    d="M16.4386 36.4195H16.4339C16.4163 36.4594 16.3846 36.4982 16.3364 36.5346C16.3105 36.5511 16.28 36.564 16.2447 36.5746C16.2094 36.5852 16.1671 36.591 16.1178 36.5934C16.0144 36.591 15.9286 36.5605 15.8627 36.5041C15.7946 36.4441 15.7605 36.3654 15.7605 36.2655C15.7617 36.1621 15.7899 36.081 15.8451 36.0211C15.898 35.9635 15.9615 35.9223 16.0379 35.8977C16.1154 35.873 16.1906 35.8565 16.2635 35.8506C16.3387 35.8436 16.3963 35.8412 16.4386 35.8436V35.7202C16.4386 35.6556 16.428 35.6015 16.4081 35.5568C16.3845 35.5145 16.3387 35.4922 16.2682 35.4898C16.1942 35.491 16.1436 35.5133 16.1178 35.5545C16.0919 35.5944 16.0802 35.6379 16.0813 35.6826H15.8075C15.8075 35.424 15.9615 35.2912 16.2682 35.2842C16.5632 35.2865 16.7089 35.4158 16.7077 35.6732V36.5628H16.4386V36.4195ZM16.0343 36.2385C16.0343 36.3384 16.0849 36.3889 16.1848 36.3889C16.2306 36.3889 16.2706 36.376 16.3046 36.3513C16.3352 36.329 16.361 36.2996 16.3822 36.262C16.4022 36.2232 16.4175 36.1832 16.428 36.1409C16.4351 36.0974 16.4374 36.054 16.4374 36.0128C16.3399 36.0128 16.2506 36.0281 16.1695 36.0598C16.1307 36.0775 16.099 36.101 16.0743 36.1304C16.0484 36.1597 16.0343 36.1962 16.0343 36.2385Z"
    fill="#F9FAFB" />
  <path
    d="M17.7126 35.5793C17.6962 35.5687 17.6633 35.5522 17.6151 35.5287C17.5657 35.5087 17.5081 35.497 17.4423 35.4958C17.3965 35.4958 17.3553 35.5052 17.3177 35.524C17.2743 35.5452 17.2531 35.5746 17.2531 35.611C17.2531 35.6286 17.2625 35.6462 17.279 35.6662C17.2942 35.6862 17.3142 35.7062 17.3401 35.7238C17.3918 35.7591 17.4517 35.7979 17.5199 35.8425C17.5892 35.8848 17.6515 35.9354 17.7044 35.9953C17.7561 36.0541 17.7831 36.1281 17.7855 36.2186C17.7843 36.3455 17.742 36.4395 17.6586 36.4995C17.5751 36.5629 17.4658 36.5947 17.3283 36.5947C17.2472 36.5923 17.1802 36.5853 17.1297 36.5759C17.078 36.5641 17.0369 36.5535 17.0075 36.5453V36.2938C17.0275 36.3009 17.0498 36.3079 17.0756 36.3173C17.0991 36.3291 17.1238 36.3373 17.1485 36.3443C17.2026 36.3608 17.259 36.3702 17.3154 36.3702C17.3565 36.3702 17.4 36.3631 17.447 36.349C17.4964 36.3349 17.5222 36.3044 17.5246 36.2562C17.5222 36.2198 17.4952 36.1822 17.4447 36.1434C17.3941 36.1069 17.3342 36.067 17.2649 36.0223C17.2343 35.9988 17.2026 35.9753 17.1708 35.9495C17.1403 35.9224 17.1121 35.8942 17.0862 35.8648C17.0322 35.8061 17.0051 35.7356 17.0028 35.6545C17.0028 35.5358 17.0427 35.4441 17.1227 35.3806C17.2002 35.3184 17.306 35.2866 17.4388 35.2866C17.4999 35.289 17.554 35.2937 17.6021 35.3019C17.648 35.3137 17.6856 35.3242 17.7138 35.3336V35.5793H17.7126Z"
    fill="#F9FAFB" />
  <path
    d="M18.0722 34.752H18.3542V35.0387H18.0722V34.752ZM18.0722 35.3137H18.3542V36.5642H18.0722V35.3137Z"
    fill="#F9FAFB" />
  <path d="M18.7514 34.752H19.0334V36.5642H18.7514V34.752Z" fill="#F9FAFB" />
  <path
    d="M20.2945 36.543C20.1957 36.5759 20.0829 36.5936 19.9548 36.5936C19.5505 36.5877 19.3472 36.3468 19.3437 35.8731C19.3425 35.6957 19.3825 35.5523 19.4659 35.4465C19.5494 35.3408 19.6822 35.2879 19.8643 35.2855C20.1711 35.2937 20.3238 35.463 20.3238 35.7909V35.8614H19.6058C19.6058 35.9049 19.614 35.9566 19.6304 36.0142C19.6398 36.0424 19.6504 36.0718 19.6622 36.1011C19.6751 36.1282 19.6904 36.1575 19.708 36.1869C19.7433 36.2433 19.7903 36.2903 19.8479 36.3268C19.9078 36.3667 19.9795 36.3879 20.0629 36.3879C20.1593 36.3844 20.2369 36.3691 20.2945 36.3397V36.543ZM20.0582 35.6863C20.0606 35.6428 20.0477 35.5958 20.0206 35.5452C20.0042 35.5229 19.983 35.5041 19.956 35.49C19.9278 35.4759 19.8902 35.4689 19.8432 35.4689C19.7609 35.4712 19.7021 35.4971 19.6645 35.5488C19.6293 35.5981 19.6105 35.644 19.6069 35.6851H20.0582V35.6863Z"
    fill="#F9FAFB" />
  <path
    d="M20.6484 34.752H20.9304V35.0387H20.6484V34.752ZM20.6484 35.3137H20.9304V36.5642H20.6484V35.3137Z"
    fill="#F9FAFB" />
  <path
    d="M21.3099 35.3137H21.592V35.5452H21.5978C21.6143 35.5147 21.6343 35.483 21.6566 35.4512C21.6766 35.4218 21.7001 35.3936 21.7271 35.369C21.7835 35.3149 21.8705 35.2879 21.9892 35.2855V35.5911C21.7177 35.5876 21.5861 35.7298 21.592 36.0165V36.5654H21.3099V35.3137Z"
    fill="#F9FAFB" />
  <path
    d="M22.8554 36.4195H22.8507C22.8331 36.4594 22.8013 36.4982 22.7531 36.5346C22.7273 36.5511 22.6967 36.564 22.6615 36.5746C22.6262 36.5852 22.5839 36.591 22.5346 36.5934C22.4311 36.591 22.3453 36.5605 22.2795 36.5041C22.2114 36.4441 22.1773 36.3654 22.1773 36.2655C22.1785 36.1621 22.2067 36.081 22.2619 36.0211C22.3148 35.9635 22.3782 35.9223 22.4546 35.8977C22.5322 35.873 22.6074 35.8565 22.6803 35.8506C22.7555 35.8436 22.8131 35.8412 22.8554 35.8436V35.7202C22.8554 35.6556 22.8448 35.6015 22.8248 35.5568C22.8013 35.5145 22.7555 35.4922 22.685 35.4898C22.6098 35.491 22.5604 35.5133 22.5346 35.5545C22.5087 35.5944 22.4969 35.6379 22.4981 35.6826H22.2243C22.2243 35.424 22.3782 35.2912 22.685 35.2842C22.98 35.2865 23.1257 35.4158 23.1245 35.6732V36.5628H22.8554V36.4195ZM22.4511 36.2385C22.4511 36.3384 22.5016 36.3889 22.6015 36.3889C22.6474 36.3889 22.6873 36.376 22.7214 36.3513C22.752 36.329 22.7778 36.2996 22.799 36.262C22.819 36.2232 22.8342 36.1832 22.8448 36.1409C22.8519 36.0974 22.8554 36.054 22.8554 36.0128C22.7578 36.0128 22.6685 36.0281 22.5874 36.0598C22.5487 36.0775 22.5169 36.101 22.4922 36.1304C22.4652 36.1597 22.4511 36.1962 22.4511 36.2385Z"
    fill="#F9FAFB" />
  <path
    d="M4.94139 38.8606H4.93551C4.92258 38.8994 4.8885 38.9406 4.83327 38.9852C4.77803 39.0322 4.71104 39.0581 4.63348 39.0616C4.47482 39.0569 4.36552 38.9911 4.30558 38.8642C4.24565 38.7372 4.21744 38.5856 4.21862 38.4082C4.21862 38.2201 4.2527 38.065 4.32086 37.9428C4.3855 37.8194 4.4901 37.7559 4.63348 37.7547C4.67931 37.7547 4.71927 37.7594 4.7557 37.77C4.78978 37.7841 4.81799 37.8006 4.84032 37.8206C4.88733 37.8605 4.91906 37.8981 4.93551 37.9334H4.94139V37.2212H5.22344V39.0334H4.94139V38.8606ZM4.5183 38.4082C4.5183 38.4552 4.52183 38.5045 4.5277 38.5551C4.5324 38.6068 4.54181 38.6526 4.55474 38.6949C4.57001 38.7372 4.59234 38.7702 4.6182 38.7948C4.64758 38.8219 4.68284 38.836 4.72514 38.836C4.76628 38.836 4.80036 38.8219 4.82739 38.7948C4.85442 38.7702 4.87675 38.7372 4.89438 38.6949C4.92494 38.608 4.94021 38.5128 4.94021 38.4082C4.94021 38.2883 4.92494 38.1872 4.89438 38.105C4.86147 38.0227 4.80506 37.9804 4.72514 37.9792C4.67931 37.9792 4.64405 37.991 4.6182 38.0157C4.59117 38.0403 4.57001 38.0732 4.55474 38.1132C4.54181 38.1532 4.5324 38.199 4.5277 38.2507C4.52183 38.3012 4.5183 38.3541 4.5183 38.4082Z"
    fill="#F9FAFB" />
  <path
    d="M6.48216 39.0123C6.38344 39.0452 6.27062 39.0629 6.14252 39.0629C5.73824 39.057 5.53492 38.8161 5.5314 38.3413C5.53022 38.1638 5.57018 38.0216 5.65362 37.9135C5.73706 37.8089 5.86987 37.7548 6.05203 37.7537C6.35876 37.7619 6.51155 37.9311 6.51155 38.259V38.3295H5.79347C5.79347 38.373 5.8017 38.4247 5.81816 38.4823C5.82756 38.5105 5.83813 38.5399 5.84989 38.5693C5.86281 38.5963 5.87809 38.6257 5.89572 38.6551C5.93098 38.7115 5.97799 38.7585 6.03557 38.7949C6.09551 38.8349 6.1672 38.8549 6.25064 38.8549C6.34701 38.8513 6.42458 38.8361 6.48216 38.8079V39.0123ZM6.24477 38.1556C6.24594 38.1121 6.23419 38.0651 6.20716 38.0146C6.19071 37.9922 6.16955 37.9734 6.14252 37.9593C6.11432 37.9452 6.07671 37.9382 6.0297 37.9382C5.94743 37.9393 5.88867 37.9664 5.85106 38.0181C5.81581 38.0675 5.797 38.1121 5.79347 38.1544H6.24477V38.1556Z"
    fill="#F9FAFB" />
  <path
    d="M8.75495 38.9568C8.73379 38.965 8.70911 38.9744 8.67973 38.985C8.64565 38.9991 8.60805 39.012 8.56691 39.0214C8.48229 39.0449 8.38592 39.059 8.2778 39.0614C8.02513 39.059 7.83944 38.972 7.72074 38.8005C7.59969 38.6301 7.53975 38.4021 7.53975 38.1165C7.53858 37.8438 7.59146 37.6217 7.70076 37.4525C7.80771 37.2809 7.98517 37.1939 8.23314 37.1892C8.43646 37.1916 8.58689 37.2433 8.68208 37.3443C8.7761 37.4466 8.82429 37.57 8.82429 37.7157H8.49405C8.49405 37.6793 8.49287 37.6417 8.48935 37.6052C8.48229 37.5688 8.46937 37.5347 8.45056 37.5053C8.43411 37.4748 8.40825 37.4513 8.37535 37.4325C8.34009 37.416 8.29308 37.4078 8.23549 37.4078C8.1591 37.409 8.09799 37.4313 8.04981 37.4724C8.00162 37.5124 7.96519 37.5653 7.94051 37.6311C7.91465 37.6981 7.89702 37.7686 7.88762 37.8438C7.87705 37.9214 7.87117 37.9966 7.87117 38.0695C7.86999 38.2892 7.90525 38.4679 7.97812 38.6065C8.04981 38.7476 8.17321 38.8181 8.34949 38.8193C8.45174 38.8181 8.53871 38.7981 8.61157 38.7617C8.68443 38.7288 8.7338 38.7029 8.75965 38.6853V38.9568H8.75495Z"
    fill="#F9FAFB" />
  <path
    d="M9.52111 39.0629C9.16619 39.0546 8.98755 38.8372 8.98637 38.4083C8.98755 37.9793 9.16619 37.7607 9.52111 37.7537C9.87603 37.7607 10.0547 37.9781 10.0558 38.4083C10.0547 38.8361 9.87603 39.0546 9.52111 39.0629ZM9.28606 38.4083C9.28606 38.4659 9.28959 38.5211 9.29546 38.574C9.30016 38.6257 9.31074 38.6739 9.32602 38.7174C9.34365 38.7597 9.36833 38.7926 9.40123 38.8173C9.43179 38.8443 9.47175 38.8572 9.52111 38.8572C9.57164 38.8572 9.61395 38.8443 9.64568 38.8173C9.67624 38.7926 9.69974 38.7597 9.71502 38.7174C9.73147 38.6739 9.74323 38.6257 9.75028 38.574C9.7538 38.5211 9.75498 38.4659 9.75498 38.4083C9.75616 38.2849 9.74323 38.1803 9.71502 38.0933C9.69974 38.051 9.67624 38.0181 9.64568 37.9934C9.61278 37.9711 9.57164 37.9593 9.52111 37.9593C9.47175 37.9593 9.43179 37.9711 9.40123 37.9934C9.36833 38.0181 9.34365 38.051 9.32602 38.0933C9.29781 38.1803 9.28488 38.286 9.28606 38.4083Z"
    fill="#F9FAFB" />
  <path
    d="M10.3532 37.7818H10.6353V37.9745H10.64C10.6506 37.9534 10.6635 37.9299 10.6788 37.9028C10.6952 37.8793 10.7164 37.8558 10.7422 37.8323C10.7681 37.8076 10.7998 37.7877 10.8362 37.7747C10.8727 37.7606 10.9173 37.7548 10.9679 37.7548C11.0466 37.7548 11.1136 37.7736 11.1688 37.8123C11.2253 37.8547 11.2629 37.9181 11.2817 38.0039H11.2875C11.3063 37.9522 11.3451 37.897 11.4027 37.8406C11.4603 37.7853 11.539 37.7559 11.6389 37.7548C11.7341 37.7548 11.814 37.7865 11.8799 37.8511C11.9433 37.9181 11.9751 38.0227 11.9774 38.1661V39.0334H11.6953V38.3177C11.6953 38.1931 11.6871 38.112 11.6707 38.0733C11.6519 38.0403 11.6154 38.0239 11.5625 38.0251C11.5191 38.0251 11.4815 38.0392 11.4497 38.0662C11.418 38.0956 11.3921 38.1355 11.3698 38.1825C11.3263 38.2801 11.3052 38.3823 11.3052 38.4893V39.0311H11.0231V38.3154C11.0231 38.1908 11.0149 38.1097 10.9984 38.0709C10.9796 38.038 10.9432 38.0215 10.8903 38.0227C10.8468 38.0227 10.8092 38.0368 10.7775 38.0638C10.7446 38.0932 10.7187 38.1332 10.6976 38.1802C10.6541 38.2777 10.6329 38.38 10.6329 38.4869V39.0287H10.3509V37.7818H10.3532Z"
    fill="#F9FAFB" />
  <path
    d="M12.3605 37.7819H12.6426V37.9546H12.6485C12.6649 37.9147 12.7002 37.8712 12.7554 37.8265C12.8071 37.7795 12.8718 37.7548 12.9482 37.7537C13.108 37.7572 13.2185 37.8218 13.2784 37.9476C13.3383 38.0745 13.3665 38.2273 13.3654 38.4083C13.3654 38.594 13.3325 38.7479 13.2678 38.8701C13.1997 38.9947 13.0927 39.0582 12.947 39.0629C12.9047 39.0629 12.8671 39.0558 12.833 39.0405C12.8001 39.03 12.7719 39.0159 12.746 38.9959C12.699 38.9559 12.6661 38.9183 12.6473 38.8842H12.6414V39.5953H12.3594V37.7819H12.3605ZM12.6426 38.4083C12.6414 38.5258 12.6567 38.6257 12.6884 38.708C12.7202 38.7914 12.7754 38.8349 12.8541 38.8361C12.9035 38.8361 12.9423 38.8231 12.9705 38.7973C12.9975 38.7726 13.0187 38.7397 13.0339 38.6997C13.0492 38.6574 13.0575 38.6116 13.061 38.5599C13.0645 38.5093 13.0657 38.4588 13.0657 38.4083C13.0657 38.3566 13.0645 38.306 13.061 38.2555C13.0563 38.2038 13.0457 38.1579 13.0316 38.118C13.0151 38.0757 12.9952 38.0416 12.9681 38.0146C12.9388 37.9911 12.9011 37.9781 12.8553 37.9781C12.8177 37.9781 12.7871 37.9899 12.7625 38.0146C12.7354 38.0416 12.7119 38.0757 12.6931 38.118C12.6579 38.2061 12.6426 38.3037 12.6426 38.4083Z"
    fill="#F9FAFB" />
  <path
    d="M14.3714 38.8008H14.3667C14.3596 38.8232 14.3467 38.849 14.3279 38.8784C14.3114 38.9078 14.2891 38.9372 14.2597 38.9654C14.2303 38.9912 14.1962 39.0136 14.1551 39.0335C14.1128 39.0535 14.0634 39.0629 14.007 39.0629C13.9154 39.0629 13.8401 39.03 13.7779 38.963C13.7132 38.8949 13.6803 38.7903 13.678 38.6504V37.7831H13.96V38.4988C13.96 38.6222 13.9694 38.7021 13.9871 38.7385C14.0047 38.775 14.0364 38.7926 14.0846 38.7914C14.1316 38.7914 14.1739 38.775 14.2092 38.7444C14.2444 38.7139 14.275 38.6763 14.2985 38.6316C14.3455 38.5352 14.3702 38.433 14.3702 38.326V37.7843H14.6522V39.0347H14.3702V38.8008H14.3714Z"
    fill="#F9FAFB" />
  <path
    d="M15.7605 39.0403C15.6841 39.0544 15.6066 39.0626 15.5278 39.0626C15.4503 39.0626 15.3868 39.0532 15.3375 39.0332C15.2881 39.0156 15.2493 38.9921 15.2235 38.9604C15.1999 38.9275 15.1823 38.8899 15.1729 38.8476C15.1623 38.8076 15.1565 38.7641 15.1565 38.7183V37.9861H14.9202V37.784H15.1565V37.4878L15.4385 37.3115V37.784H15.797V37.9861H15.4385V38.5773C15.4373 38.6536 15.4479 38.7183 15.4714 38.7712C15.4844 38.797 15.5032 38.8182 15.5278 38.8311C15.5537 38.8487 15.5878 38.8581 15.6301 38.8581C15.6771 38.8581 15.7206 38.8511 15.7605 38.8358V39.0403Z"
    fill="#F9FAFB" />
  <path
    d="M16.6337 38.8878H16.629C16.6114 38.9277 16.5797 38.9665 16.5315 39.0029C16.5056 39.0194 16.4751 39.0323 16.4398 39.0429C16.4046 39.0535 16.3623 39.0594 16.3129 39.0629C16.2095 39.0605 16.1237 39.03 16.0579 38.9736C15.9897 38.9136 15.9556 38.8349 15.9556 38.735C15.9568 38.6316 15.985 38.5505 16.0402 38.4905C16.0931 38.4329 16.1566 38.393 16.233 38.3671C16.3105 38.3425 16.3858 38.3272 16.4586 38.3201C16.5338 38.3131 16.5914 38.3107 16.6349 38.3119V38.1885C16.6349 38.1239 16.6243 38.0686 16.6044 38.0251C16.5809 37.9828 16.535 37.9605 16.4645 37.9582C16.3905 37.9593 16.3399 37.9817 16.3141 38.0228C16.2882 38.0627 16.2765 38.1062 16.2776 38.1509H16.0038C16.0038 37.8923 16.1578 37.7595 16.4645 37.7537C16.7595 37.7548 16.9052 37.8853 16.904 38.1427V39.0335H16.6349V38.8878H16.6337ZM16.2295 38.7068C16.2295 38.8067 16.28 38.8572 16.3799 38.8572C16.4257 38.8572 16.4657 38.8443 16.4998 38.8196C16.5303 38.7973 16.5562 38.7679 16.5773 38.7291C16.5973 38.6903 16.6126 38.6504 16.6232 38.6081C16.6302 38.5646 16.6326 38.5211 16.6326 38.48C16.535 38.48 16.4457 38.4964 16.3646 38.527C16.3258 38.5446 16.2941 38.5681 16.2694 38.5975C16.2424 38.6292 16.2295 38.6645 16.2295 38.7068Z"
    fill="#F9FAFB" />
  <path
    d="M17.5844 39.0229C17.3247 38.9489 17.1907 38.7268 17.1848 38.353C17.1836 38.185 17.2283 38.0439 17.32 37.9299C17.4105 37.8159 17.555 37.7572 17.7524 37.7537C17.8465 37.7537 17.9252 37.7654 17.9875 37.7901C18.0463 37.8148 18.0933 37.8489 18.1297 37.8935C18.1497 37.9147 18.165 37.937 18.1767 37.9593C18.1885 37.9864 18.1979 38.0134 18.2061 38.0416C18.2178 38.0968 18.2237 38.1544 18.2237 38.212H17.924C17.924 38.1485 17.9123 38.091 17.8899 38.0392C17.8629 37.9875 17.81 37.9617 17.7313 37.9593C17.6514 37.9605 17.5903 37.9934 17.5491 38.0569C17.5068 38.1215 17.4857 38.2038 17.4857 38.3013C17.4857 38.3636 17.4951 38.4271 17.515 38.4917C17.535 38.5563 17.5632 38.6175 17.602 38.6727C17.6431 38.7256 17.696 38.7691 17.7595 38.802C17.8241 38.8384 17.9029 38.8572 17.9969 38.8572C18.078 38.8572 18.1473 38.8466 18.2049 38.8255V39.0041C18.0968 39.0405 17.9781 39.0605 17.8476 39.0629C17.8065 39.0629 17.7677 39.0594 17.7301 39.0535L17.696 39.2039C17.7066 39.2027 17.7184 39.2016 17.7325 39.2016C17.7571 39.2016 17.783 39.2039 17.8124 39.2098C17.8418 39.2168 17.87 39.2298 17.8958 39.2497C17.924 39.2674 17.9452 39.2909 17.9605 39.3226C17.9769 39.3543 17.984 39.3931 17.984 39.4401C17.984 39.5153 17.9593 39.5776 17.9099 39.627C17.8617 39.6787 17.7854 39.7057 17.6819 39.7081C17.6314 39.7069 17.5903 39.6987 17.5585 39.6846C17.5268 39.6728 17.5021 39.6622 17.4845 39.6528V39.4871C17.5115 39.5036 17.5397 39.5189 17.5691 39.5318C17.5961 39.5459 17.629 39.5541 17.6667 39.5565C17.7101 39.5541 17.7395 39.54 17.7571 39.5142C17.776 39.4907 17.7854 39.466 17.7854 39.4401C17.783 39.3825 17.7618 39.3438 17.7207 39.325C17.6772 39.3062 17.6326 39.2979 17.5879 39.2991C17.5656 39.2991 17.5444 39.3026 17.5221 39.3097L17.5844 39.0229Z"
    fill="#F9FAFB" />
  <path
    d="M19.0628 38.8876H19.0581C19.0405 38.9276 19.0088 38.9664 18.9606 39.0028C18.9347 39.0193 18.9042 39.0322 18.8689 39.0428C18.8337 39.0534 18.7902 39.0592 18.742 39.0628C18.6386 39.0604 18.5528 39.0298 18.487 38.9734C18.4188 38.9135 18.3847 38.8348 18.3847 38.7349C18.3859 38.6314 18.4141 38.5504 18.4694 38.4904C18.5222 38.4328 18.5857 38.3929 18.6621 38.367C18.7397 38.3423 18.8149 38.3271 18.8877 38.32C18.963 38.313 19.0205 38.3106 19.0628 38.3118V38.1884C19.0628 38.1237 19.0523 38.0685 19.0311 38.025C19.0076 37.9827 18.9618 37.9604 18.8924 37.958C18.8184 37.9592 18.7679 37.9815 18.742 38.0227C18.7162 38.0626 18.7044 38.1061 18.7056 38.1508H18.4317C18.4317 37.8922 18.5857 37.7594 18.8924 37.7535C19.1874 37.7547 19.3332 37.8852 19.332 38.1425V39.0334H19.0628V38.8876ZM18.5469 37.5408C18.5457 37.4209 18.5563 37.3305 18.581 37.2717C18.6057 37.2118 18.6503 37.1824 18.7173 37.1824C18.7467 37.1824 18.7773 37.1918 18.809 37.2094C18.8431 37.2247 18.876 37.2447 18.9089 37.2693C18.943 37.2893 18.9724 37.3093 18.9982 37.3269C19.0229 37.3457 19.0429 37.3551 19.057 37.3551C19.0746 37.3563 19.0875 37.3469 19.0958 37.3246C19.0993 37.3011 19.1005 37.2623 19.1005 37.2071H19.2497C19.2497 37.3305 19.2403 37.4209 19.2227 37.4797C19.2004 37.5373 19.1522 37.5655 19.077 37.5655C19.0429 37.5655 19.0111 37.5573 18.9794 37.5396C18.9453 37.522 18.9136 37.5032 18.883 37.4844C18.8525 37.4609 18.8254 37.4421 18.8008 37.4268C18.7749 37.4127 18.7549 37.4057 18.7397 37.4057C18.7244 37.4057 18.7126 37.4151 18.7056 37.4327C18.6985 37.4515 18.6962 37.4879 18.6962 37.542H18.5469V37.5408ZM18.6586 38.7067C18.6586 38.8066 18.7091 38.8571 18.809 38.8571C18.8548 38.8571 18.8948 38.8442 18.9289 38.8195C18.9594 38.7971 18.9853 38.7678 19.0064 38.729C19.0264 38.6902 19.0417 38.6502 19.0523 38.6079C19.0593 38.5645 19.0617 38.521 19.0617 38.4798C18.9641 38.4798 18.8748 38.4963 18.7937 38.5268C18.7549 38.5445 18.7232 38.568 18.6985 38.5974C18.6727 38.6291 18.6586 38.6643 18.6586 38.7067Z"
    fill="#F9FAFB" />
  <path
    d="M20.1712 39.0629C19.8163 39.0546 19.6377 38.8372 19.6365 38.4083C19.6377 37.9793 19.8163 37.7607 20.1712 37.7537C20.5261 37.7607 20.7048 37.9781 20.706 38.4083C20.7048 38.8361 20.5261 39.0546 20.1712 39.0629ZM19.9362 38.4083C19.9362 38.4659 19.9397 38.5211 19.9456 38.574C19.9503 38.6257 19.9609 38.6739 19.9761 38.7174C19.9938 38.7597 20.0184 38.7926 20.0513 38.8173C20.0819 38.8443 20.1219 38.8572 20.1712 38.8572C20.2218 38.8572 20.2641 38.8443 20.2958 38.8173C20.3264 38.7926 20.3499 38.7597 20.3651 38.7174C20.3816 38.6739 20.3933 38.6257 20.4004 38.574C20.4039 38.5211 20.4051 38.4659 20.4051 38.4083C20.4063 38.2849 20.3933 38.1803 20.3651 38.0933C20.3499 38.051 20.3264 38.0181 20.2958 37.9934C20.2629 37.9711 20.2218 37.9593 20.1712 37.9593C20.1219 37.9593 20.0819 37.9711 20.0513 37.9934C20.0184 38.0181 19.9938 38.051 19.9761 38.0933C19.9479 38.1803 19.935 38.286 19.9362 38.4083Z"
    fill="#F9FAFB" />
  <path
    d="M12.1515 26.9258C12.3325 26.8941 12.4864 26.8388 12.6098 26.7613C12.7274 26.6872 12.8214 26.5673 12.8895 26.4075C12.9577 26.2547 12.9918 26.0408 12.9918 25.7694C12.9918 25.4908 12.9612 25.2675 12.8989 25.1065C12.8343 24.9714 12.7426 24.8656 12.6228 24.7927C12.4923 24.6999 12.3419 24.64 12.1644 24.6082C12.0681 24.5918 11.9705 24.5847 11.8777 24.5847H11.0456V26.9822H11.5098C11.7378 26.9834 11.9529 26.9634 12.1515 26.9258Z"
    fill="#F9FAFB" />
  <path
    d="M12.9647 28.73C12.6192 28.5055 12.1303 28.3892 11.5144 28.3892H11.0479V31.3308H11.5144C11.7612 31.3308 12.008 31.3096 12.2501 31.2673C12.4793 31.2344 12.6885 31.1674 12.8777 31.0664C13.0493 30.9653 13.1915 30.816 13.2984 30.6268C13.4007 30.4447 13.4524 30.1979 13.4524 29.8923C13.443 29.3329 13.2832 28.9521 12.9647 28.73Z"
    fill="#F9FAFB" />
  <path
    d="M23.7888 17.5473C19.8165 21.9439 6.67259 22.7384 0.638916 14.688C0.638916 16.2464 0.638916 28.7603 0.638916 33.8679H24.327C24.327 32.5575 24.327 24.6951 24.327 20.1105C24.2377 19.1762 24.0544 18.323 23.7888 17.5473ZM6.76191 32.1838C6.14256 32.6515 5.30696 32.8877 4.27863 32.8877H4.2751C3.68748 32.8748 3.15393 32.8137 2.68853 32.7067C2.22666 32.5974 1.91758 32.5258 1.76127 32.4905L1.64727 32.4646V30.4538L1.87292 30.5984C2.14557 30.7735 2.49579 30.9603 2.91183 31.1531C3.33021 31.3623 3.81088 31.4727 4.34209 31.481C4.88153 31.4727 5.26348 31.3446 5.4762 31.099C5.67011 30.8675 5.7653 30.6172 5.7653 30.3351C5.75708 29.8791 5.56081 29.5136 5.16241 29.2198C4.7452 28.9013 4.25747 28.5922 3.71099 28.2996C3.14335 28.0023 2.63565 27.6438 2.20316 27.2337C1.73541 26.8117 1.49214 26.2512 1.48274 25.5683C1.49096 24.6857 1.82003 24.03 2.45819 23.6139C3.06108 23.2237 3.81911 23.0263 4.71229 23.0263C5.23057 23.0263 5.69832 23.0604 6.1026 23.1262C6.49395 23.1873 6.77836 23.2414 6.94877 23.286L7.05807 23.3154V25.1112L6.85123 25.0172C6.55977 24.8844 6.22717 24.7539 5.8605 24.6293C5.50323 24.5083 5.09894 24.4425 4.65823 24.4342C4.30448 24.4342 4.01302 24.5153 3.79326 24.6752C3.56291 24.8303 3.45244 25.0759 3.45244 25.4297C3.45244 25.5965 3.50532 25.7423 3.61579 25.8739C3.73332 26.042 3.88257 26.1936 4.06944 26.3369C4.4843 26.6167 4.97554 26.9069 5.52321 27.196C6.08967 27.4993 6.59502 27.8742 7.02634 28.3113C7.4835 28.7744 7.72208 29.3773 7.73618 30.1036C7.72208 31.0132 7.39419 31.7113 6.76191 32.1838ZM15.0015 31.4398C14.8064 31.8136 14.5396 32.0944 14.2106 32.2743C13.9038 32.4505 13.563 32.5751 13.201 32.6433C12.8355 32.7056 12.483 32.7373 12.1492 32.7373H9.23461V23.1779H12.141C12.3948 23.1779 12.6781 23.2002 12.9801 23.2449C13.2904 23.2907 13.5877 23.4024 13.8662 23.5728C14.1412 23.7267 14.3775 23.9677 14.5631 24.2862C14.7406 24.6023 14.8311 25.0101 14.8311 25.5014C14.8311 25.8845 14.7782 26.2135 14.6748 26.4792C14.5655 26.7483 14.4198 26.9716 14.2411 27.1467C14.0331 27.3359 13.831 27.4852 13.6359 27.5956C13.717 27.6168 13.7992 27.6426 13.8815 27.672C14.1283 27.7672 14.3551 27.9118 14.5596 28.1033C14.7712 28.2831 14.951 28.5358 15.092 28.852C15.2236 29.1552 15.2906 29.5489 15.2906 30.026C15.2824 30.6136 15.1848 31.0884 15.0015 31.4398ZM23.2458 26.0102H21.262V25.8633C21.262 25.68 21.2538 25.4943 21.2373 25.3121C21.2091 25.157 21.1492 25.0019 21.0634 24.8656C20.987 24.728 20.8789 24.6246 20.7284 24.5412C20.5768 24.473 20.3559 24.4354 20.0821 24.4354C19.733 24.4436 19.4463 24.5412 19.2324 24.728C19.0055 24.9184 18.8316 25.1723 18.7141 25.4837C18.5872 25.8128 18.499 26.1689 18.4497 26.5414C18.3956 26.9269 18.3686 27.3089 18.3686 27.6779C18.3603 28.7697 18.5378 29.6699 18.8986 30.3539C19.2406 31.0273 19.82 31.3576 20.6697 31.3658C21.1621 31.3576 21.5922 31.2635 21.9425 31.0861C22.3115 30.9169 22.5595 30.7899 22.6829 30.7077L22.9109 30.5561V32.3083L22.8204 32.3459C22.7111 32.3906 22.5783 32.44 22.4243 32.4928C22.2539 32.5657 22.0529 32.6315 21.8332 32.6856C21.3971 32.809 20.8859 32.8783 20.3218 32.8924H20.3195H20.3171C18.9809 32.8795 17.9831 32.4094 17.352 31.4986C16.7197 30.6089 16.3989 29.4043 16.3989 27.92C16.3895 26.5038 16.6739 25.3345 17.2415 24.4436C17.8127 23.5293 18.7681 23.0545 20.0821 23.031C21.1645 23.0451 21.9718 23.3272 22.4842 23.8713C22.9919 24.419 23.2481 25.09 23.2481 25.868V26.0102H23.2458Z"
    fill="#F9FAFB" />
  <path
    d="M6.119 0H0.638859C0.638859 0 0.637683 5.14637 0.638859 7.76597C0.99143 2.63723 6.119 0 6.119 0Z"
    fill="#F9FAFB" />
  <path
    d="M27.0629 9.81458C26.6786 10.3716 25.9711 11.0944 24.9874 11.8125C25.2753 12.1991 25.5069 12.5928 25.6878 12.9877C26.7115 11.4011 27.1052 10.0484 27.0629 9.81458Z"
    fill="#F9FAFB" />
  <path
    d="M8.57756 14.4097C7.20488 13.6117 6.34931 12.9653 5.60773 12.1215C5.24223 12.2989 4.33965 12.8031 3.94007 12.9242C4.21978 12.5751 4.86616 11.944 5.22225 11.6784C1.46032 7.23955 5.51489 2.64672 7.47754 0.910889C2.29709 3.04395 -2.98679 13.5976 6.58788 18.2821C14.0154 21.1226 19.7153 19.8193 22.731 17.0269C22.3737 16.236 21.9259 15.5344 21.4041 14.9162C18.0841 16.3982 14.0307 16.8083 8.57756 14.4097Z"
    fill="#F9FAFB" />
</svg>
  