<svg width="89" height="22" viewBox="0 0 89 22" fill="none" xmlns="http://www.w3.org/2000/svg">
  <path
    d="M15.6339 9.78232C15.0264 10.2826 14.5738 10.3659 14.3713 10.1635C14.2403 10.0324 14.2165 9.77041 14.3118 9.43692C14.6334 8.37689 14.8835 7.30495 15.086 6.22111C16.3008 5.68514 17.5157 5.1849 18.8616 5.05389C18.2303 6.7809 17.075 8.57937 15.6339 9.78232ZM15.0145 13.3435C14.2522 13.1887 13.8949 12.8552 13.9188 12.5574C13.9307 12.3669 14.1093 12.1763 14.419 12.0453C15.3718 11.6403 16.3127 11.1997 17.206 10.6637C18.3852 11.2354 19.5166 11.9619 20.4218 12.879C18.7663 13.4984 16.7296 13.7008 15.0145 13.3435ZM11.8702 15.2254C11.5009 14.4631 11.5367 13.939 11.7749 13.7604C11.9416 13.6413 12.2037 13.6651 12.5014 13.8319C13.4304 14.3559 14.3713 14.8323 15.3718 15.2254C15.3718 15.2254 15.3718 15.2254 15.3718 15.2373C15.7291 16.6665 15.9435 18.1672 15.8482 19.6441C14.1927 18.596 12.692 16.9286 11.8702 15.2254ZM8.30895 13.8557C8.72582 13.0219 9.1665 12.7004 9.46426 12.7956C9.66674 12.8552 9.80966 13.0815 9.85731 13.4507C10.0241 14.6179 10.2742 15.7613 10.5719 16.8928C9.53573 18.2863 8.42806 19.6322 7.03454 20.728C6.87971 18.4769 7.30848 15.8924 8.30895 13.8557ZM7.23702 10.0086C8.17794 9.81805 8.69009 9.97288 8.80919 10.2706C8.88065 10.4612 8.78537 10.7232 8.52334 11.0091C7.64197 11.9262 6.83206 12.8909 6.05789 13.8914H6.04598C4.15223 14.0224 2.1751 13.951 0.317078 13.5103C2.21083 11.9143 4.77157 10.4969 7.23702 10.0086ZM9.64292 6.88809C10.3456 7.49552 10.5362 7.97194 10.3814 8.23396C10.2742 8.40071 10.0241 8.48408 9.64292 8.44835C8.38042 8.30543 7.11791 8.24588 5.8435 8.24588C4.64055 6.86427 3.5448 5.32783 2.84208 3.67228C5.23607 4.20825 7.80872 5.32783 9.64292 6.88809ZM13.3828 6.93573C13.3828 7.79328 13.1446 8.22206 12.8587 8.24588C12.6682 8.2697 12.4538 8.11486 12.2513 7.80519C11.6081 6.80472 10.9054 5.83997 10.1551 4.89905C10.4409 3.39834 10.9054 1.87381 11.7034 0.551758C12.7039 2.46933 13.3947 4.80377 13.3828 6.93573Z"
    fill="#D7E6C8" />
  <path fill-rule="evenodd" clip-rule="evenodd"
    d="M10.1548 4.88726C10.4407 3.39846 10.9052 1.87393 11.7032 0.551878C10 0.31367 8.24918 0.516147 6.65318 1.11167C7.62984 2.0645 8.59458 3.02924 9.46404 4.06545C9.56556 4.18834 9.67427 4.31602 9.78157 4.44205C9.91345 4.59695 10.0432 4.74935 10.1548 4.88726ZM15.5504 1.89781C15.479 3.04121 15.3956 4.1727 15.2288 5.29228C15.209 5.41634 15.1891 5.55074 15.1693 5.68514L15.1693 5.68516L15.1693 5.68529C15.1415 5.87341 15.1137 6.06153 15.0859 6.22129C16.3008 5.68532 17.5156 5.18508 18.8615 5.05407C18.0159 3.77966 16.8844 2.69581 15.5504 1.89781ZM20.3502 8.49628C19.576 9.10371 18.778 9.69923 17.9324 10.2114C17.8246 10.2761 17.7119 10.3481 17.5999 10.4197C17.4643 10.5063 17.3297 10.5923 17.2059 10.664C18.385 11.2357 19.5165 11.9622 20.4217 12.8793C20.6361 11.3667 20.6242 10.0089 20.3502 8.49628ZM16.1931 15.5352C17.1222 15.8806 18.0869 16.1427 19.0516 16.3809C18.2536 17.6672 17.1579 18.7987 15.8597 19.6443C15.9549 18.1674 15.7406 16.6667 15.3832 15.2375V15.2256C15.5811 15.3146 15.8282 15.4036 16.0564 15.4858L16.0564 15.4858L16.1931 15.5352ZM12.0843 21.1092C11.6317 20.0253 11.2029 18.9296 10.8575 17.8338C10.8328 17.7535 10.8065 17.67 10.7798 17.5853L10.7798 17.5853L10.7798 17.5853L10.7798 17.5851C10.7036 17.3434 10.6246 17.0926 10.5717 16.881C9.53548 18.2745 8.42781 19.6204 7.04621 20.7161C8.71366 21.2045 10.3454 21.4188 12.0843 21.1092ZM5.40282 14.8085C4.59291 15.94 3.85447 17.1548 3.15176 18.3697C1.77015 17.0238 0.793497 15.3325 0.317082 13.5103C2.1751 13.9509 4.15223 14.0224 6.04598 13.8914H6.05789C5.93641 14.0557 5.80206 14.2458 5.66772 14.4359L5.6676 14.4361C5.57807 14.5628 5.48854 14.6894 5.40282 14.8085ZM0.221466 8.65059C1.71027 8.47193 3.21098 8.3171 4.68786 8.26946C4.81284 8.26555 4.94422 8.26037 5.07613 8.25516L5.07619 8.25516C5.34652 8.24448 5.61905 8.23373 5.84317 8.23373C4.62831 6.86403 3.54447 5.32759 2.84175 3.67204C1.5197 5.06556 0.614509 6.80448 0.221466 8.65059Z"
    fill="#F9FAFB" />
  <path fill-rule="evenodd" clip-rule="evenodd"
    d="M26.2453 7.36472C25.9714 9.38945 26.7098 10.5924 28.7345 11.3784L31.4024 12.3908C32.248 12.6886 32.4386 12.8315 32.3314 13.6414C32.1646 14.6776 31.7478 14.9515 29.8779 14.9515H25.352L24.9471 17.6551H30.0089C33.9512 17.6551 35.2851 16.7737 35.6781 13.8558C35.9282 12.0216 35.5948 10.6996 33.1651 9.80631L30.6401 8.87731C29.6635 8.53192 29.4849 8.389 29.6159 7.57911C29.7588 6.67393 30.1161 6.47146 30.8426 6.42382H36.2498L36.6548 3.72021H31.8312C28.544 3.72021 26.686 4.30381 26.2453 7.36472ZM41.6093 6.42386L42.0024 3.72025H38.7271L38.3221 6.42386H41.6093ZM39.9539 17.6432H36.6786L38.1198 7.80542H41.407L39.9539 17.6432ZM48.0288 7.53149C46.1708 7.53149 44.8845 7.90071 44.0151 8.69869C43.1456 9.48476 42.6454 10.6758 42.3596 12.5814C42.0737 14.4751 42.3119 15.8091 43.098 16.6547C43.8483 17.4765 45.1108 17.8695 46.9807 17.8695C47.8978 17.8695 49.2436 17.7861 50.4466 17.405L50.5299 17.3812L50.8753 15.0587L50.6609 15.0944C49.8153 15.2135 48.7553 15.2612 47.5047 15.2612C46.6472 15.2612 46.2065 15.1659 45.9683 14.9039C45.6706 14.5823 45.611 13.9511 45.7778 12.7362C46.0636 10.4852 46.802 10.1279 48.4456 10.1279C49.1126 10.1279 51.6018 10.1636 51.6018 10.1636L51.9234 7.96026C51.9218 7.96186 51.8953 7.95529 51.8444 7.9427C51.5171 7.86167 50.1834 7.53149 48.0288 7.53149ZM60.2485 7.80542H60.8797L60.7606 8.0198C59.8435 9.50857 59.5458 10.771 59.5458 10.783L59.522 10.8901H58.8193C57.9617 10.8901 56.8065 11.4857 56.3896 11.9859L55.5916 17.6432H52.2925L53.7336 7.80542H56.342V9.69913C57.8665 8.3771 59.0456 7.80542 60.2485 7.80542ZM70.8961 10.9854C71.0509 9.94926 70.8842 9.1751 70.384 8.62723C69.717 7.8888 68.4307 7.53149 66.4655 7.53149C62.4875 7.53149 60.9868 8.78206 60.5104 12.498C60.2722 14.4037 60.5462 15.7495 61.3561 16.607C62.1421 17.4527 63.4522 17.8695 65.346 17.8695C66.6799 17.8695 68.7165 17.6313 70.0028 17.1192L70.1219 17.0715L70.0862 16.9524C70.0862 16.9508 70.081 16.9331 70.0719 16.9016C70.0128 16.6988 69.7876 15.9249 69.7051 15.2135L69.6813 15.0587L69.5264 15.0944C69.1334 15.1897 66.7037 15.3088 65.7033 15.3088C64.5361 15.3088 63.9167 15.0944 63.8453 13.963L66.6799 13.7605C69.0381 13.6057 70.5745 13.0816 70.8961 10.9854ZM64.0358 11.9978C64.3336 10.4018 64.7147 9.90162 66.263 9.90162H66.5727C67.0967 9.90162 67.4541 9.93735 67.597 10.0922C67.6923 10.1994 67.728 10.378 67.7042 10.6877C67.597 11.5571 67.1444 11.7358 66.1797 11.8072L64.0358 11.9978ZM79.4839 7.7576L80.0794 3.73197L83.3666 3.74388L81.3061 17.6549H78.674V16.0947C77.3639 17.2738 76.018 17.8812 74.6484 17.8812C73.6955 17.8812 72.9809 17.6192 72.4807 17.0713C71.7065 16.2376 71.4803 14.7489 71.7899 12.5336C72.3973 8.37693 74.0171 7.54322 76.4468 7.54322C77.4115 7.54322 78.5072 7.61468 79.4839 7.7576ZM75.756 15.1895C76.7565 15.1657 77.5544 14.6655 78.5787 13.796L79.1504 9.82997H77.7093C75.8751 9.82997 75.4821 10.0563 75.1248 12.605C74.9461 13.9151 74.8866 14.725 75.1605 15.0228C75.2796 15.1538 75.4702 15.2014 75.756 15.1895ZM88.2493 6.42386L88.6423 3.72025H85.367L84.974 6.42386H88.2493ZM86.5935 17.6432H83.3183L84.7594 7.80542H88.0466L86.5935 17.6432Z"
    fill="#F9FAFB" />
</svg>
  