<svg width="99" height="22" viewBox="0 0 99 22" fill="none" xmlns="http://www.w3.org/2000/svg">
<path d="M14.4422 10.5415L5.29382 5.26003C3.35563 4.14167 0.934082 5.53963 0.934082 7.77873V18.3416C0.934082 20.5784 3.35563 21.9787 5.29382 20.8603L14.4422 15.5789C16.3804 14.4605 16.3804 11.6622 14.4422 10.5438V10.5415Z" fill="#F9FAFB"/>
<path d="M34.0069 15.9195C34.0069 19.225 31.3802 20.7892 27.3663 20.7892C25.7136 20.7892 24.0018 20.4055 22.4966 19.9333V16.4212C23.7066 16.8639 25.6545 17.4246 27.4254 17.4246C29.1962 17.4246 30.0225 16.8934 30.0225 16.2146C30.0225 14.3552 22.1719 15.3587 22.1719 10.0463C22.1719 7.21295 25.0348 5.53068 28.1632 5.53068C30.7309 5.53068 32.177 6.03241 33.0329 6.41608V9.78063C32.118 9.33793 30.5243 8.74766 28.7535 8.74766C27.3663 8.74766 26.2153 9.21987 26.2153 10.1348C26.2153 11.9056 34.0069 10.9021 34.0069 15.9195Z" fill="#F9FAFB"/>
<path d="M36.4574 14.1486V0.454346H40.3827V5.82581H44.8688V9.19036H40.3827V14.1782C40.3827 16.0375 40.7664 17.159 42.3897 17.159C42.8619 17.159 44.5441 17.0705 44.8688 16.9819V20.5236C44.1605 20.6711 42.4192 20.7892 41.8879 20.7892C38.0807 20.7597 36.4574 18.3986 36.4574 14.1486Z" fill="#F9FAFB"/>
<path d="M51.8038 20.7892C49.0885 20.7892 46.7275 19.4021 46.7275 16.3326C46.7275 13.2042 49.2951 11.758 52.5711 11.758L55.8767 11.7285V11.2563C55.8767 9.48549 54.519 8.80668 53.0434 8.80668C51.5382 8.80668 50.092 9.78063 49.2656 10.5185L47.4653 7.9803C49.2361 6.12095 51.3316 5.56019 53.8107 5.56019C57.0867 5.56019 59.802 7.5376 59.802 10.6365V20.5236H55.8767V19.343C54.8437 20.2579 53.6041 20.7892 51.8038 20.7892ZM53.0434 14.4438C51.8333 14.4438 50.8003 14.7684 50.8003 16.0375C50.8003 17.2476 51.8038 17.7198 52.9548 17.7198C54.3715 17.7198 55.1978 17.0705 55.8767 16.126V14.4438H53.0434Z" fill="#F9FAFB"/>
<path d="M63.0888 5.82581H67.0141V7.68517C68.0471 6.41608 69.4342 5.64873 71.1755 5.64873C71.7363 5.64873 72.238 5.70776 72.7397 5.85533V9.66258C72.2675 9.54452 71.7953 9.48549 71.2936 9.48549C69.4932 9.48549 67.87 10.3119 67.0141 11.7285V20.5236H63.0888V5.82581Z" fill="#F9FAFB"/>
<path d="M74.8769 14.1486V0.454346H78.8022V5.82581H83.2883V9.19036H78.8022V14.1782C78.8022 16.0375 79.1859 17.159 80.8092 17.159C81.2814 17.159 82.9637 17.0705 83.2883 16.9819V20.5236C82.58 20.6711 80.8387 20.7892 80.3074 20.7892C76.5002 20.7597 74.8769 18.3986 74.8769 14.1486Z" fill="#F9FAFB"/>
<path d="M90.2233 20.7892C87.5081 20.7892 85.147 19.4021 85.147 16.3326C85.147 13.2042 87.7146 11.758 90.9907 11.758L94.2962 11.7285V11.2563C94.2962 9.48549 92.9385 8.80668 91.4629 8.80668C89.9577 8.80668 88.5115 9.78063 87.6851 10.5185L85.8848 7.9803C87.6556 6.12095 89.7511 5.56019 92.2302 5.56019C95.5062 5.56019 98.2215 7.5376 98.2215 10.6365V20.5236H94.2962V19.343C93.2632 20.2579 92.0236 20.7892 90.2233 20.7892ZM91.4629 14.4438C90.2528 14.4438 89.2198 14.7684 89.2198 16.0375C89.2198 17.2476 90.2233 17.7198 91.3743 17.7198C92.791 17.7198 93.6174 17.0705 94.2962 16.126V14.4438H91.4629Z" fill="#F9FAFB"/>
</svg>
