<svg width="16" height="17" viewBox="0 0 16 17" fill="none" xmlns="http://www.w3.org/2000/svg">
  <path
    d="M12.7 3.98133C12.0888 3.36395 11.3608 2.87444 10.5585 2.54136C9.75609 2.20829 8.89544 2.0383 8.0267 2.04133C4.3867 2.04133 1.42003 5.008 1.42003 8.648C1.42003 9.81466 1.7267 10.948 2.30003 11.948L1.3667 15.3747L4.8667 14.4547C5.83337 14.9813 6.92003 15.2613 8.0267 15.2613C11.6667 15.2613 14.6334 12.2947 14.6334 8.65466C14.6334 6.888 13.9467 5.228 12.7 3.98133ZM8.0267 14.1413C7.04003 14.1413 6.07337 13.8747 5.2267 13.3747L5.0267 13.2547L2.9467 13.8013L3.50003 11.7747L3.3667 11.568C2.81853 10.6926 2.52746 9.68082 2.5267 8.648C2.5267 5.62133 4.99337 3.15466 8.02003 3.15466C9.4867 3.15466 10.8667 3.728 11.9 4.768C12.4117 5.27731 12.8172 5.8831 13.093 6.55028C13.3688 7.21745 13.5094 7.93274 13.5067 8.65466C13.52 11.6813 11.0534 14.1413 8.0267 14.1413ZM11.04 10.0347C10.8734 9.95466 10.06 9.55466 9.91337 9.49466C9.76003 9.44133 9.65337 9.41466 9.54003 9.57466C9.4267 9.74133 9.11337 10.1147 9.02003 10.2213C8.9267 10.3347 8.8267 10.348 8.66003 10.2613C8.49337 10.1813 7.96003 10.0013 7.33337 9.44133C6.84003 9.00133 6.51337 8.46133 6.41337 8.29466C6.32003 8.128 6.40003 8.04133 6.4867 7.95466C6.56003 7.88133 6.65337 7.76133 6.73337 7.668C6.81337 7.57466 6.8467 7.50133 6.90003 7.39466C6.95337 7.28133 6.9267 7.188 6.8867 7.108C6.8467 7.028 6.51337 6.21466 6.38003 5.88133C6.2467 5.56133 6.1067 5.60133 6.0067 5.59466H5.6867C5.57337 5.59466 5.40003 5.63466 5.2467 5.80133C5.10003 5.968 4.67337 6.368 4.67337 7.18133C4.67337 7.99466 5.2667 8.78133 5.3467 8.888C5.4267 9.00133 6.51337 10.668 8.1667 11.3813C8.56003 11.5547 8.8667 11.6547 9.1067 11.728C9.50003 11.8547 9.86003 11.8347 10.1467 11.7947C10.4667 11.748 11.1267 11.3947 11.26 11.008C11.4 10.6213 11.4 10.2947 11.3534 10.2213C11.3067 10.148 11.2067 10.1147 11.04 10.0347Z"
    fill="#F3F4F6" />
</svg>
  