<svg width="1192" height="718" viewBox="0 0 1192 718" fill="none" xmlns="http://www.w3.org/2000/svg">
  <path
    d="M1191.82 203.602C1188.18 272.802 1134.26 336.047 1056.69 360.437V360.398C1053.43 361.321 1050.25 362.186 1047.11 362.992C1052.27 364.27 1057.58 365.645 1063 367.139H1062.98C1137.01 388.483 1188.64 450.313 1191.84 517.253C1194.17 565.777 1171.13 615.304 1138.27 644.844C1128.31 653.806 1119.18 659.525 1111.03 664.595C1072.09 688.769 1035.52 695.982 1003.52 701.249C923.021 714.535 862.382 717.345 862.382 717.345C842.268 717.955 821.289 718.171 799.544 717.856C777.268 717.542 755.838 716.697 735.291 715.459C712.603 697.299 689.915 679.139 667.208 660.959C667.208 660.959 688.324 661.451 698.873 661.706C709.441 661.962 719.989 662.217 730.537 662.453C730.537 662.453 842.13 672.142 967.473 655.437C1029.25 647.202 1072.54 641.306 1104.39 604.809C1132.65 572.401 1148.88 519.356 1130.81 474.113C1112.03 427.063 1064.65 409.61 1022.24 393.966C933.942 361.42 849.496 371.246 793.651 384.768L767.525 333.394C773.379 334.455 779.94 335.516 787.149 336.519C815.258 340.41 836.768 340.842 844.978 341H845.568C856.529 341.236 869.041 341.688 882.065 342.316C888.625 342.179 895.697 342.199 904.497 342.572C910.665 342.847 914.613 343.162 923.708 343.869C927.951 344.203 933.333 344.636 940.562 345.186C959.518 346.64 975.016 347.721 976.686 347.819C1003.73 349.529 1104.5 329.64 1130.79 246.741C1144.91 202.206 1134.16 150.223 1104.37 116.045C1076.3 83.8527 1040.03 77.7011 967.552 65.4373H967.453C922.215 57.7528 875.032 56.8487 780.667 55.0602C761.377 54.6868 745.505 54.5296 735.016 54.451C734.643 197.273 734.289 340.076 733.936 482.918C734.034 491.133 734.112 499.348 734.211 507.564C734.328 518.727 734.446 529.91 734.584 541.073C696.732 574.779 635.897 621.259 551.274 656.439L550.921 656.596C494.741 679.964 422.906 709.838 328.776 703.313H328.737C289.706 700.62 170.61 692.385 82.8441 596.142C-32.9326 469.141 5.07691 299.138 9.33947 281.548C13.2288 265.51 54.4008 106.494 204.474 41.8334V41.8727C277.527 10.3877 343.351 15.7531 371.107 18.3474C494.584 29.8644 602.798 126.442 602.798 126.442C587.28 126.147 571.762 125.852 556.244 125.557C540.765 125.263 525.306 124.988 509.827 124.693C492.541 113.608 398.804 55.866 282.811 85.0319C172.456 112.802 95.8872 205.665 73.8279 304.955C71.6475 314.841 45.3257 442.962 127.886 546.497C172.299 602.195 226.985 624.148 238.28 628.492C292.201 649.207 338.126 645.237 380.123 641.129C457.419 633.562 512.518 607.384 567.499 580.734C595.314 567.251 630.023 548.502 668.387 522.736V0.384062C747.018 -0.854112 812.901 1.09159 862.363 3.50898C862.363 3.50898 923.001 6.31943 1003.5 19.6052C1035.5 24.8724 1072.07 32.0852 1111.01 56.2591C1119.16 61.3297 1128.29 67.0489 1138.25 76.0109C1172.78 107.044 1194.21 158.104 1191.82 203.602Z"
    fill="#0A0A0A" />
</svg>
  